<?xml version="1.0" standalone="no"?>
<!DOCTYPE svg PUBLIC "-//W3C//DTD SVG 1.1//EN" "http://www.w3.org/Graphics/SVG/1.1/DTD/svg11.dtd" >
<svg>
<metadata>
Created by FontForge 20090622 at Sun Mar  8 12:39:59 2020
 By deploy user
Copyright (c) 2019, Jipatype (Anupap Jaichumnan) All rights reserved.
</metadata>
<defs>
<font id="Petchlamoon-Regular" horiz-adv-x="0" >
  <font-face 
    font-family="Petchlamoon"
    font-weight="400"
    font-stretch="normal"
    units-per-em="4096"
    panose-1="0 0 0 0 0 0 0 0 0 0"
    ascent="3185"
    descent="-911"
    x-height="2275"
    cap-height="3185"
    bbox="-2758 -2986 5436 5592"
    underline-thickness="159"
    underline-position="-569"
    unicode-range="U+0020-U+2212"
  />
<missing-glyph horiz-adv-x="1497" 
d="M136 0v2730h1089v-2730h-1089zM272 136h817v2458h-817v-2458z" />
    <glyph glyph-name="quotedblleft" unicode="&#x2018;&#x2018;" horiz-adv-x="1976" 
d="M669 3185h220q19 0 34.5 -14.5t15.5 -34.5q0 -2 -1 -4t-1 -3l-221 -1155q-3 -18 -16.5 -29.5t-31.5 -11.5h-324q-19 0 -33.5 14t-14.5 34q0 9 1 13l325 1154q5 16 18 26.5t29 10.5zM1411 3185h221q20 0 34 -14.5t14 -34.5v-7l-221 -1155q-3 -18 -16.5 -29.5t-31.5 -11.5
h-324q-19 0 -34 14t-15 34q0 5 2 13l325 1154q5 16 17.5 26.5t28.5 10.5z" />
    <glyph glyph-name="quotedblright" unicode="&#x2019;&#x2019;" horiz-adv-x="1948" 
d="M565 3185h324q19 0 34.5 -14.5t15.5 -34.5q0 -5 -2 -13l-327 -1154q-5 -16 -17 -26t-28 -10h-221q-19 0 -33.5 14t-14.5 34v8l221 1155q3 18 16.5 29.5t31.5 11.5zM1308 3185h324q19 0 33.5 -14.5t14.5 -34.5v-13l-327 -1154q-4 -16 -17.5 -26t-29.5 -10h-219
q-19 0 -34 14t-15 34q0 1 0.5 4t0.5 4l221 1155q3 18 16.5 29.5t31.5 11.5z" />
    <glyph glyph-name="rulakkhangyao" unicode="&#xe24;&#xe32;" horiz-adv-x="4360" 
d="M627 1592h-328q-20 0 -35 14t-15 34v109q0 529 269 789.5t832 260.5q277 0 479 -61.5t329.5 -178t196.5 -292.5q132 532 809 532q856 0 856 -819v-2841q0 -20 -14.5 -35t-33.5 -15h-319q-20 0 -34 15t-14 35v2841q0 254 -130 371.5t-379 117.5t-379 -116.5t-130 -372.5
v-2841q0 -20 -14 -35t-34 -15h-319q-20 0 -34 15t-14 35v2610q0 367 -185 543.5t-569 176.5q-365 0 -549.5 -159.5t-201.5 -490.5h532q19 0 34 -14.5t15 -33.5v-129q0 -20 -15 -35t-36 -15h-32q-125 0 -232.5 -63t-170.5 -170.5t-63 -232.5v-517q0 -133 71.5 -206t207.5 -73
h282q20 0 34 -14t14 -34v-234q0 -20 -14 -34t-34 -14h-487q-220 0 -355 138t-135 352v551q0 177 95 326t249 225z" />
    <glyph glyph-name="lulakkhangyao" unicode="&#xe26;&#xe32;" horiz-adv-x="4491" 
d="M968 1592h-510q-20 0 -34 14t-14 34v109q0 529 268.5 789.5t831.5 260.5q272 0 471.5 -59.5t327.5 -172t198 -282.5q38 136 113.5 236t182.5 160.5t236 89t285 28.5q856 0 856 -819v-2841q0 -20 -14.5 -35t-33.5 -15h-318q-20 0 -35 15t-15 35v2841q0 254 -129.5 371.5
t-378.5 117.5q-248 0 -378 -116.5t-130 -372.5v-2841q0 -20 -15 -35t-35 -15h-317q-20 0 -34 15t-14 35v2610q0 367 -185 543.5t-569 176.5q-365 0 -550 -159.5t-202 -490.5h714q19 0 33.5 -14.5t14.5 -33.5v-129q0 -20 -15 -35t-36 -15h-30q-125 0 -232.5 -63t-171 -170.5
t-63.5 -232.5v-638q0 -214 -134.5 -351t-354.5 -137h-344q-20 0 -34 14t-14 34l-2 233q0 20 15 34.5t35 14.5h140q136 0 207 72t71 205v434q0 177 94.5 326t247.5 225z" />
    <glyph glyph-name="copyright2" unicode="&#x3b;&#x3b;For&#x20;Education&#x20;Used&#x20;Only&#x3b;&#x3b;" horiz-adv-x="3527" 
d="M1779 2592q380 0 580.5 -164.5t200.5 -486.5v-35q0 -14 -10 -24.5t-25 -10.5h-212q-14 0 -24 10.5t-10 24.5v15q0 217 -131 329.5t-369 112.5t-369.5 -112.5t-131.5 -329.5v-636q0 -217 131.5 -329.5t369.5 -112.5t369 112.5t131 329.5v15q0 14 10 25t24 11h212
q15 0 25 -10.5t10 -25.5v-36q0 -322 -200.5 -486.5t-580.5 -164.5t-581 164.5t-201 486.5v677q0 322 201 486.5t581 164.5zM1773 3252q717 0 1097 -300.5t380 -881.5v-933q0 -295 -105 -524.5t-299 -378t-465 -225t-608 -76.5t-608 76.5t-465 225t-299 378t-105 524.5v933
q0 581 380 881.5t1097 300.5zM1773 3025q-391 0 -669.5 -105t-429 -317t-150.5 -519v-961q0 -235 93.5 -420t261 -303t393.5 -179.5t498 -61.5t499 61t396 178.5t263.5 303t94.5 421.5v961q0 307 -151 519t-429.5 317t-669.5 105z" />
    <glyph glyph-name="registered2" unicode="&#x3b;&#x3b;Registered&#x3b;&#x3b;" horiz-adv-x="3547" 
d="M1773 3252q717 0 1097 -300.5t380 -881.5v-933q0 -295 -105 -524.5t-299 -378t-465 -225t-608 -76.5t-608 76.5t-465 225t-299 378t-105 524.5v933q0 581 380 881.5t1097 300.5zM1773 3025q-391 0 -669.5 -105t-429 -317t-150.5 -519v-961q0 -235 93.5 -420t261 -303
t393.5 -179.5t498 -61.5t499 61t396 178.5t263.5 303t94.5 421.5v961q0 307 -151 519t-429.5 317t-669.5 105zM1113 2548h926q213 0 341 -130t128 -342v-322q0 -176 -82 -294.5t-229 -161.5l446 -599q5 -13 5 -14q0 -10 -7.5 -17.5t-18.5 -7.5h-256q-27 0 -43 23l-441 592
h-523v-581q0 -14 -10.5 -24t-24.5 -10h-211q-14 0 -23.5 10t-9.5 24v1820q0 14 9.5 24t23.5 10zM1359 1504l571 1q139 0 219 79.5t80 219.5v222q0 134 -78 213t-212 79h-580v-814z" />
    <glyph glyph-name="trademark2" unicode="&#x3b;&#x3b;Trademark&#x3b;&#x3b;" horiz-adv-x="3007" 
d="M1514 3185h208q34 0 48 -29l333 -706l338 706q15 29 46 29h208q14 0 24 -10.5t10 -24.5v-1183q0 -14 -10 -24t-24 -10h-203q-14 0 -24.5 10t-10.5 24v731l-270 -562q-9 -19 -30 -19h-106q-21 0 -30 19l-269 562v-731q0 -14 -9.5 -24t-23.5 -10h-205q-14 0 -23.5 10
t-9.5 24v1183q0 14 9.5 24.5t23.5 10.5zM1328 3185q14 0 23.5 -10.5t9.5 -24.5v-154q0 -14 -9.5 -23.5t-23.5 -9.5h-363l-3 -996q0 -14 -10.5 -24t-24.5 -10h-202q-14 0 -24 10t-10 24v996h-362q-14 0 -23.5 9.5t-9.5 23.5v154q0 14 9.5 24.5t23.5 10.5h999z" />
    <glyph glyph-name="multiply2" unicode="&#x3b;&#x3b;Multiply&#x3b;&#x3b;" horiz-adv-x="2134" 
d="M1091 1608l558 559q14 14 34 14t34 -14l153 -154q14 -14 14 -34q0 -19 -14 -33l-558 -560l558 -559q14 -14 14 -33q0 -22 -14 -36l-153 -152q-14 -14 -34 -14t-34 14l-558 559l-560 -559q-14 -14 -34.5 -14t-34.5 14l-152 152q-14 14 -14 36q0 19 14 33l559 559l-559 560
q-14 14 -14 33q0 20 14 34l152 154q14 14 34.5 14t34.5 -14z" />
    <glyph glyph-name="divide2" unicode="&#x3b;&#x3b;Divide&#x3b;&#x3b;" horiz-adv-x="2578" 
d="M2238 1229h-1894q-20 0 -34 15t-14 35v215q0 20 14 34t34 14h1894q20 0 34 -14t14 -34v-215q0 -20 -14 -35t-34 -15zM1290 2505q109 0 177 -64t68 -172t-68 -172t-177 -64t-176.5 64t-67.5 172t67.5 172t176.5 64zM1290 697q109 0 177 -64t68 -172t-68 -172t-177 -64
t-176.5 64t-67.5 172t67.5 172t176.5 64z" />
    <glyph glyph-name="f_f" unicode="ff" horiz-adv-x="3205" 
d="M1637 2938q171 314 719 314q388 0 597 -160.5t209 -481.5q0 -20 -14 -34t-34 -14h-302q-20 0 -34 14t-14 34q0 181 -126 272t-346 91t-346.5 -91t-126.5 -272v-335h640q20 0 34.5 -14t14.5 -34v-217q0 -20 -14.5 -34t-34.5 -14h-640v-1914q0 -19 -14.5 -33.5t-33.5 -14.5
h-301q-19 0 -33.5 14.5t-14.5 33.5v2631q0 144 -90 219t-251 75t-251.5 -75t-90.5 -219v-404h544q20 0 34 -14t14 -34v-217q0 -20 -14 -34t-34 -14h-544v-1914q0 -19 -14.5 -33.5t-33.5 -14.5h-301q-19 0 -34.5 14.5t-15.5 33.5v2648q0 279 173 417.5t504 138.5
q496 0 620 -314z" />
    <glyph glyph-name="f_i" unicode="fi" horiz-adv-x="2159" 
d="M1081 3252q364 0 551 -138.5t187 -417.5q0 -19 -14 -34t-34 -15h-301q-20 0 -34 15t-14 34q0 137 -89.5 207t-251.5 70t-252 -70t-90 -207v-421h1033q20 0 34 -14t14 -34v-2179q0 -20 -14 -34t-34 -14h-302q-20 0 -34 14t-14 34v1914h-683v-1914q0 -20 -14 -34t-34 -14
h-301q-20 0 -35 14t-15 34v2648q0 279 188.5 417.5t552.5 138.5z" />
    <glyph glyph-name="f_f_i" unicode="ffi" horiz-adv-x="3238" 
d="M1621 2975q140 277 607 277q329 0 500.5 -138.5t171.5 -417.5q0 -19 -14 -34t-34 -15h-301q-20 0 -34 15t-14 34q0 137 -90 207t-252 70t-252 -70t-90 -207v-421h1033q20 0 34 -14t14 -34v-2179q0 -20 -14 -34t-34 -14h-301q-20 0 -34 14t-14 34v1914h-684v-1914
q0 -20 -14.5 -34t-33.5 -14h-301q-19 0 -33.5 14.5t-14.5 33.5v2631q0 144 -90 219t-251 75t-251.5 -75t-90.5 -219v-404h544q20 0 34 -14t14 -34v-217q0 -20 -14 -34t-34 -14h-544v-1914q0 -19 -14.5 -33.5t-33.5 -14.5h-301q-19 0 -34.5 14.5t-15.5 33.5v2648
q0 279 173 417.5t504 138.5q468 0 604 -277z" />
    <glyph glyph-name="f_l" unicode="fl" horiz-adv-x="2159" 
d="M996 3185h775q20 0 35 -14.5t15 -34.5v-3088q0 -20 -15 -34t-35 -14h-300q-20 0 -34 14t-14 34v2824h-367q-148 0 -232 -71t-84 -208v-318h543q20 0 34.5 -14t14.5 -34v-217q0 -20 -14.5 -34t-34.5 -14h-543v-1914q0 -20 -14.5 -34t-33.5 -14h-302q-19 0 -33.5 14.5
t-14.5 33.5v2579q0 279 167.5 418.5t486.5 139.5z" />
    <glyph glyph-name="f_f_l" unicode="ffl" horiz-adv-x="3238" 
d="M1635 2945q136 240 520 240h697q20 0 34 -14.5t14 -34.5v-3088q0 -20 -14 -34t-34 -14h-301q-20 0 -34 14t-14 34v2815h-376q-144 0 -226 -70.5t-82 -207.5v-310h543q20 0 34.5 -14t14.5 -34v-217q0 -20 -14.5 -34t-34.5 -14h-543v-1914q0 -20 -14 -34t-34 -14h-301
q-19 0 -33.5 14.5t-14.5 33.5v2597q0 144 -90 219t-251 75t-251.5 -75t-90.5 -219v-370h544q20 0 34 -14t14 -34v-217q0 -20 -14 -34t-34 -14h-544v-1914q0 -20 -14 -34t-34 -14h-301q-19 0 -34.5 14.5t-15.5 33.5v2648q0 279 173 417.5t504 138.5q493 0 618 -307z" />
    <glyph glyph-name="f_k" unicode="fk" horiz-adv-x="3522" 
d="M996 3185h775q20 0 34 -14.5t14 -34.5v-2241l1180 1360q15 20 38 20l406 -1q16 0 28 -12t12 -28q0 -15 -10 -26l-1018 -1074l1016 -1067q10 -11 10 -26q0 -16 -12 -28t-28 -12l-406 -1q-22 0 -37 18l-788 856l-391 -412v-414q0 -20 -14 -34t-34 -14h-301q-20 0 -34 14
t-14 34v2824h-366q-148 0 -232.5 -71t-84.5 -208v-318h544q20 0 34 -14t14 -34v-217q0 -20 -14 -34t-34 -14h-544v-1914q0 -19 -14.5 -33.5t-33.5 -14.5h-301q-20 0 -35 14t-15 34v2579q0 279 168.5 418.5t487.5 139.5z" />
    <glyph glyph-name="f_f_k" unicode="ffk" horiz-adv-x="4604" 
d="M1635 2945q136 240 520 240h697q20 0 34 -14.5t14 -34.5v-2241l1180 1360q15 20 38 20l406 -1q16 0 27.5 -12t11.5 -28q0 -13 -11 -26l-1017 -1075l1016 -1066q11 -13 11 -26q0 -16 -11.5 -28t-27.5 -12l-406 -1q-22 0 -37 18l-789 858l-391 -414v-414q0 -20 -14 -34
t-34 -14h-301q-20 0 -34 14t-14 34v2815h-376q-144 0 -226 -70.5t-82 -207.5v-310h543q20 0 34 -14t14 -34v-217q0 -20 -14 -34t-34 -14h-543v-1914q0 -19 -14.5 -33.5t-33.5 -14.5h-301q-20 0 -34 14t-14 34v2597q0 144 -90 219t-251 75t-251.5 -75t-90.5 -219v-370h544
q20 0 34 -14t14 -34v-217q0 -20 -14 -34t-34 -14h-544v-1914q0 -19 -14.5 -33.5t-33.5 -14.5h-301q-20 0 -35 14t-15 34v2648q0 279 173 417.5t504 138.5q493 0 618 -307z" />
    <glyph glyph-name="f_b" unicode="fb" horiz-adv-x="3682" 
d="M2540 2343q404 0 626.5 -195t222.5 -573v-876q0 -379 -220.5 -573.5t-628.5 -194.5q-564 0 -754 340l-42 -238q-10 -33 -44 -33h-230q-20 0 -34 14t-14 34v2824h-366q-148 0 -232.5 -71t-84.5 -208v-318h544q20 0 34 -14t14 -34v-217q0 -20 -14 -34t-34 -14h-544v-1914
q0 -19 -14.5 -33.5t-33.5 -14.5h-301q-19 0 -34.5 14t-15.5 34v2579q0 279 168.5 418.5t487.5 139.5h775q19 0 33.5 -14.5t14.5 -34.5v-1081q202 288 721 288zM2405 2031q-280 0 -433 -126.5t-153 -371.5v-791q0 -245 153 -371.5t433 -126.5t433 126.5t153 371.5v791
q0 245 -153 371.5t-433 126.5z" />
    <glyph glyph-name="f_f_b" unicode="ffb" horiz-adv-x="4762" 
d="M3621 2343q404 0 626.5 -195t222.5 -573v-876q0 -379 -220.5 -573.5t-628.5 -194.5q-564 0 -754 341l-43 -239q-10 -33 -45 -33h-228q-20 0 -34 14t-14 34v2815h-376q-144 0 -226 -70.5t-82 -207.5v-310h543q20 0 34 -14t14 -34v-217q0 -20 -14 -34t-34 -14h-543v-1914
q0 -19 -14.5 -33.5t-33.5 -14.5h-301q-19 0 -33.5 14t-14.5 34v2597q0 144 -90 219t-251 75t-251.5 -75t-90.5 -219v-370h544q20 0 34 -14t14 -34v-217q0 -20 -14 -34t-34 -14h-544v-1914q0 -19 -14.5 -33.5t-33.5 -14.5h-301q-19 0 -34.5 14t-15.5 34v2648q0 279 173 417.5
t504 138.5q493 0 618 -307q136 240 520 240h697q20 0 34 -14.5t14 -34.5v-1081q202 288 721 288zM3487 2031q-280 0 -433.5 -126.5t-153.5 -371.5v-791q0 -245 153.5 -371.5t433.5 -126.5t432.5 126.5t152.5 371.5v791q0 245 -152.5 371.5t-432.5 126.5z" />
    <glyph glyph-name="f_h" unicode="fh" horiz-adv-x="3729" 
d="M2542 2343q403 0 625.5 -195.5t222.5 -572.5v-1527q0 -20 -14 -34t-34 -14h-302q-19 0 -33.5 14.5t-14.5 33.5v1485q0 245 -153 371.5t-433 126.5q-278 0 -431.5 -126.5t-153.5 -371.5v-1485q0 -20 -15 -34t-35 -14h-300q-20 0 -34 14t-14 34v2824h-367q-148 0 -232 -71
t-84 -208v-318h544q20 0 34 -14t14 -34v-217q0 -20 -14 -34t-34 -14h-544v-1914q0 -20 -14.5 -34t-33.5 -14h-302q-19 0 -33.5 14.5t-14.5 33.5v2579q0 279 167.5 418.5t486.5 139.5h775q20 0 35 -14.5t15 -34.5v-1081q202 288 721 288z" />
    <glyph glyph-name="f_f_h" unicode="ffh" horiz-adv-x="4809" 
d="M3621 2343q403 0 626 -195.5t223 -572.5v-1527q0 -20 -14 -34t-34 -14h-302q-19 0 -33.5 14.5t-14.5 33.5v1485q0 245 -152.5 371.5t-432.5 126.5q-279 0 -433 -126.5t-154 -371.5v-1485q0 -20 -14 -34t-34 -14h-301q-20 0 -34 14t-14 34v2815h-376q-144 0 -226 -70.5
t-82 -207.5v-310h543q20 0 34 -14t14 -34v-217q0 -20 -14 -34t-34 -14h-543v-1914q0 -20 -14 -34t-34 -14h-301q-19 0 -33.5 14.5t-14.5 33.5v2597q0 144 -90 219t-251 75t-251.5 -75t-90.5 -219v-370h544q20 0 34 -14t14 -34v-217q0 -20 -14 -34t-34 -14h-544v-1914
q0 -20 -14 -34t-34 -14h-301q-19 0 -34.5 14.5t-15.5 33.5v2648q0 279 173 417.5t504 138.5q493 0 618 -307q136 240 520 240h697q20 0 34 -14.5t14 -34.5v-1081q203 288 721 288z" />
    <glyph glyph-name="f_t" unicode="ft" horiz-adv-x="3205" 
d="M996 3185h775q20 0 34 -14.5t14 -34.5v-861h1096q20 0 34 -14t14 -34v-217q0 -20 -14 -34t-34 -14h-1096v-1317q0 -193 128 -297t345 -104q214 0 343 104.5t129 296.5v248q0 20 14 34t34 14h302q20 0 34 -14t14 -34v-248q0 -323 -233.5 -518.5t-636.5 -195.5
q-408 0 -639 195t-231 519v2227h-366q-148 0 -232.5 -71t-84.5 -208v-318h544q20 0 34 -14t14 -34v-217q0 -20 -14 -34t-34 -14h-544v-1914q0 -20 -14 -34t-34 -14h-301q-19 0 -34.5 14.5t-15.5 33.5v2579q0 279 168.5 418.5t487.5 139.5z" />
    <glyph glyph-name="f_f_t" unicode="fft" horiz-adv-x="4284" 
d="M1635 2945q136 240 520 240h697q20 0 34 -14.5t14 -34.5v-861h1095q20 0 33.5 -14t13.5 -34v-217q0 -20 -13.5 -34t-33.5 -14h-1095v-1317q0 -193 127 -297t344 -104q214 0 343 104.5t129 296.5v248q0 20 15 34t35 14h301q20 0 34 -14t14 -34v-248q0 -323 -234 -518.5
t-637 -195.5q-271 0 -468.5 90t-298.5 250.5t-101 373.5v2218h-376q-144 0 -226 -70.5t-82 -207.5v-310h543q20 0 34 -14t14 -34v-217q0 -20 -14 -34t-34 -14h-543v-1914q0 -19 -14.5 -33.5t-33.5 -14.5h-301q-20 0 -34 14t-14 34v2597q0 144 -90 219t-251 75t-251.5 -75
t-90.5 -219v-370h544q20 0 34 -14t14 -34v-217q0 -20 -14 -34t-34 -14h-544v-1914q0 -19 -14.5 -33.5t-33.5 -14.5h-301q-20 0 -35 14t-15 34v2648q0 279 173 417.5t504 138.5q493 0 618 -307z" />
    <glyph glyph-name="f_j" unicode="fj" horiz-adv-x="2294" 
d="M1148 3252q364 0 552 -138.5t188 -417.5q0 -19 -15 -34t-35 -15h-300q-20 0 -34 15t-14 34q0 137 -90 207t-252 70t-251.5 -70t-89.5 -207v-421h1034q20 0 34 -14t14 -34v-2563q0 -311 -198.5 -476t-587.5 -165q-388 0 -586 165t-198 476q0 20 14 34t34 14h302
q20 0 34 -14t14 -34q0 -171 99 -267t287 -96t287.5 96t99.5 267v2298h-683v-1914q0 -20 -14 -34t-34 -14h-302q-20 0 -34 14.5t-14 33.5v2648q0 279 187.5 417.5t551.5 138.5z" />
    <glyph glyph-name="f_f_j" unicode="ffj" horiz-adv-x="3374" 
d="M1690 2974q139 278 606 278q329 0 500.5 -138.5t171.5 -417.5q0 -19 -14 -34t-34 -15h-301q-20 0 -34 15t-14 34q0 137 -90 207t-252 70t-251.5 -70t-89.5 -207v-421h1032q20 0 34 -14t14 -34v-2563q0 -311 -198.5 -476t-586.5 -165t-586 165t-198 476q0 20 14 34t34 14
h301q20 0 34 -14t14 -34q0 -171 99.5 -267t287.5 -96t288 96t100 267v2298h-683v-1914q0 -19 -14.5 -33.5t-33.5 -14.5h-302q-20 0 -34 14t-14 34v2631q0 144 -90 219t-251 75t-251.5 -75t-90.5 -219v-404h544q20 0 34 -14t14 -34v-217q0 -20 -14 -34t-34 -14h-544v-1914
q0 -19 -14.5 -33.5t-33.5 -14.5h-301q-20 0 -34.5 14t-14.5 34v2648q0 279 173 417.5t504 138.5q468 0 604 -278z" />
    <glyph glyph-name=".notdef" horiz-adv-x="1497" 
d="M136 0v2730h1089v-2730h-1089zM272 136h817v2458h-817v-2458z" />
    <glyph glyph-name=".null" 
 />
    <glyph glyph-name="nonmarkingreturn" horiz-adv-x="1365" 
 />
    <glyph glyph-name="exclam" unicode="!" horiz-adv-x="1077" 
d="M376 3185h327q20 0 34.5 -15.5t13.5 -35.5l-45 -2411q0 -19 -14 -32.5t-34 -13.5h-236q-20 0 -34 13t-14 33l-46 2411q-1 20 13.5 35.5t34.5 15.5zM540 403q109 0 177 -64t68 -172t-68 -172t-177 -64t-176.5 64t-67.5 172t67.5 172t176.5 64z" />
    <glyph glyph-name="quotedbl" unicode="&#x22;" horiz-adv-x="1679" 
d="M1373 3185q20 0 34.5 -15.5t13.5 -36.5l-60 -1154q-2 -20 -16 -33t-33 -13h-204q-19 0 -32.5 13t-15.5 33l-59 1154q-1 21 13 36.5t34 15.5h325zM667 3185q20 0 35 -15.5t14 -36.5l-59 -1154q-2 -20 -15.5 -33t-32.5 -13h-205q-19 0 -32.5 13t-15.5 33l-60 1154
q-1 21 13.5 36.5t34.5 15.5h323z" />
    <glyph glyph-name="numbersign" unicode="#" horiz-adv-x="3887" 
d="M1443 3185h311q19 0 31.5 -16t6.5 -36l-229 -801h1186l233 817q5 16 18 26t29 10h310q19 0 31.5 -16t6.5 -36l-229 -801h597q20 0 34 -15t14 -35v-215q0 -20 -14 -34t-34 -14h-686l-244 -854h543q20 0 34 -14t14 -34v-216q0 -20 -14 -34t-34 -14h-632l-234 -818
q-10 -35 -46 -35h-311q-19 0 -31.5 15t-6.5 35l229 803h-1185l-234 -818q-10 -35 -47 -35h-311q-19 0 -31.5 15t-6.5 35l230 803h-596q-20 0 -34.5 14t-14.5 34v216q0 20 14.5 34t34.5 14h685l244 854h-541q-20 0 -35 14t-15 34v215q0 20 15 35t35 15h630l234 817
q5 16 17.5 26t28.5 10zM1230 1165h1185l244 854h-1185z" />
    <glyph glyph-name="dollar" unicode="$" horiz-adv-x="2909" 
d="M1390 3638h131q20 0 34 -14t14 -34v-341q259 -12 459.5 -80t328 -181.5t193 -265t65.5 -334.5q0 -19 -14 -33.5t-34 -14.5h-334q-20 0 -35 14.5t-15 33.5q0 224 -160 357.5t-454 155.5v-1160l377 -101q331 -89 500 -294t169 -549q0 -183 -65.5 -334.5t-193 -266
t-328 -182.5t-459.5 -80v-341q0 -20 -14 -34t-34 -14h-131q-20 0 -34 14t-14 34v341q-258 12 -458.5 80.5t-328.5 182.5t-193.5 265.5t-65.5 334.5q0 20 14.5 34t33.5 14h337q20 0 33.5 -14.5t13.5 -33.5q0 -221 164 -356t450 -158v1160l-411 111q-309 83 -472 302.5
t-163 531.5q0 183 65.5 334t193.5 265t328.5 182t458.5 80v341q0 20 14 34t34 14zM1569 1382v-1100q301 21 457.5 154.5t156.5 360.5q0 214 -102.5 344.5t-331.5 192.5zM1342 1802v1099q-299 -22 -456.5 -155t-157.5 -358q0 -201 110 -340.5t315 -194.5z" />
    <glyph glyph-name="percent" unicode="%" horiz-adv-x="4051" 
d="M1311 1898v754q0 185 -95 278.5t-273 93.5t-273.5 -93.5t-95.5 -278.5v-754q0 -185 95.5 -279t273.5 -94t273 93.5t95 279.5zM1590 2652v-754q0 -299 -164.5 -450t-482.5 -151t-482.5 151t-164.5 450v754q0 299 164.5 449.5t482.5 150.5t482.5 -150.5t164.5 -449.5z
M3509 534v753q0 185 -95.5 279t-273.5 94t-273.5 -94t-95.5 -279v-753q0 -186 96 -280.5t273 -94.5t273 94.5t96 280.5zM3787 1287v-753q0 -299 -165 -451t-482 -152t-482 152t-165 451v753q0 299 164.5 450t482.5 151t482.5 -151t164.5 -450zM2831 3185h222q21 0 34 -20
t0 -41l-1790 -3100q-14 -24 -42 -24h-223q-21 0 -34.5 18.5t-0.5 40.5l1791 3100q16 26 43 26z" />
    <glyph glyph-name="ampersand" unicode="&#x26;" horiz-adv-x="2863" 
d="M2152 2133q-20 0 -34 14t-14 34v36q0 192 -48 331.5t-141 225t-220.5 125.5t-296.5 40t-296.5 -34.5t-220 -108t-140 -195t-47.5 -289.5q0 -154 71 -282t205 -205t304 -77h1390q20 0 34 -14t14 -34v-215q0 -20 -14 -35t-34 -15h-162v-1387q0 -20 -14 -34t-34 -14h-1248
q-438 0 -674 215t-236 637q0 113 31.5 223t90 207t148.5 175.5t201 124.5q-149 57 -256 167.5t-161 253t-54 303.5q0 250 71.5 431t213.5 294.5t344 167t473 53.5q544 0 824 -255.5t280 -792.5v-23q0 -20 -14 -34t-34 -14h-302zM2104 1435h-830q-133 0 -244 -47t-183.5 -126
t-112.5 -180t-40 -210q0 -276 148.5 -417.5t431.5 -141.5h830v1122z" />
    <glyph glyph-name="quotesingle" unicode="'" horiz-adv-x="997" 
d="M667 3185q20 0 35 -15.5t14 -36.5l-59 -1154q-2 -20 -15.5 -33t-32.5 -13h-205q-19 0 -32.5 13t-15.5 33l-60 1154q-1 21 13.5 36.5t34.5 15.5h323z" />
    <glyph glyph-name="parenleft" unicode="(" horiz-adv-x="1623" 
d="M1345 3575q-42 -54 -80 -108.5t-108 -169t-127 -230.5t-122 -286.5t-109.5 -344t-74.5 -395t-30 -448.5t29.5 -448.5t74.5 -395.5t110 -344t122 -287t126 -231t108.5 -169.5l80.5 -108.5q8 -11 8 -24q0 -16 -12 -28t-28 -12h-314q-37 0 -60 25q-32 36 -69 84t-103 152
t-125.5 220.5t-124.5 289t-112 357t-78 426t-31 494.5t31 494t77.5 425.5t112.5 357t125 288t125 219.5t103 152t69 84q23 25 60 25h314q15 0 27.5 -12t12.5 -27q0 -13 -8 -24z" />
    <glyph glyph-name="parenright" unicode=")" horiz-adv-x="1623" 
d="M305 3575q-9 12 -9 24q0 15 12.5 27t27.5 12h313q38 0 61 -25q32 -36 69 -84t103 -152t125 -219.5t125 -288t112.5 -357t77.5 -425.5t31 -494t-31 -494.5t-78 -426t-112 -357t-124.5 -289t-125.5 -220.5t-103 -152t-69 -84q-23 -25 -61 -25h-313q-16 0 -28 12t-12 28
q0 13 8 24l80.5 108.5t108.5 169.5t126 231t122 287t110 344t74.5 395.5t29.5 448.5t-29.5 448.5t-74 395t-110 344t-122.5 286.5t-126.5 230.5t-107.5 169t-80 108.5z" />
    <glyph glyph-name="asterisk" unicode="*" horiz-adv-x="2016" 
d="M1010 2809l228 393q10 16 27.5 22t38.5 -4l128 -75q16 -9 22 -28t-4 -38l-227 -394h455q20 0 34 -14t14 -34v-148q0 -20 -14 -34.5t-34 -14.5h-455l227 -392q10 -19 4 -38t-22 -28l-128 -76q-21 -10 -39 -4.5t-27 22.5l-228 394l-227 -394q-9 -17 -26.5 -22.5t-38.5 4.5
l-129 76q-16 9 -21.5 28t4.5 38l227 392h-455q-20 0 -34 14.5t-14 34.5v148q0 20 14 34t34 14h455l-227 394q-10 19 -4.5 38t21.5 28l129 75q21 10 38.5 4t26.5 -22z" />
    <glyph glyph-name="plus" unicode="+" horiz-adv-x="2578" 
d="M1134 1542v790q0 20 14 34t34 14h218q20 0 34 -14t14 -34v-790h790q20 0 34 -14t14 -34v-215q0 -20 -14 -35t-34 -15h-790v-791q0 -20 -14 -34t-34 -14h-218q-20 0 -34 14t-14 34v791h-790q-20 0 -34 15t-14 35v215q0 20 14 34t34 14h790z" />
    <glyph glyph-name="comma" unicode="," horiz-adv-x="1226" 
d="M565 412h324q19 0 34.5 -14t15.5 -34q0 -4 -2 -12l-327 -1155q-5 -16 -17 -26t-28 -10h-221q-19 0 -33.5 14.5t-14.5 34.5v6l221 1157q3 18 16.5 28.5t31.5 10.5z" />
    <glyph glyph-name="hyphen" unicode="-" horiz-adv-x="2183" 
d="M344 1542h1495q20 0 34.5 -14t14.5 -34v-216q0 -20 -14.5 -34.5t-34.5 -14.5h-1495q-20 0 -34 14.5t-14 34.5v216q0 20 14 34t34 14z" />
    <glyph glyph-name="period" unicode="." horiz-adv-x="1077" 
d="M540 403q109 0 177 -64t68 -172t-68 -172t-177 -64t-176.5 64t-67.5 172t67.5 172t176.5 64z" />
    <glyph glyph-name="slash" unicode="/" horiz-adv-x="1816" 
d="M1174 3185h310q16 0 28 -11.5t12 -27.5q0 -9 -1 -12l-831 -3098q-10 -34 -47 -36h-309q-16 0 -28 12t-12 28q0 7 1 10l831 3098q11 37 46 37z" />
    <glyph glyph-name="zero" unicode="0" horiz-adv-x="2863" 
d="M2094 953v1279q0 334 -172.5 503.5t-489.5 169.5t-488 -169.5t-171 -503.5v-1279q0 -335 171 -505t488 -170t489.5 170.5t172.5 504.5zM2524 2232v-1279q0 -508 -278.5 -765t-813.5 -257t-813.5 257t-278.5 765v1279q0 507 278 763.5t814 256.5t814 -256.5t278 -763.5z
" />
    <glyph glyph-name="one" unicode="1" horiz-adv-x="1692" 
d="M656 2694l-351 -351q-14 -14 -34 -14t-34 14l-178 178q-15 15 -15 33q0 19 15 34l572 573q24 24 58 24h350q20 0 34.5 -14.5t14.5 -34.5v-3088q0 -20 -14.5 -34t-34.5 -14h-335q-20 0 -34 14t-14 34v2646z" />
    <glyph glyph-name="two" unicode="2" horiz-adv-x="2772" 
d="M728 2201q0 -20 -13.5 -34t-33.5 -14h-337q-20 0 -34 14t-14 34v31q0 249 63.5 436.5t195 319t340 198t493.5 66.5q282 0 492.5 -65t341 -187t194 -289t63.5 -380q0 -168 -42 -304.5t-119 -246t-205 -232.5l-1239 -1201h1649q20 0 34 -14t14 -34v-251q0 -20 -14 -34
t-34 -14h-2270q-20 0 -34 14t-14 34v177q0 36 27 61l1634 1578q181 178 181 451q0 137 -38 243.5t-116.5 185t-205.5 120t-299 41.5q-342 0 -501 -164t-159 -483v-57z" />
    <glyph glyph-name="three" unicode="3" horiz-adv-x="2863" 
d="M1166 1717q0 20 14 34t34 14h361q123 0 229 43.5t178.5 117.5t114 172.5t41.5 207.5q0 162 -47.5 278t-141 186t-221 102.5t-296.5 32.5t-296.5 -39t-220 -121.5t-140 -218t-47.5 -322.5v-32q0 -20 -13.5 -34t-33.5 -14h-337q-20 0 -34 14t-14 34v32q0 537 287 792.5
t849 255.5q280 0 489 -53.5t355.5 -167t220.5 -294.5t74 -431q0 -159 -53 -300.5t-158.5 -252t-251.5 -168.5q146 -57 251.5 -165t158.5 -246.5t53 -294.5q0 -484 -289 -716t-850 -232q-556 0 -846 256t-290 766v31q0 20 14 34t34 14h337q20 0 33.5 -14t13.5 -34v-31
q0 -340 183 -507.5t521 -167.5q706 0 706 601q0 109 -41.5 207.5t-114 172t-178.5 117t-229 43.5h-361q-20 0 -34 14.5t-14 34.5v249z" />
    <glyph glyph-name="four" unicode="4" horiz-adv-x="2727" 
d="M2004 2730h336q20 0 34 -14t14 -34v-2634q0 -20 -14 -34t-34 -14h-336q-20 0 -34 14t-14 34v620h-1703q-20 0 -34 14.5t-14 34.5v202q0 15 2 22l589 2195q5 21 23.5 35t40.5 14h344q19 0 31.5 -15.5t7.5 -35.5l-568 -2119h1281v1667q0 20 14 34t34 14z" />
    <glyph glyph-name="five" unicode="5" horiz-adv-x="2954" 
d="M681 1032q20 0 33.5 -14t13.5 -34v-31q0 -339 196.5 -507t554.5 -168q348 0 549 206.5t201 561.5q0 157 -45.5 292t-131 236.5t-218 159t-296.5 57.5h-1012q-20 0 -34 14t-14 34v1297q0 20 14 34.5t34 14.5h1814q20 0 34 -14.5t14 -34.5v-250q0 -20 -14 -34t-34 -14
h-1430l-2 -699h698q201 0 371.5 -52.5t295.5 -148.5t213 -228t132 -293.5t44 -343.5q0 -260 -78.5 -471t-227 -360t-372 -230t-505.5 -81q-578 0 -880.5 256.5t-302.5 765.5v31q0 20 14 34t34 14h337z" />
    <glyph glyph-name="six" unicode="6" horiz-adv-x="2818" 
d="M1479 1814q-151 0 -277.5 -46t-223.5 -138t-151 -241t-54 -343q0 -374 177 -571t529 -197q353 0 529.5 194.5t176.5 570.5q0 390 -182 580.5t-524 190.5zM2525 2291q0 -20 -14.5 -33.5t-34.5 -13.5h-335q-20 0 -33.5 10.5t-13.5 25.5q0 292 -178.5 458.5t-483.5 166.5
q-306 0 -482.5 -170t-176.5 -477v-473q122 183 328.5 279.5t483.5 96.5q494 0 762 -292.5t268 -822.5q0 -259 -69 -462.5t-206.5 -350t-355.5 -224.5t-505 -78t-505.5 78t-356.5 224t-207.5 349.5t-69.5 461.5v1188q0 229 74.5 418t213 322t344 206.5t460.5 73.5
q261 0 467.5 -67.5t344 -192.5t209.5 -303t72 -398z" />
    <glyph glyph-name="seven" unicode="7" horiz-adv-x="2498" 
d="M1840 2838h-1632q-20 0 -35 14t-15 34v250q0 20 15 34.5t35 14.5h2086q20 0 34.5 -14.5t14.5 -34.5v-198q0 -10 -6 -30l-1061 -2877q-4 -13 -17 -22t-28 -9h-374q-20 0 -32.5 17t-4.5 37z" />
    <glyph glyph-name="eight" unicode="8" horiz-adv-x="2954" 
d="M1479 1584q-382 0 -566.5 -169.5t-184.5 -483.5q0 -321 183.5 -487t567.5 -166t567 165.5t183 487.5q0 314 -184.5 483.5t-565.5 169.5zM1479 3267q552 0 822 -216.5t270 -614.5q0 -540 -476 -731q287 -102 427 -315t140 -525q0 -220 -70.5 -391t-213.5 -293t-369.5 -186
t-529.5 -64q-243 0 -437 41.5t-333.5 119.5t-232 192.5t-136.5 259t-44 321.5q0 311 141 524.5t428 315.5q-241 96 -359.5 281.5t-118.5 449.5q0 400 269.5 615.5t822.5 215.5zM1479 2926q-339 0 -499.5 -140.5t-160.5 -413.5q0 -266 162 -409.5t498 -143.5t497.5 143.5
t161.5 409.5q0 273 -160 413.5t-499 140.5z" />
    <glyph glyph-name="nine" unicode="9" horiz-adv-x="2818" 
d="M1341 1371q151 0 277.5 46t223.5 138t151 241t54 343q0 373 -177 569.5t-529 196.5q-353 0 -528 -193.5t-175 -569.5q0 -391 180.5 -581t522.5 -190zM296 893q0 20 14 34t34 14h337q20 0 33.5 -11t13.5 -26q0 -292 178 -459t482 -167q306 0 482.5 170.5t176.5 478.5v471
q-122 -182 -329 -278t-483 -96q-494 0 -762 292.5t-268 822.5q0 259 69 462.5t206.5 349.5t355.5 223.5t505 77.5t505 -78t356.5 -224t207.5 -349.5t69 -461.5v-1186q0 -229 -74.5 -418t-212.5 -323t-344 -207.5t-460 -73.5q-261 0 -467.5 67.5t-343.5 193t-209 303.5
t-72 398z" />
    <glyph glyph-name="colon" unicode=":" horiz-adv-x="1077" 
d="M540 2343q109 0 177 -64t68 -172t-68 -172t-177 -64t-176.5 64t-67.5 172t67.5 172t176.5 64zM540 403q109 0 177 -64t68 -172t-68 -172t-177 -64t-176.5 64t-67.5 172t67.5 172t176.5 64z" />
    <glyph glyph-name="semicolon" unicode=";" horiz-adv-x="1243" 
d="M711 2343q109 0 176.5 -64t67.5 -172t-67.5 -172t-176.5 -64t-176.5 64t-67.5 172t67.5 172t176.5 64zM565 911h324q19 0 34.5 -15t15.5 -35q0 -4 -2 -12l-327 -1155q-5 -16 -17 -26t-28 -10h-221q-19 0 -33.5 14.5t-14.5 34.5v8l221 1155q3 18 16.5 29.5t31.5 11.5z" />
    <glyph glyph-name="less" unicode="&#x3c;" horiz-adv-x="2358" 
d="M886 1364l1150 -642q44 -23 44 -73v-238q0 -21 -18.5 -34t-39.5 -2l-1701 948q-25 15 -25 41q0 28 25 43l1701 948q21 11 39.5 -2t18.5 -34v-238q0 -51 -44 -74z" />
    <glyph glyph-name="equal" unicode="=" horiz-adv-x="2578" 
d="M344 1990h1894q20 0 34 -14t14 -34v-217q0 -20 -14 -34t-34 -14h-1894q-20 0 -34 14t-14 34v217q0 20 14 34t34 14zM344 1053h1894q20 0 34 -15t14 -35v-215q0 -20 -14 -34t-34 -14h-1894q-20 0 -34 14t-14 34v215q0 20 14 35t34 15z" />
    <glyph glyph-name="greater" unicode="&#x3e;" horiz-adv-x="2358" 
d="M1490 1364l-1150 643q-44 23 -44 74v238q0 21 18.5 34t39.5 2l1702 -948q24 -14 24 -43q0 -27 -24 -41l-1702 -948q-21 -11 -39.5 2t-18.5 34v238q0 50 44 73z" />
    <glyph glyph-name="question" unicode="?" horiz-adv-x="2756" 
d="M1404 3252q229 0 410 -43t304.5 -121t205 -191.5t118 -249.5t36.5 -299t-40.5 -292t-115.5 -229.5t-196 -200.5l-384 -328q-156 -133 -156 -360v-221q0 -20 -14 -34t-34 -14h-267q-20 0 -34.5 14t-14.5 34v281q0 169 55.5 283.5t191.5 234.5l414 345q197 170 197 462
q0 132 -37.5 235.5t-117 182.5t-213.5 121.5t-316 42.5q-364 0 -533 -167.5t-169 -488.5v-31q0 -20 -14 -34t-34 -14h-302q-20 0 -34 14t-14 34v31q0 243 64 427t197.5 313.5t345.5 196t501 66.5zM1404 403q109 0 177.5 -64t68.5 -172t-68.5 -172t-177.5 -64t-176.5 64
t-67.5 172t67.5 172t176.5 64z" />
    <glyph glyph-name="at" unicode="@" horiz-adv-x="4664" 
d="M2328 2343q984 0 984 -750v-992q0 -174 102 -270t271 -96q171 0 272.5 92.5t101.5 273.5v1221q0 586 -427.5 877.5t-1300.5 291.5q-876 0 -1302.5 -291t-426.5 -878v-1367q0 -588 426 -879.5t1303 -291.5h950q20 0 34 -15t14 -35v-163q0 -20 -14 -34t-34 -14h-950
q-687 0 -1129.5 160t-652 475t-209.5 797v1364q0 482 209.5 797t652 475.5t1129.5 160.5q685 0 1127.5 -160.5t652.5 -475.5t210 -797v-1159q0 -189 -53.5 -330.5t-153.5 -228t-234.5 -128.5t-304.5 -42q-248 0 -403.5 94.5t-212.5 260.5q-183 -355 -766 -355
q-404 0 -626.5 191t-222.5 560v911q0 371 254 560.5t730 189.5zM2328 2031q-280 0 -432.5 -122t-152.5 -359v-826q0 -237 152.5 -358.5t432.5 -121.5t432.5 121.5t152.5 358.5v826q0 237 -152.5 359t-432.5 122z" />
    <glyph glyph-name="A" unicode="A" horiz-adv-x="3136" 
d="M86 0q-16 0 -29 12t-13 28q0 2 4 14l1260 3099q13 32 45 32h433q31 0 44 -32l1260 -3099q4 -12 4 -14q0 -16 -12 -28t-27 -12h-362q-32 0 -45 32l-396 989h-1365l-395 -989q-13 -32 -45 -32h-361zM2115 1364l-546 1366l-545 -1366h1091z" />
    <glyph glyph-name="B" unicode="B" horiz-adv-x="3000" 
d="M340 3136q0 20 15 34.5t35 14.5h1408q151 0 278.5 -48.5t215.5 -133.5t137.5 -202.5t49.5 -252.5v-399q0 -169 -70 -301t-201 -211q103 -17 186 -56t140.5 -93.5t96.5 -124.5t57 -147t18 -163v-382q0 -331 -188.5 -501t-562.5 -170h-1565q-20 0 -35 14t-15 34v3088z
M773 1419v-1072h1029q237 0 354.5 101t117.5 314v261q0 184 -108.5 290t-306.5 106h-1086zM773 1765h836q197 0 317.5 101.5t120.5 291.5v279q0 184 -120.5 292.5t-317.5 108.5h-836v-1073z" />
    <glyph glyph-name="C" unicode="C" horiz-adv-x="3183" 
d="M2456 1089q0 20 14.5 34t34.5 14h335q20 0 34 -14t14 -34v-65q0 -542 -332.5 -817.5t-963.5 -275.5t-963.5 275.5t-332.5 817.5v1137q0 542 332.5 816.5t963.5 274.5t963.5 -274.5t332.5 -816.5v-65q0 -20 -14 -35t-34 -15h-335q-20 0 -34.5 15t-14.5 35v31
q0 383 -226.5 580.5t-637.5 197.5t-637 -197.5t-226 -580.5v-1069q0 -383 226 -581.5t637 -198.5t637.5 198.5t226.5 581.5v31z" />
    <glyph glyph-name="D" unicode="D" horiz-adv-x="3227" 
d="M2502 1126v932q0 384 -224.5 582t-634.5 198h-869v-2491h869q410 0 634.5 197.5t224.5 581.5zM2935 2092v-999q0 -538 -317 -815.5t-923 -277.5h-1305q-20 0 -35 14t-15 34v3088q0 20 15 34.5t35 14.5h1305q605 0 922.5 -277t317.5 -816z" />
    <glyph glyph-name="E" unicode="E" horiz-adv-x="2572" 
d="M2431 347q20 0 34 -14t14 -34v-251q0 -20 -14 -34t-34 -14h-2041q-20 0 -35 14t-15 34v3088q0 20 15 34.5t35 14.5h2041q20 0 34 -14.5t14 -34.5v-250q0 -20 -14 -34t-34 -14h-1658v-1073h1203q20 0 34 -14t14 -34v-249q0 -20 -14 -34.5t-34 -14.5h-1203v-1072h1658z" />
    <glyph glyph-name="F" unicode="F" horiz-adv-x="2523" 
d="M390 3185h2041q20 0 34 -14.5t14 -34.5v-250q0 -20 -14 -34t-34 -14h-1658v-1073h1203q20 0 34 -14t14 -34v-249q0 -20 -14 -34.5t-34 -14.5h-1203v-1371q0 -20 -14 -34t-34 -14h-335q-20 0 -35 14t-15 34v3088q0 20 15 34.5t35 14.5z" />
    <glyph glyph-name="G" unicode="G" horiz-adv-x="3183" 
d="M1592 3252q631 0 963.5 -274.5t332.5 -816.5v-65q0 -20 -14 -35t-34 -15h-335q-20 0 -34.5 15t-14.5 35v31q0 383 -226.5 580.5t-637.5 197.5t-637 -197.5t-226 -580.5v-1069q0 -383 226 -581.5t637 -198.5t637.5 198.5t226.5 581.5l1 170h-677q-19 0 -33.5 15t-14.5 35
v249q0 20 14 34t34 14h1062q20 0 34 -14t14 -34l-2 -503q0 -542 -332.5 -817.5t-963.5 -275.5t-963.5 275.5t-332.5 817.5v1137q0 542 332.5 816.5t963.5 274.5z" />
    <glyph glyph-name="H" unicode="H" horiz-adv-x="3271" 
d="M390 0q-20 0 -35 14t-15 34v3088q0 20 15 34.5t35 14.5h335q20 0 34 -14.5t14 -34.5v-1371h1729v1369q0 22 14.5 36.5t36.5 14.5h334q20 0 34 -14.5t14 -34.5v-3088q0 -20 -14 -34t-34 -14h-337q-20 0 -34 14t-14 34v1371h-1729v-1371q0 -20 -14 -34t-34 -14h-335z" />
    <glyph glyph-name="I" unicode="I" horiz-adv-x="1112" 
d="M390 3185h335q20 0 34 -14.5t14 -34.5v-3088q0 -20 -14 -34t-34 -14h-335q-20 0 -35 14t-15 34v3088q0 20 15 34.5t35 14.5z" />
    <glyph glyph-name="J" unicode="J" horiz-adv-x="1386" 
d="M44 299q0 20 15 34t35 14h224q147 0 221.5 76.5t74.5 219.5v2493q0 20 14 34.5t34 14.5h336q20 0 34 -14.5t14 -34.5v-2476q0 -316 -168.5 -488t-479.5 -172h-303q-20 0 -34 14t-14 34z" />
    <glyph glyph-name="K" unicode="K" horiz-adv-x="3205" 
d="M3150 68q11 -11 11 -27t-12 -28.5t-28 -12.5h-460q-34 0 -58 24l-1258 1255l-572 -583v-648q0 -20 -14 -34t-34 -14h-335q-20 0 -35 14t-15 34v3088q0 20 15 34.5t35 14.5h335q20 0 34 -14.5t14 -34.5v-1816l1829 1840q23 25 59 25h461q16 0 27.5 -13t11.5 -29
q0 -15 -11 -26l-1502 -1530z" />
    <glyph glyph-name="L" unicode="L" horiz-adv-x="2523" 
d="M2431 347q20 0 34 -14t14 -34v-251q0 -20 -14 -34t-34 -14h-2041q-20 0 -35 14t-15 34v3088q0 20 15 34.5t35 14.5h335q20 0 34 -14.5t14 -34.5v-2789h1658z" />
    <glyph glyph-name="M" unicode="M" horiz-adv-x="3727" 
d="M390 3185h341q49 0 72 -45l1062 -2116l1062 2116q23 45 73 45h340q20 0 34.5 -14.5t14.5 -34.5v-3088q0 -20 -14.5 -34t-34.5 -14h-334q-20 0 -34 14t-14 34v2406l-989 -1973q-16 -26 -43 -26h-122q-26 0 -42 26l-989 1973v-2406q0 -20 -14 -34t-34 -14h-335
q-20 0 -35 14t-15 34v3088q0 20 15 34.5t35 14.5z" />
    <glyph glyph-name="N" unicode="N" horiz-adv-x="3271" 
d="M773 48q0 -20 -14 -34t-34 -14h-335q-20 0 -35 14t-15 34v3088q0 20 15 34.5t35 14.5h338q45 0 69 -39l1705 -2493v2483q0 20 14 34.5t34 14.5h337q20 0 34 -14.5t14 -34.5v-3088q0 -20 -14 -34t-34 -14h-339q-45 0 -69 38l-1706 2494v-2484z" />
    <glyph glyph-name="O" unicode="O" horiz-adv-x="3271" 
d="M2502 1058v1069q0 383 -226 580.5t-637 197.5t-638 -197.5t-227 -580.5v-1069q0 -383 227 -581.5t638 -198.5t637 198.5t226 581.5zM2935 2161v-1137q0 -542 -333 -817.5t-964 -275.5t-964.5 275.5t-333.5 817.5v1137q0 541 333.5 816t964.5 275t964 -274.5t333 -816.5z
" />
    <glyph glyph-name="P" unicode="P" horiz-adv-x="3023" 
d="M313 3136q0 20 14 34.5t34 14.5h1662q360 0 578.5 -219t218.5 -578v-682q0 -372 -220 -583.5t-598 -211.5h-1257v-863q0 -20 -14 -34t-34 -14h-336q-20 0 -34 14t-14 34v3088zM745 1258h1095q256 0 402.5 141.5t145.5 391.5v512q0 245 -144 390t-390 145h-1109v-1580z
" />
    <glyph glyph-name="Q" unicode="Q" horiz-adv-x="3183" 
d="M2456 1058v1069q0 383 -226.5 580.5t-637.5 197.5t-637 -197.5t-226 -580.5v-1069q0 -383 226 -581.5t637 -198.5t637.5 198.5t226.5 581.5zM2888 2161v-1137q0 -565 -365 -843l333 -576q5 -12 5 -21q0 -16 -13 -27.5t-28 -11.5h-401q-29 0 -43 24l-245 426
q-236 -64 -539 -64q-631 0 -963.5 275.5t-332.5 817.5v1137q0 542 332.5 816.5t963.5 274.5t963.5 -274.5t332.5 -816.5z" />
    <glyph glyph-name="R" unicode="R" horiz-adv-x="3005" 
d="M361 3185h1576q360 0 579 -219t219 -578v-404q0 -325 -170 -530t-470 -252l861 -1140q7 -8 7 -22q0 -16 -12.5 -28t-27.5 -12h-389q-45 0 -70 38l-866 1150h-853v-1140q0 -20 -14 -34t-34 -14h-336q-20 0 -34 14t-14 34v3088q0 20 14 34.5t34 14.5zM745 1535l1009 1
q256 0 402.5 142t145.5 392v233q0 245 -144 390t-390 145h-1023v-1303z" />
    <glyph glyph-name="S" unicode="S" horiz-adv-x="2909" 
d="M296 805q0 21 14.5 34.5t33.5 13.5h337q21 0 34 -14.5t13 -33.5q0 -244 197.5 -385.5t531.5 -141.5q354 0 540 135.5t186 383.5q0 214 -102.5 344.5t-331.5 192.5l-818 220q-309 83 -472 302.5t-163 531.5q0 154 45.5 285.5t139.5 238.5t230.5 182.5t326 116.5t419.5 41
q286 0 508.5 -64.5t363.5 -181t213.5 -275t72.5 -351.5q0 -19 -14 -33.5t-34 -14.5h-334q-21 0 -35.5 14.5t-14.5 33.5q0 246 -191 385.5t-535 139.5q-354 0 -541.5 -135.5t-187.5 -381.5q0 -201 110 -340.5t315 -194.5l793 -213q331 -89 500 -294t169 -549
q0 -193 -72.5 -350.5t-213.5 -273t-363.5 -179t-508.5 -63.5q-230 0 -419.5 42t-326 119t-230.5 185.5t-139.5 241t-45.5 286.5z" />
    <glyph glyph-name="T" unicode="T" horiz-adv-x="2683" 
d="M2591 3185q20 0 34 -14.5t14 -34.5v-250q0 -20 -14 -34t-34 -14h-1033v-2790q0 -20 -14 -34t-34 -14h-337q-20 0 -34 14t-14 34v2790h-1028q-22 0 -37.5 14.5t-15.5 35.5v248q0 20 15 34.5t35 14.5h2497z" />
    <glyph glyph-name="U" unicode="U" horiz-adv-x="3271" 
d="M2502 3136q0 20 14 34.5t34 14.5h337q19 0 33.5 -14.5t14.5 -34.5v-2112q0 -542 -333 -817.5t-964 -275.5t-964.5 275.5t-333.5 817.5v2112q0 19 15 34t35 15h336q20 0 34 -14.5t14 -34.5v-2078q0 -383 227 -581.5t638 -198.5t637 198.5t226 581.5v2078z" />
    <glyph glyph-name="V" unicode="V" horiz-adv-x="3136" 
d="M86 3185h360q33 0 46 -33l1077 -2697l1079 2697q13 33 44 33h363q15 0 27 -11.5t12 -27.5q0 -4 -4 -16l-1260 -3100q-13 -30 -45 -30h-433q-31 0 -44 30l-1260 3100q-4 12 -4 16q0 16 13 27.5t29 11.5z" />
    <glyph glyph-name="W" unicode="W" horiz-adv-x="4018" 
d="M47 3134q-3 9 -3 12q0 16 13 27.5t29 11.5h343q17 0 30 -11t17 -27l667 -2493l656 2493q4 16 17.5 27t30.5 11h356q17 0 29 -11t16 -27l657 -2493l667 2493q4 16 17.5 27t30.5 11h343q15 0 27.5 -11.5t12.5 -27.5q0 -9 -1 -12l-871 -3099q-10 -35 -46 -35h-356
q-17 0 -30 10.5t-17 26.5l-657 2494l-657 -2494q-4 -16 -17 -26.5t-30 -10.5h-357q-37 0 -47 35z" />
    <glyph glyph-name="X" unicode="X" horiz-adv-x="2683" 
d="M1343 1926l811 1234q14 25 41 25h404q15 0 27.5 -12.5t12.5 -28.5q0 -13 -7 -21l-1037 -1530l1037 -1532q7 -8 7 -21q0 -15 -12.5 -27.5t-27.5 -12.5h-404q-27 0 -41 24l-811 1235l-811 -1235q-14 -24 -42 -24h-404q-15 0 -28.5 12.5t-13.5 27.5q0 12 8 21l1038 1532
l-1038 1530q-6 7 -6 20q0 16 12.5 29t27.5 13h404q28 0 42 -25z" />
    <glyph glyph-name="Y" unicode="Y" horiz-adv-x="3136" 
d="M1401 0q-19 0 -33 14t-14 34v863l-1303 2213q-7 16 -7 22q0 16 13.5 27.5t28.5 11.5h374q49 0 73 -46l1036 -1815l1036 1815q11 20 31.5 33t42.5 13l375 -1q15 0 27 -11.5t12 -27.5q0 -9 -5 -21l-1302 -2213v-863q0 -19 -15.5 -33.5t-34.5 -14.5h-335z" />
    <glyph glyph-name="Z" unicode="Z" horiz-adv-x="2716" 
d="M202 3185h2314q19 0 33.5 -14.5t14.5 -34.5v-184q0 -29 -17 -52l-1867 -2553h1927q20 0 34.5 -14.5t14.5 -33.5v-251q0 -19 -15 -33.5t-34 -14.5h-2496q-20 0 -34.5 14t-14.5 34v185q0 25 18 50l1866 2555h-1744q-20 0 -34.5 14.5t-14.5 33.5v250q0 19 15 34t34 15z" />
    <glyph glyph-name="bracketleft" unicode="[" horiz-adv-x="1350" 
d="M1260 -143q20 0 34 -14t14 -34v-216q0 -20 -14 -34t-34 -14h-870q-20 0 -35 14t-15 34v3997q0 20 15 34t35 14h870q20 0 34 -14t14 -34v-215q0 -20 -14 -34.5t-34 -14.5h-521v-3469h521z" />
    <glyph glyph-name="backslash" unicode="\" horiz-adv-x="1816" 
d="M336 3185h309q36 0 47 -37l831 -3098q1 -3 1 -10q0 -16 -12 -28t-28 -12h-310q-36 0 -46 36l-831 3098q-1 3 -1 12q0 16 12 27.5t28 11.5z" />
    <glyph glyph-name="bracketright" unicode="]" horiz-adv-x="1350" 
d="M94 3326q-20 0 -35 14.5t-15 34.5v215q0 20 15 34t35 14h870q20 0 34 -14t14 -34v-3997q0 -20 -14 -34t-34 -14h-870q-20 0 -35 14t-15 34v216q0 20 15 34t35 14h520v3469h-520z" />
    <glyph glyph-name="asciicircum" unicode="^" horiz-adv-x="1881" 
d="M953 2759l-291 -794q-4 -14 -17.5 -23t-28.5 -9h-280q-15 0 -27.5 12t-12.5 28q0 11 3 18l484 1165q12 29 45 29h253q31 0 43 -29l484 -1165q5 -15 5 -18q0 -16 -13 -28t-28 -12h-280q-34 0 -47 32z" />
    <glyph glyph-name="underscore" unicode="_" horiz-adv-x="2216" 
d="M1874 256q20 0 34 -6.5t14 -14.5v-158q0 -8 -14 -14t-34 -6h-1530q-20 0 -34 6t-14 14v158q0 8 14 14.5t34 6.5h1530z" />
    <glyph glyph-name="grave" unicode="`" horiz-adv-x="1346" 
d="M301 3390q-5 12 -5 13q0 9 6.5 16t15.5 7h298q23 0 43 -12.5t31 -32.5l386 -704q2 -4 2 -10q0 -9 -7.5 -16t-15.5 -7h-198q-43 0 -68 35z" />
    <glyph glyph-name="a" unicode="a" horiz-adv-x="2601" 
d="M1188 2341q330 0 573.5 -90.5t373.5 -260.5t130 -400l-3 -1542q0 -20 -14 -34t-34 -14h-227q-34 0 -44 33l-48 265q-73 -120 -194 -203.5t-271.5 -123.5t-323.5 -40q-178 0 -325.5 39t-253 108.5t-178.5 166.5t-108 212.5t-35 246.5q0 377 255 576t749 199
q374 0 656 -116v144q0 245 -178.5 384t-526.5 139q-121 0 -236.5 -18.5t-206 -49t-155 -59t-117.5 -60.5q-20 -11 -39 1q-19 10 -19 34v232q0 28 25 42q340 189 775 189zM1866 1107q-245 111 -588 111q-335 0 -504 -123.5t-169 -364.5q0 -220 152 -353t444 -133
q124 0 240.5 32t212.5 93t154 161t58 224v353z" />
    <glyph glyph-name="b" unicode="b" horiz-adv-x="2601" 
d="M1324 2031q-280 0 -432.5 -126.5t-152.5 -371.5v-791q0 -245 152.5 -371.5t432.5 -126.5t433.5 126.5t153.5 371.5v791q0 245 -153.5 371.5t-433.5 126.5zM1460 2343q403 0 626 -195.5t223 -572.5v-876q0 -378 -221 -573t-628 -195q-565 0 -754 342l-43 -240
q-10 -33 -45 -33h-228q-20 0 -35 14t-15 34v3088q0 20 15 34.5t35 14.5h301q20 0 34 -14.5t14 -34.5v-1082q201 289 721 289z" />
    <glyph glyph-name="c" unicode="c" horiz-adv-x="2554" 
d="M1279 2343q479 0 731.5 -194t252.5 -574v-65q0 -20 -14 -34.5t-34 -14.5h-302q-20 0 -34 14.5t-14 34.5v23q0 245 -153 371.5t-433 126.5t-432.5 -126.5t-152.5 -371.5v-791q0 -245 152.5 -371.5t432.5 -126.5t433 126.5t153 371.5v22q0 20 14 35t34 15h302q20 0 34 -15
t14 -35v-65q0 -380 -252.5 -574t-731.5 -194t-731 194t-252 574v876q0 380 252 574t731 194z" />
    <glyph glyph-name="d" unicode="d" horiz-adv-x="2601" 
d="M1279 2031q-280 0 -432.5 -126.5t-152.5 -371.5v-791q0 -245 152.5 -371.5t432.5 -126.5t433 126.5t153 371.5v791q0 245 -153 371.5t-433 126.5zM1898 271q-190 -340 -753 -340q-407 0 -628 195t-221 573v876q0 377 223 572.5t626 195.5q518 0 720 -287v1080
q0 20 14 34.5t34 14.5h302q20 0 34 -14.5t14 -34.5v-3088q0 -20 -14 -34t-34 -14h-230q-34 0 -44 33z" />
    <glyph glyph-name="e" unicode="e" horiz-adv-x="2554" 
d="M1280 2343q479 0 730.5 -193.5t251.5 -573.5v-459q0 -20 -13.5 -33.5t-33.5 -13.5h-1521v-336q0 -245 153.5 -372t432.5 -127t432 127t153 372v22q0 20 14.5 34.5t34.5 14.5h301q20 0 33.5 -14.5t13.5 -34.5v-57q0 -380 -251.5 -574t-730.5 -194t-731.5 194t-252.5 574
v877q0 380 252.5 573.5t731.5 193.5zM1865 1366v167q0 245 -153 371.5t-432 126.5t-432.5 -126.5t-153.5 -371.5v-167h1171z" />
    <glyph glyph-name="f" unicode="f" horiz-adv-x="2123" 
d="M1379 2275q20 0 34 -14t14 -34v-217q0 -20 -14 -34t-34 -14h-640v-1914q0 -20 -14 -34t-34 -14h-301q-20 0 -35 14t-15 34v2562q0 321 225 481.5t646 160.5t645.5 -160.5t224.5 -481.5q0 -20 -14 -34t-34 -14h-302q-20 0 -34 14t-14 34q0 181 -126 272t-346 91t-346 -91
t-126 -272v-335h640z" />
    <glyph glyph-name="g" unicode="g" horiz-adv-x="2601" 
d="M1279 2031q-280 0 -432.5 -126.5t-152.5 -371.5v-791q0 -245 152.5 -371.5t432.5 -126.5t433 126.5t153 371.5v791q0 245 -153 371.5t-433 126.5zM1865 218q-202 -287 -720 -287q-407 0 -628 195t-221 573v876q0 377 223 572.5t626 195.5q566 0 755 -343l41 242
q10 33 44 33h230q20 0 34 -14t14 -34v-2526q0 -138 -49.5 -250.5t-138 -191t-212 -132.5t-270 -79t-314.5 -25q-171 0 -315 21.5t-269 71.5t-212.5 126t-137 190.5t-49.5 259.5q0 20 14 35t34 15h302q20 0 34 -15t14 -35q0 -105 46 -182.5t128.5 -122t184.5 -65.5t226 -21
q96 0 180 12.5t160 42t129.5 73.5t85 111t31.5 152v526z" />
    <glyph glyph-name="h" unicode="h" horiz-adv-x="2645" 
d="M1959 0q-20 0 -34 14t-14 34v1485q0 245 -153.5 371.5t-433.5 126.5t-432.5 -126.5t-152.5 -371.5v-1485q0 -20 -14 -34t-34 -14h-301q-20 0 -35 14t-15 34v3088q0 20 15 34.5t35 14.5h301q20 0 34 -14.5t14 -34.5v-1082q201 289 721 289q403 0 626 -195.5t223 -572.5
v-1527q0 -20 -14.5 -34t-34.5 -14h-301z" />
    <glyph glyph-name="i" unicode="i" horiz-adv-x="1077" 
d="M390 2275h301q20 0 34 -14t14 -34v-2179q0 -20 -14 -34t-34 -14h-301q-20 0 -35 14t-15 34v2179q0 20 15 34t35 14zM540 3329q109 0 177 -64t68 -172t-68 -172t-177 -64t-176.5 64t-67.5 172t67.5 172t176.5 64z" />
    <glyph glyph-name="j" unicode="j" horiz-adv-x="1061" 
d="M382 2275h300q20 0 34.5 -14t14.5 -34v-2563q0 -311 -198.5 -476t-586.5 -165t-586.5 165t-198.5 476q0 20 14.5 34t34.5 14h301q20 0 34 -14t14 -34q0 -171 99.5 -267t287.5 -96t287 96t99 267v2563q0 20 15 34t35 14zM524 3329q109 0 176.5 -64t67.5 -172t-67.5 -172
t-176.5 -64t-177.5 64t-68.5 172t68.5 172t177.5 64z" />
    <glyph glyph-name="k" unicode="k" horiz-adv-x="2443" 
d="M2391 67q12 -14 12 -26q0 -16 -13 -28t-29 -12l-404 -1q-24 0 -39 18l-785 858l-393 -415v-414q0 -20 -14 -34t-34 -14h-301q-20 0 -35 14t-15 34v3089q0 20 15 34.5t35 14.5h301q20 0 34 -14.5t14 -34.5v-2240l1178 1359q15 20 41 20l403 -1q16 0 28.5 -12t12.5 -28
q0 -13 -11 -26l-1016 -1074z" />
    <glyph glyph-name="l" unicode="l" horiz-adv-x="1077" 
d="M390 3185h301q20 0 34 -14.5t14 -34.5v-3089q0 -20 -14 -34t-34 -14h-301q-20 0 -35 14t-15 34v3089q0 20 15 34.5t35 14.5z" />
    <glyph glyph-name="m" unicode="m" horiz-adv-x="3556" 
d="M694 2059q155 284 602 284q216 0 376 -85.5t238 -248.5q144 334 625 334q326 0 504.5 -168.5t178.5 -494.5v-1632q0 -20 -14 -34t-34 -14h-302q-19 0 -33.5 14t-14.5 34v1598q0 189 -110 287t-310 98t-310.5 -98t-110.5 -287v-1598q0 -20 -14.5 -34t-34.5 -14h-301
q-19 0 -33.5 14t-14.5 34v1598q0 189 -110.5 287t-310.5 98t-310.5 -98t-110.5 -287v-1598q0 -20 -14 -34t-34 -14h-301q-20 0 -35 14t-15 34v2179q0 20 15 34t35 14h228q35 0 45 -33z" />
    <glyph glyph-name="n" unicode="n" horiz-adv-x="2645" 
d="M1959 0q-20 0 -34 14t-14 34v1485q0 245 -153.5 371.5t-433.5 126.5t-432.5 -126.5t-152.5 -371.5v-1485q0 -20 -14 -34t-34 -14h-301q-20 0 -35 14t-15 34v2179q0 20 15 34t35 14h228q35 0 45 -33l41 -245q188 346 756 346q403 0 626 -195.5t223 -572.5v-1527
q0 -20 -15 -34t-34 -14h-301z" />
    <glyph glyph-name="o" unicode="o" horiz-adv-x="2554" 
d="M1864 742v791q0 245 -152.5 371.5t-432.5 126.5t-432.5 -126.5t-152.5 -371.5v-791q0 -245 152.5 -371.5t432.5 -126.5t432.5 126.5t152.5 371.5zM2263 1575v-876q0 -380 -252.5 -574t-731.5 -194t-731 194t-252 574v876q0 380 252 574t731 194t731.5 -194t252.5 -574z
" />
    <glyph glyph-name="p" unicode="p" horiz-adv-x="2601" 
d="M1460 2343q407 0 628 -195t221 -573v-876q0 -377 -223 -572.5t-626 -195.5q-520 0 -721 289v-1081q0 -20 -14 -35t-34 -15h-301q-20 0 -35 15t-15 35v3088q0 20 15 34t35 14h228q35 0 45 -33l42 -242q189 343 755 343zM1324 2031q-280 0 -432.5 -126.5t-152.5 -371.5
v-791q0 -245 152.5 -371.5t432.5 -126.5t433.5 126.5t153.5 371.5v791q0 245 -153.5 371.5t-433.5 126.5z" />
    <glyph glyph-name="q" unicode="q" horiz-adv-x="2601" 
d="M1279 2343q984 0 984 -768v-2436q0 -20 -14 -35t-34 -15h-302q-20 0 -34 15t-14 35v1079q-202 -287 -720 -287q-403 0 -626 195.5t-223 572.5v876q0 380 253.5 574t729.5 194zM1279 2031q-280 0 -432.5 -126.5t-152.5 -371.5v-791q0 -245 152.5 -371.5t432.5 -126.5
t433 126.5t153 371.5v791q0 245 -153 371.5t-433 126.5z" />
    <glyph glyph-name="r" unicode="r" horiz-adv-x="1594" 
d="M1206 2343q193 0 317 -75q28 -13 28 -43l1 -241q0 -18 -14.5 -29.5t-33.5 -7.5q-73 47 -143.5 65.5t-162.5 18.5q-102 0 -189.5 -34t-154.5 -98.5t-105 -165t-38 -226.5v-1459q0 -20 -14 -34t-34 -14h-302q-20 0 -34 14t-14 34v2179q0 20 14 34t34 14h230q34 0 44 -33
l35 -225q78 159 216.5 242.5t319.5 83.5z" />
    <glyph glyph-name="s" unicode="s" horiz-adv-x="2192" 
d="M1547 581q0 124 -71 218.5t-197 127.5l-574 154q-231 62 -343.5 212.5t-112.5 375.5q0 321 214.5 497.5t633.5 176.5t634 -172.5t215 -484.5q0 -21 -14.5 -34.5t-35.5 -13.5h-301q-21 0 -34.5 10.5t-13.5 28.5q0 183 -118 285t-340 102q-213 0 -327 -99.5t-114 -270.5
q0 -123 64 -217.5t206 -130.5l563 -150q158 -42 264.5 -133t153.5 -208t47 -258q0 -316 -217.5 -491t-635.5 -175q-415 0 -629.5 174t-214.5 484q0 23 15 35.5t35 12.5h301q21 0 34.5 -11.5t13.5 -28.5q0 -182 118.5 -284.5t339.5 -102.5q212 0 326.5 99t114.5 272z" />
    <glyph glyph-name="t" unicode="t" horiz-adv-x="2123" 
d="M390 3099h301q20 0 34 -14.5t14 -34.5v-775h1095q20 0 34 -14t14 -34v-217q0 -20 -14 -34t-34 -14h-1095v-1317q0 -193 127.5 -297t344.5 -104q214 0 343 104.5t129 296.5v248q0 20 14 34t34 14h302q20 0 34 -14t14 -34v-248q0 -323 -233.5 -518.5t-636.5 -195.5
q-408 0 -639.5 195t-231.5 519v2405q0 20 15 34.5t35 14.5z" />
    <glyph glyph-name="u" unicode="u" horiz-adv-x="2645" 
d="M1189 -69q-403 0 -626 195.5t-223 572.5v1528q0 20 15.5 34t34.5 14h301q20 0 34 -14t14 -34v-1485q0 -245 152.5 -371.5t432.5 -126.5t433.5 126.5t153.5 371.5v1485q0 20 14 34t34 14h301q20 0 34.5 -14t14.5 -34v-2179q0 -20 -14.5 -34t-34.5 -14h-229q-34 0 -44 33
l-41 244q-94 -173 -283.5 -259.5t-473.5 -86.5z" />
    <glyph glyph-name="v" unicode="v" horiz-adv-x="2207" 
d="M47 2222q-6 20 7 36.5t32 16.5h317q35 0 45 -35l672 -1902l670 1902q4 15 17 25t29 10h318q19 0 32 -16.5t6 -36.5l-803 -2190q-11 -32 -46 -32l-446 -1q-35 0 -47 33z" />
    <glyph glyph-name="w" unicode="w" horiz-adv-x="3147" 
d="M47 2224q-3 9 -3 11q0 16 13 28t29 12h306q17 0 31 -11t17 -28l470 -1792l459 1791q3 18 16.5 29t30.5 11h318q18 0 31 -11t16 -29l461 -1791l469 1792q7 39 46 39h308q15 0 27 -12t12 -28q0 -8 -1 -11l-654 -2190q-10 -35 -46 -35h-320q-17 0 -31 11t-17 29l-460 1791
l-459 -1790q-3 -17 -16.5 -28.5t-31.5 -11.5l-321 -1q-16 0 -29.5 9.5t-17.5 25.5z" />
    <glyph glyph-name="x" unicode="x" horiz-adv-x="2056" 
d="M1029 1392l575 857q16 26 43 26h327q14 0 26.5 -12.5t12.5 -28.5q0 -14 -7 -22l-745 -1075l745 -1075q7 -8 7 -21q0 -16 -12.5 -28.5t-26.5 -12.5h-327q-27 0 -43 26l-575 859l-574 -859q-16 -26 -42 -26h-327q-14 0 -27 13t-13 28q0 14 6 21l747 1075l-747 1075
q-8 9 -8 22q0 15 13.5 28t28.5 13h327q26 0 42 -26z" />
    <glyph glyph-name="y" unicode="y" horiz-adv-x="2645" 
d="M1189 -69q-403 0 -626 195.5t-223 572.5v1528q0 19 15.5 33.5t34.5 14.5h301q19 0 33.5 -14t14.5 -34v-1485q0 -245 152.5 -371.5t432.5 -126.5t433.5 126.5t153.5 371.5v1485q0 20 14 34t34 14h301q20 0 34.5 -14t14.5 -34v-2535q0 -138 -49.5 -249.5t-138 -189
t-212.5 -130t-270.5 -76.5t-314.5 -24q-171 0 -315 21.5t-269.5 71.5t-212.5 126t-137 190.5t-50 259.5q0 20 15 35t35 15h301q20 0 34 -15t14 -35q0 -105 46 -182.5t128.5 -122t184.5 -65.5t226 -21q96 0 180 12.5t160 42t130 73.5t85.5 111t31.5 152v528
q-202 -289 -722 -289z" />
    <glyph glyph-name="z" unicode="z" horiz-adv-x="2330" 
d="M321 2275h1689q20 0 34 -14t14 -34l-1 -181q0 -14 -11 -31l-1287 -1702h1342q20 0 34 -14t14 -34v-217q0 -20 -14 -34t-34 -14h-1871q-19 0 -33.5 14.5t-14.5 33.5v180q0 14 11 30l1290 1703l-1162 1q-19 0 -33.5 14t-14.5 34v217q0 19 14.5 33.5t33.5 14.5z" />
    <glyph glyph-name="braceleft" unicode="{" horiz-adv-x="1728" 
d="M96 1700q0 20 14.5 34t34.5 14h183q91 0 171 40t130 112t50 158v1041q0 147 72.5 271t196.5 196t271 72h365q20 0 34 -14t14 -34v-215q0 -20 -14 -34.5t-34 -14.5h-245q-109 0 -185.5 -76.5t-76.5 -184.5v-1041q0 -149 -87 -268t-225 -164q138 -45 225 -164t87 -269
v-1040q0 -108 76.5 -185t185.5 -77h245q20 0 34 -14t14 -34v-216q0 -20 -14 -34t-34 -14h-365q-223 0 -381.5 158.5t-158.5 381.5v1040q0 86 -50 158t-130 112t-171 40h-183q-20 0 -34.5 15t-14.5 35v215z" />
    <glyph glyph-name="bar" unicode="|" horiz-adv-x="992" 
d="M390 3355h216q20 0 34 -14.5t14 -34.5v-3997q0 -20 -14 -34.5t-34 -14.5h-216q-20 0 -35 14.5t-15 34.5v3997q0 20 15 34.5t35 14.5z" />
    <glyph glyph-name="braceright" unicode="}" horiz-adv-x="1728" 
d="M1049 2058q0 -130 106.5 -220t246.5 -90h182q20 0 34 -14t14 -34v-215q0 -20 -14 -35t-34 -15h-182q-140 0 -246.5 -90t-106.5 -220v-1040q0 -223 -158.5 -381.5t-381.5 -158.5h-364q-20 0 -34.5 14t-14.5 34v216q0 20 14.5 34t34.5 14h245q108 0 184.5 77t76.5 185v1040
q0 149 88 268.5t226 164.5q-138 46 -226 164.5t-88 267.5v1041q0 108 -76 184.5t-185 76.5h-245q-20 0 -34.5 14.5t-14.5 34.5v215q0 20 14.5 34t34.5 14h364q147 0 271 -72t196.5 -196t72.5 -271v-1041z" />
    <glyph glyph-name="asciitilde" unicode="~" horiz-adv-x="2578" 
d="M820 1664q117 0 224.5 -23.5t189.5 -57l161 -67t173.5 -57t193.5 -23.5q91 0 173.5 21.5t143.5 57.5t98.5 66t69.5 63q11 10 25 4t14 -20v-253q0 -25 -17 -45q-20 -29 -59.5 -61t-101 -66.5t-153 -57t-193.5 -22.5q-117 0 -224.5 23.5t-189.5 57l-161 67t-173.5 57
t-193.5 23.5q-287 0 -486 -208q-10 -11 -24 -5t-14 20v254q0 28 19 48q22 29 62 60.5t102 65.5t152 56t189 22z" />
    <glyph glyph-name="thothanthai.nobase" horiz-adv-x="2938" 
d="M296 1350q0 20 14 34t34 14h677q20 0 34 -14t14 -34v-582q0 -249 142.5 -378t415.5 -129t414.5 129t141.5 378v1009q0 692 -736 692t-736 -692q0 -20 -14 -34t-34 -14h-319q-22 0 -35 13.5t-13 34.5q0 1022 1151 1022q299 0 521 -69h794q20 0 33.5 -14t13.5 -34v-234
q0 -20 -13.5 -34t-33.5 -14h-326q162 -240 162 -623v-1009q0 -410 -245.5 -623.5t-725.5 -213.5q-481 0 -727 214t-246 623v301h-310q-20 0 -34 14.5t-14 34.5v232z" />
    <glyph glyph-name="saraithai.left" 
d="M-2682 3241q-20 0 -34 14t-14 34v234q0 20 14 34t34 14h1610q20 0 34 -14t14 -34v-234q0 -20 -14 -34t-34 -14h-1610z" />
    <glyph glyph-name="saraiithai.left" 
d="M-2710 3571h1277v588q0 20 14 35t34 15h285q20 0 34.5 -15t14.5 -35v-870q0 -20 -14.5 -34t-34.5 -14h-1610q-20 0 -34 14t-14 34v234q0 20 14 34t34 14z" />
    <glyph glyph-name="sarauethai.left" 
d="M-1330 3688v84q0 88 -46 131t-142 43t-142 -43t-46 -131v-84q0 -185 188 -185t188 185zM-2709 3242q-20 0 -34.5 13.5t-14.5 33.5v233q0 20 14.5 34.5t34.5 14.5h729q-4 35 -4 74v182q0 382 466 382t466 -382v-194q0 -391 -466 -391h-1191z" />
    <glyph glyph-name="saraueethai.left" 
d="M-2682 3241q-19 0 -33.5 14t-14.5 34v234q0 20 14 34t34 14h723v588q0 20 14.5 35t33.5 15h175q20 0 34 -15t14 -35v-588h368v588q0 20 15 35t35 15h198q20 0 34 -15t14 -35v-870q0 -20 -14 -34t-34 -14h-1610z" />
    <glyph glyph-name="ellipsis" unicode="&#x2026;" horiz-adv-x="3398" 
d="M2860 403q109 0 177 -64t68 -172t-68 -172t-177 -64t-176.5 64t-67.5 172t67.5 172t176.5 64zM1700 403q109 0 176.5 -64t67.5 -172t-67.5 -172t-176.5 -64t-177 64t-68 172t68 172t177 64zM540 403q109 0 177 -64t68 -172t-68 -172t-177 -64t-176.5 64t-67.5 172
t67.5 172t176.5 64z" />
    <glyph glyph-name="maiekthai.low.left" 
d="M-1499 4323h286q20 0 34 -15t14 -35v-984q0 -20 -14 -34t-34 -14h-286q-20 0 -33.5 14t-13.5 34v984q0 21 13.5 35.5t33.5 14.5z" />
    <glyph glyph-name="maithothai.low.left" 
d="M-1870 3269q-20 0 -34.5 14.5t-14.5 34.5v674h-271q-20 0 -34 14t-14 34v233q0 20 14 35t34 15h603q20 0 34.5 -15t14.5 -35v-674q123 0 227 22t195 72.5t154 127.5t99 191.5t36 260.5q0 20 14 35t34 15h284q20 0 34.5 -15t14.5 -35q0 -204 -56.5 -371.5t-156.5 -283.5
t-238.5 -195.5t-300 -116.5t-343.5 -37h-329z" />
    <glyph glyph-name="maitrithai.low.left" 
d="M-1743 4131q28 67 85.5 115.5t123.5 70.5t135 22q195 0 305 -107.5t110 -288.5v-402h219q19 0 34 -14.5t15 -34.5v-203q0 -19 -14.5 -33t-34.5 -14h-466q-20 0 -34.5 13.5t-14.5 33.5v637q0 77 -43.5 123.5t-120.5 46.5q-70 0 -118.5 -49t-48.5 -107v-76q0 -15 -10.5 -26
t-26.5 -11h-178q-20 0 -34 13.5t-14 33.5v66q0 62 -46.5 109t-119.5 47q-78 0 -122 -46t-44 -124v-335q0 -53 25.5 -79.5t82.5 -26.5h182q20 0 34.5 -14.5t14.5 -34.5v-147q0 -20 -14.5 -33.5t-34.5 -13.5h-315q-120 0 -195.5 75.5t-75.5 190.5v435q0 181 110 288.5
t306 107.5q69 0 135 -22t123.5 -70.5t84.5 -115.5z" />
    <glyph glyph-name="maichattawathai.low.left" 
d="M-1658 3946v327q0 20 14 35t34 15h286q20 0 33.5 -14.5t13.5 -35.5v-327h302q20 0 34 -14t14 -34v-232q0 -20 -14 -35t-34 -15h-302v-327q0 -20 -13.5 -34t-33.5 -14h-286q-20 0 -34 14t-14 34v327h-301q-20 0 -34 15t-14 35v232q0 20 14 34t34 14h301z" />
    <glyph glyph-name="thanthakhatthai.low.left" 
d="M-1154 4323l690 -2q20 0 34 -14t14 -34v-233q0 -20 -14 -34.5t-34 -14.5l-503 1q-123 0 -192.5 -66.5t-69.5 -194.5v-442q0 -20 -14 -34t-34 -14h-285q-20 0 -34 14t-14 34v578q0 206 127.5 331t328.5 125z" />
    <glyph glyph-name="maiekthai.low.right" 
d="M-674 4323h284q20 0 35 -15t15 -35v-984q0 -20 -15 -34t-35 -14h-284q-20 0 -33.5 14t-13.5 34v984q0 21 13.5 35.5t33.5 14.5z" />
    <glyph glyph-name="maithothai.low.right" 
d="M-1126 3269q-20 0 -34 14.5t-14 34.5v674h-270q-20 0 -34.5 14t-14.5 34v233q0 20 14.5 35t34.5 15h602q20 0 34.5 -15t14.5 -35v-674q123 0 227 22.5t195 73t154 127t99 191.5t36 260q0 20 14 35t34 15h284q20 0 34 -15t14 -35q0 -204 -56.5 -371.5t-156.5 -283.5
t-238.5 -195.5t-300 -116.5t-343.5 -37h-329z" />
    <glyph glyph-name="maitrithai.low.right" 
d="M-1103 4128q27 68 84.5 117t124 71.5t135.5 22.5q195 0 305 -107.5t110 -288.5v-402h220q19 0 33 -14.5t14 -34.5v-203q0 -19 -13.5 -33t-33.5 -14h-466q-20 0 -34.5 13.5t-14.5 33.5v637q0 77 -44.5 123.5t-121.5 46.5q-70 0 -118 -49t-48 -107v-66q0 -20 -14 -33.5
t-34 -13.5h-166q-20 0 -33.5 13.5t-13.5 33.5v66q0 62 -47 109t-120 47q-78 0 -122 -46t-44 -124l-2 -335q0 -106 110 -106h182q20 0 33.5 -14t13.5 -34v-148q0 -20 -14.5 -33.5t-34.5 -13.5h-315q-119 0 -194 75.5t-75 190.5v435q0 181 109 288.5t305 107.5
q69 0 135.5 -22.5t124 -71.5t84.5 -117z" />
    <glyph glyph-name="maichattawathai.low.right" 
d="M-725 3946v327q0 20 14 35t34 15h284q20 0 35 -15t15 -35v-327h301q20 0 34 -14t14 -34v-232q0 -20 -14 -35t-34 -15h-301v-327q0 -20 -15 -34t-35 -14h-284q-20 0 -34 14t-14 34v327h-301q-20 0 -34.5 15t-14.5 35v232q0 20 14.5 34t34.5 14h301z" />
    <glyph glyph-name="thanthakhatthai.low.right" 
d="M-733 4323l691 -2q20 0 34 -14t14 -34v-233q0 -20 -14 -34.5t-34 -14.5l-502 1q-123 0 -192.5 -66.5t-69.5 -194.5v-442q0 -20 -14 -34t-34 -14h-285q-20 0 -34 14t-14 34v578q0 206 127 331t327 125z" />
    <glyph glyph-name="yoyingthai.nobase" horiz-adv-x="4626" 
d="M1431 2799q601 0 898.5 -262.5t297.5 -787.5v-894q0 -594 624 -594q621 0 621 594v1827q0 20 14 34t34 14h319q20 0 34 -14t14 -34v-1827q0 -469 -261.5 -696.5t-774.5 -227.5q-1039 0 -1039 924v894q0 720 -781 720q-744 0 -781 -650h589q20 0 34 -14t14 -34v-129
q0 -21 -15 -35.5t-36 -14.5h-30q-125 0 -232.5 -63t-171 -170.5t-63.5 -232.5v-517q0 -133 71 -206t207 -73h282q20 0 34 -14t14 -34v-234q0 -20 -14 -34t-34 -14h-486q-219 0 -354 138t-135 352v551q0 177 95 326t248 225h-385q-20 0 -34.5 14t-14.5 34v109
q0 1050 1198 1050z" />
    <glyph glyph-name="quoteleft" unicode="&#x2018;" horiz-adv-x="1226" 
d="M669 3185h220q19 0 34.5 -14.5t15.5 -34.5q0 -2 -1 -4t-1 -3l-221 -1155q-3 -18 -16.5 -29.5t-31.5 -11.5h-324q-19 0 -33.5 14t-14.5 34q0 9 1 13l325 1154q5 16 18 26.5t29 10.5z" />
    <glyph glyph-name="quoteright" unicode="&#x2019;" horiz-adv-x="1226" 
d="M565 3185h324q19 0 34.5 -14.5t15.5 -34.5q0 -5 -2 -13l-327 -1154q-5 -16 -17 -26t-28 -10h-221q-19 0 -33.5 14t-14.5 34v8l221 1155q3 18 16.5 29.5t31.5 11.5z" />
    <glyph glyph-name="bullet" unicode="&#x2022;" horiz-adv-x="1721" 
d="M296 1364q0 115 45 220t120.5 180.5t180.5 120.5t220 45q154 0 284 -75.5t205.5 -206t75.5 -284.5t-75.5 -284t-205.5 -205.5t-284 -75.5t-284.5 75.5t-206 205.5t-75.5 284z" />
    <glyph glyph-name="endash" unicode="&#x2013;" horiz-adv-x="2636" 
d="M344 1542h1951q20 0 34 -14t14 -34v-216q0 -20 -14 -34.5t-34 -14.5h-1951q-20 0 -34 14.5t-14 34.5v216q0 20 14 34t34 14z" />
    <glyph glyph-name="emdash" unicode="&#x2014;" horiz-adv-x="3091" 
d="M344 1542h2406q20 0 34 -14t14 -34v-216q0 -20 -14 -34.5t-34 -14.5h-2406q-20 0 -34 14.5t-14 34.5v216q0 20 14 34t34 14z" />
    <glyph glyph-name="maihanakatthai.left" 
d="M-1695 3571h958q20 0 34 -14t14 -34v-234q0 -20 -14 -34t-34 -14h-1146q-200 0 -326.5 124.5t-126.5 330.5v463q0 20 14 35t34 15h283q20 0 35 -15t15 -35v-326q0 -129 68.5 -195.5t191.5 -66.5z" />
    <glyph glyph-name="nikhahitthai.left" 
d="M-1468 4179q501 0 501 -381v-193q0 -393 -501 -393q-250 0 -375 96t-125 297v193q0 381 500 381zM-1468 3918q-205 0 -205 -180v-73q0 -190 205 -190t205 190v73q0 180 -205 180z" />
    <glyph glyph-name="maitaikhuthai.left" 
d="M-2230 4339h1199q20 0 34.5 -14.5t14.5 -34.5v-148q0 -20 -14.5 -34t-34.5 -14h-1065q-109 0 -109 -106v-335q0 -78 44.5 -124t122.5 -46q73 0 119.5 47t46.5 109v179q0 21 13.5 35.5t33.5 14.5h167q20 0 34.5 -15t14.5 -35v-179q0 -58 47.5 -107t117.5 -49
q77 0 121.5 46.5t44.5 123.5v165q0 21 13.5 35.5t33.5 14.5h200q20 0 34.5 -14t14.5 -34v-184q0 -181 -110.5 -287.5t-305.5 -106.5q-69 0 -135.5 22t-124 70t-84.5 116q-27 -68 -84.5 -116t-123.5 -70t-135 -22q-196 0 -306 106.5t-110 287.5v435q0 115 76 191.5t195 76.5z
" />
    <glyph glyph-name="maiekthai.upper.left" 
d="M-1385 5459h285q20 0 34.5 -14t14.5 -34v-785q0 -20 -14.5 -34.5t-34.5 -14.5h-285q-20 0 -34 14.5t-14 34.5v785q0 20 14 34t34 14z" />
    <glyph glyph-name="maithothai.upper.left" 
d="M-2043 5431h603q20 0 34 -14.5t14 -34.5v-475h55q230 0 376.5 127.5t146.5 347.5q0 20 14 34.5t34 14.5h285q20 0 34 -14.5t14 -34.5q0 -182 -65.5 -334t-180 -254.5t-271 -159.5t-336.5 -57h-439q-20 0 -34 14.5t-14 34.5v475h-270q-20 0 -34 14t-14 34v233
q0 20 14 34.5t34 14.5z" />
    <glyph glyph-name="maitrithai.upper.left" 
d="M-1631 5303q37 90 121 138t182 48q184 0 278 -98t94 -263l-1 -257h203q20 0 34.5 -15t14.5 -35v-181q0 -20 -14.5 -34.5t-34.5 -14.5h-432q-20 0 -34.5 14.5t-14.5 34.5v473q0 77 -30.5 114.5t-102.5 37.5q-67 0 -100.5 -41t-33.5 -111v-26q0 -20 -14 -34.5t-34 -14.5
h-157q-20 0 -33.5 14.5t-13.5 34.5v26q0 152 -134 152q-73 0 -103.5 -36.5t-30.5 -115.5v-191q0 -103 106 -103h114q15 0 26 -11.5t11 -26.5v-144q0 -19 -13 -32.5t-32 -13.5h-232q-114 0 -186 72.5t-72 182.5v282q0 166 93 263.5t276 97.5q97 0 180 -48t120 -138z" />
    <glyph glyph-name="maichattawathai.upper.left" 
d="M-1407 5166v245q0 20 14 34t34 14h284q20 0 34.5 -14t14.5 -34v-245h244q20 0 34 -14t14 -34v-199q0 -20 -14 -34t-34 -14h-244v-245q0 -20 -14.5 -34.5t-34.5 -14.5h-284q-20 0 -34 14.5t-14 34.5v245h-244q-20 0 -34 14t-14 34v199q0 20 14 34t34 14h244z" />
    <glyph glyph-name="thanthakhatthai.upper.left" 
d="M-1313 4811h691q20 0 34 -14t14 -34v-234q0 -20 -14 -34t-34 -14h-503q-123 0 -192.5 -66.5t-69.5 -195.5v-258q0 -20 -14 -34.5t-34 -14.5h-285q-20 0 -34 14.5t-14 34.5v395q0 206 127 330.5t328 124.5z" />
    <glyph glyph-name="kokaithai" unicode="&#xe01;" horiz-adv-x="2983" 
d="M1447 2799q601 0 899 -262.5t298 -787.5v-1701q0 -20 -14 -34t-34 -14h-319q-20 0 -34 14t-14 34v1701q0 720 -782 720q-743 0 -780 -650h589q20 0 34 -14t14 -34v-129q0 -21 -14.5 -35.5t-35.5 -14.5h-32q-190 0 -328 -138t-138 -328v-1078q0 -20 -14 -34t-34 -14h-318
q-20 0 -35 14t-15 34v993q0 177 95 326t249 225h-385q-20 0 -35 14t-15 34v109q0 1050 1198 1050z" />
    <glyph glyph-name="khokhaithai" unicode="&#xe02;" horiz-adv-x="2614" 
d="M390 2730h884q20 0 34 -14t14 -34v-824q0 -20 -14 -34t-34 -14h-62q-189 0 -322.5 -132.5t-133.5 -321.5v-588q0 -507 553 -507q550 0 550 507v1914q0 20 15 34t35 14h318q20 0 34 -14t14 -34v-1914q0 -425 -243 -631t-723 -206t-723.5 206t-243.5 631l-2 588
q0 135 51 258.5t138.5 214t208 146.5t254.5 62v363h-602q-20 0 -34 14t-14 34v234q0 20 14 34t34 14z" />
    <glyph glyph-name="khokhuatthai" unicode="&#xe03;" horiz-adv-x="2629" 
d="M889 2799q209 0 330 -118t121 -356v-448q0 -20 -14 -34t-34 -14h-65q-189 0 -321.5 -133.5t-132.5 -322.5v-605q0 -506 551 -506q552 0 552 506l2 1915q0 20 14 34t34 14h317q20 0 35 -14t15 -34l-2 -1915q0 -425 -243.5 -630.5t-723.5 -205.5t-723 205.5t-243 630.5v605
q0 138 52.5 263t142 216t213.5 145.5t261 57.5v218q0 120 -62 175t-165 55q-92 0 -153 -56t-61 -174v-140q0 -20 -14 -34t-34 -14h-159q-36 0 -46 32l-201 560q-2 6 -2 13q0 16 13 28t28 12h159q32 0 44 -28l91 -211q41 155 151 231.5t273 76.5z" />
    <glyph glyph-name="khokhwaithai" unicode="&#xe04;" horiz-adv-x="2983" 
d="M1493 2799q1151 0 1151 -1022v-1729q0 -20 -14 -34t-34 -14h-319q-20 0 -34 14t-14 34v1729q0 692 -736 692q-737 0 -737 -692v-505q65 68 154 105.5t188 37.5h293q20 0 33.5 -14t13.5 -34v-232q0 -21 -13.5 -35.5t-33.5 -14.5h-293q-139 0 -240.5 -100.5t-101.5 -239.5
v-697q0 -20 -14 -34t-34 -14h-318q-20 0 -35 14t-15 34v1729q0 1022 1153 1022z" />
    <glyph glyph-name="khokhonthai" unicode="&#xe05;" horiz-adv-x="3211" 
d="M756 1273q65 67 153.5 104.5t187.5 37.5h293q20 0 34.5 -13.5t14.5 -33.5v-234q0 -20 -14.5 -34t-34.5 -14h-293q-139 0 -240 -101.5t-101 -240.5v-695q0 -20 -14.5 -34.5t-34.5 -14.5h-317q-20 0 -34.5 14.5t-14.5 34.5l-1 2061q0 121 22 221.5t73.5 188.5t130.5 149
t198 95.5t271 34.5q118 0 226 -35t201 -112.5t144 -187.5q52 110 144.5 187.5t200.5 112.5t226 35q152 0 271 -34.5t198 -95.5t130.5 -149t73.5 -188.5t22 -221.5v-2061q0 -20 -14.5 -34.5t-34.5 -14.5h-318q-20 0 -34.5 14.5t-14.5 34.5v2036q0 89 -15.5 155t-53 119.5
t-106 81t-167.5 27.5q-86 0 -154 -34t-108 -90.5t-60.5 -122.5t-20.5 -136v-138q0 -20 -13.5 -34t-33.5 -14h-234q-20 0 -34 14t-14 34v138q0 72 -19.5 138t-58.5 122t-107.5 89.5t-158.5 33.5q-99 0 -167.5 -27t-106 -80t-53 -119t-15.5 -157v-812z" />
    <glyph glyph-name="khorakhangthai" unicode="&#xe06;" horiz-adv-x="3029" 
d="M917 2797q209 0 329 -117t120 -355v-449q0 -20 -14 -34t-34 -14h-62q-189 0 -322.5 -133t-133.5 -322v-421q0 -691 737 -691q736 0 736 691v1729q0 20 14 34.5t34 14.5h320q20 0 34 -14.5t14 -34.5v-1729q0 -1021 -1015 -1021q-674 0 -893 458l-57 -356q-10 -33 -44 -33
h-246q-20 0 -34.5 14t-14.5 34v1325q0 137 52.5 262t142 216t213.5 146t261 58v218q0 119 -61.5 173.5t-164.5 54.5q-93 0 -154 -55t-61 -173l1 -140q0 -20 -14 -34t-34 -14h-159q-35 0 -46 32l-200 560q0 2 -1.5 6.5t-1.5 6.5q0 16 12.5 28t28.5 12h159q31 0 43 -28
l92 -211q40 154 150.5 230t273.5 76z" />
    <glyph glyph-name="ngonguthai" unicode="&#xe07;" horiz-adv-x="2869" 
d="M2042 2730q219 0 353.5 -138t134.5 -352v-1750q0 -234 -124 -362t-364 -128h-1240q-16 0 -30 10t-18 26l-707 2644q-3 9 -3 10q0 15 13.5 27.5t28.5 12.5h340q16 0 29 -10.5t18 -26.5l632 -2363h714q147 0 221.5 76.5t74.5 219.5v1495q0 133 -71 206t-207 73h-282
q-20 0 -34.5 14t-14.5 34l1 234q0 20 14 34t34 14h487z" />
    <glyph glyph-name="chochanthai" unicode="&#xe08;" horiz-adv-x="2892" 
d="M296 1349q0 20 14 34t34 14h677q20 0 34 -14t14 -34v-581q0 -249 142.5 -378t415.5 -129t414.5 129t141.5 378v1009q0 692 -736 692t-736 -692q0 -20 -14 -34t-34 -14h-319q-22 0 -35 13.5t-13 34.5q0 1022 1151 1022t1151 -1022v-1009q0 -410 -245.5 -623.5
t-725.5 -213.5q-481 0 -727 214t-246 623v299h-310q-20 0 -34 14.5t-14 34.5v233z" />
    <glyph glyph-name="chochingthai" unicode="&#xe09;" horiz-adv-x="2938" 
d="M296 1350q0 20 14 34t34 14h677q20 0 34 -14t14 -34v-582q0 -249 142.5 -378t415.5 -129t414.5 129t141.5 378v1009q0 692 -736 692t-736 -692q0 -21 -14 -34.5t-34 -13.5h-319q-20 0 -34 13.5t-14 34.5q0 1022 1151 1022t1151 -1022v-1729q0 -20 -14 -34t-34 -14h-246
q-35 0 -45 33l-49 263q-95 -180 -278 -272.5t-449 -92.5q-407 0 -618 214.5t-211 622.5v301h-310q-20 0 -34 14.5t-14 34.5v232z" />
    <glyph glyph-name="chochangthai" unicode="&#xe0a;" horiz-adv-x="2614" 
d="M390 2730h884q20 0 34 -14.5t14 -33.5v-822q0 -20 -14 -34t-34 -14h-62q-189 0 -322 -133.5t-133 -322.5l1 -588q0 -507 551 -507q552 0 552 507v839q0 138 -93.5 235.5t-225.5 97.5h-33q-20 0 -33.5 14t-13.5 34v148q0 20 13.5 34t33.5 14l33 1q132 0 225.5 99t93.5 234
v164q0 20 14 34t34 14h318q20 0 34.5 -14t14.5 -34v-131q0 -159 -84 -290.5t-222 -199.5q138 -68 222 -199.5t84 -288.5v-805q0 -425 -243.5 -631t-723.5 -206t-723 206t-243 631l-3 588q0 135 51.5 258.5t138.5 214t208 146.5t255 62v363h-603q-20 0 -35 14.5t-15 33.5v234
q0 20 15 34t35 14z" />
    <glyph glyph-name="sosothai" unicode="&#xe0b;" horiz-adv-x="2629" 
d="M465 2491q41 155 151 231.5t273 76.5q209 0 330 -118t121 -356v-448q0 -20 -14 -34t-34 -14h-65q-189 0 -321.5 -133.5t-132.5 -322.5v-605q0 -506 551 -506q552 0 552 506l2 840q0 138 -93.5 235.5t-225.5 97.5h-32q-20 0 -34 14t-14 34v147q0 20 14 34t34 14l32 1
q132 0 225.5 99t93.5 234v165q0 20 14 34t34 14h317q20 0 35 -14t15 -34v-131q0 -159 -84 -290.5t-222 -199.5q138 -69 222 -200.5t84 -287.5l-2 -806q0 -425 -243.5 -630.5t-723.5 -205.5t-723 205.5t-243 630.5v605q0 138 52.5 263t142 216t213.5 145.5t261 57.5v219
q0 120 -62 175t-165 55q-92 0 -153 -56t-61 -174v-141q0 -20 -14 -34t-34 -14h-159q-36 0 -46 32l-201 560q-2 6 -2 13q0 16 12.5 28t27.5 12h160q32 0 44 -28z" />
    <glyph glyph-name="chochoethai" unicode="&#xe0c;" horiz-adv-x="4642" 
d="M1447 2799q601 0 899 -262.5t298 -787.5v-893q0 -594 623 -594q622 0 622 594v1827q0 20 14 34t34 14h320q20 0 34 -14t14 -34v-1921q0 -415 -234.5 -622.5t-666.5 -207.5q-66 0 -125.5 4.5t-127 16t-127 30.5t-120.5 50.5t-112 73t-97.5 101t-80.5 131.5l-46 -306
q-10 -33 -44 -33h-247q-20 0 -34 14t-14 34v1701q0 720 -782 720q-743 0 -780 -650h589q20 0 34 -14t14 -34v-129q0 -21 -14.5 -35.5t-35.5 -14.5h-32q-190 0 -328 -138t-138 -328v-517q0 -133 71.5 -206t207.5 -73h282q20 0 34 -14t14 -34v-234q0 -20 -14 -34t-34 -14h-487
q-220 0 -355 138t-135 352v551q0 177 93 325.5t244 225.5h-378q-20 0 -35 14t-15 34v109q0 1050 1198 1050z" />
    <glyph glyph-name="yoyingthai" unicode="&#xe0d;" horiz-adv-x="4642" 
d="M1447 2798q601 0 899 -262t298 -787v-388q0 -594 623 -594q622 0 622 594v1321q0 20 14 34t34 14h320q20 0 34 -14t14 -34v-2454q0 -145 -52 -267.5t-146 -211.5t-223.5 -150.5t-285 -92t-331.5 -30.5t-331.5 30.5t-285 92t-223.5 150.5t-146 211.5t-52 267.5q0 20 14 34
t34 14h320q20 0 34 -14t14 -34q0 -106 49 -188t135 -132.5t197 -76t241 -25.5q127 0 237 25.5t197 76t137.5 133t50.5 187.5v556q-50 -84 -120 -148t-143.5 -101t-162.5 -60t-166.5 -30.5t-165.5 -7.5q-432 0 -667 208t-235 623v481q0 720 -782 720q-743 0 -780 -650h589
q19 0 33.5 -14t14.5 -34v-129q0 -21 -14.5 -35.5t-35.5 -14.5h-32q-190 0 -328 -138t-138 -328v-517q0 -133 71.5 -206t207.5 -73h282q20 0 34 -14t14 -34v-234q0 -20 -14 -34t-34 -14h-487q-220 0 -355 138t-135 352v551q0 177 95 326t249 225h-385q-20 0 -35 14t-15 34
v109q0 525 298.5 787t899.5 262z" />
    <glyph glyph-name="dochadathai" unicode="&#xe0e;" horiz-adv-x="2972" 
d="M1436 2799q1198 0 1198 -1050v-3065q0 -20 -15 -34t-35 -14h-317q-20 0 -34 14t-14 34v31q0 135 -42.5 246.5t-115 187t-170.5 128t-207 76.5t-226 24q-119 0 -225 -24t-197.5 -76t-157.5 -128.5t-103.5 -187.5t-37.5 -246v-31q0 -20 -14 -34t-34 -14h-303q-20 0 -34 14
t-14 34v31q0 197 53.5 360.5t149.5 279.5t229 196.5t292 118.5t339 38q263 0 472.5 -81t345.5 -243v2365q0 720 -783 720q-743 0 -780 -649h772q20 0 34 -14t14 -34v-129q0 -21 -15 -36t-36 -15h-31q-125 0 -232.5 -63t-171 -170t-63.5 -232v-639q0 -214 -134.5 -351
t-354.5 -137h-344q-20 0 -34 14t-14 34l-2 233q0 20 15 34.5t35 14.5h140q136 0 207 72t71 205v435q0 177 94.5 325.5t247.5 224.5h-567q-20 0 -34 15t-14 35v107q0 525 298 787.5t899 262.5z" />
    <glyph glyph-name="topatakthai" unicode="&#xe0f;" horiz-adv-x="2972" 
d="M1436 2799q1198 0 1198 -1050v-3065q0 -20 -15 -34t-35 -14h-317q-20 0 -34 14t-14 34v31q0 116 -40.5 208t-110 148t-156.5 85.5t-184 29.5q-134 0 -237.5 -50t-167 -158t-63.5 -263v-31q0 -20 -13 -34t-33 -14h-236q-19 0 -33.5 14t-14.5 34v31q0 218 -141.5 340.5
t-388.5 122.5h-38q-20 0 -34.5 15t-14.5 35v206q0 20 14.5 34t34.5 14h38q240 0 419 -82.5t273 -252.5q87 168 249.5 251.5t377.5 83.5q139 0 269 -44.5t229 -138.5l2 2450q0 720 -783 720q-743 0 -780 -649h772q20 0 34 -14t14 -34v-129q0 -21 -15 -36t-36 -15h-31
q-125 0 -232.5 -63t-171 -170t-63.5 -232v-639q0 -214 -134.5 -351t-354.5 -137h-344q-20 0 -34 14t-14 34l-2 233q0 20 15 34.5t35 14.5h140q136 0 207 72t71 205v434q0 177 94.5 326t247.5 225h-567q-20 0 -34 15t-14 35v107q0 525 298 787.5t899 262.5z" />
    <glyph glyph-name="thothanthai" unicode="&#xe10;" horiz-adv-x="2938" 
d="M1073 -849q82 163 237.5 247t374.5 84q149 0 291 -53t246 -163l40 327q4 17 16.5 27t29.5 10h242q20 0 35 -14t15 -34v-898q0 -20 -15 -34t-35 -14h-317q-20 0 -34 14t-14 34v31q0 116 -40.5 208t-110 148t-156.5 85.5t-184 29.5q-134 0 -237.5 -50t-167 -158t-63.5 -263
v-31q0 -20 -13.5 -34t-33.5 -14h-218q-19 0 -33.5 14t-14.5 34v31q0 218 -141.5 340.5t-387.5 122.5h-40q-20 0 -34 15t-14 35v206q0 20 14 34t34 14h40q238 0 416 -81.5t273 -249.5zM654 1069h-310q-20 0 -34 14.5t-14 34.5v232q0 20 14 34t34 14h677q20 0 34 -14t14 -34
v-582q0 -249 142.5 -378t415.5 -129t414.5 129t141.5 378v1009q0 692 -736 692t-736 -692q0 -20 -14 -34t-34 -14h-319q-22 0 -35 13.5t-13 34.5q0 1022 1151 1022q299 0 521 -69h794q20 0 33.5 -14t13.5 -34v-234q0 -20 -13.5 -34t-33.5 -14h-326q162 -240 162 -623v-1009
q0 -410 -245.5 -623.5t-725.5 -213.5q-481 0 -727 214t-246 623v301z" />
    <glyph glyph-name="thonangmonthothai" unicode="&#xe11;" horiz-adv-x="3029" 
d="M493 2493q41 154 151.5 230t272.5 76q168 0 276 -73.5t149 -214.5q171 288 617 288q730 0 730 -740v-2011q0 -20 -14 -34t-34 -14h-320q-20 0 -34 14t-14 34v2011q0 410 -452 410q-455 0 -455 -410v-182q0 -20 -14 -34t-34 -14h-62q-189 0 -322.5 -133.5t-133.5 -322.5
v-1325q0 -19 -13.5 -33.5t-33.5 -14.5h-319q-20 0 -34.5 14.5t-14.5 33.5v1325q0 137 52.5 262t142 216t213.5 146t261 58v218q0 120 -62 175t-164 55q-93 0 -154 -56t-61 -174l1 -140q0 -20 -14 -34t-34 -14h-160q-34 0 -45 32l-200 560q0 2 -1.5 6t-1.5 6q0 16 12 28.5
t29 12.5h159q27 0 43 -28z" />
    <glyph glyph-name="thophuthaothai" unicode="&#xe12;" horiz-adv-x="4871" 
d="M2847 327l-52 -295q-4 -14 -16 -23t-28 -9h-246q-20 0 -34.5 14.5t-14.5 34.5v2036q0 70 -9.5 125.5t-32.5 105t-61 82t-97.5 51.5t-138.5 19q-70 0 -128.5 -22.5t-98 -60.5t-67 -88t-40 -103.5t-12.5 -108.5v-138q0 -20 -13.5 -34t-33.5 -14h-234q-20 0 -34 14t-14 34
v138q0 57 -11.5 110.5t-38.5 103.5t-66 87t-98.5 59.5t-132.5 22.5q-99 0 -166.5 -27t-104.5 -80t-52.5 -119t-15.5 -157v-1476q0 -134 72 -207t208 -73h282q20 0 33.5 -13.5t13.5 -33.5v-233q0 -20 -14.5 -34.5t-34.5 -14.5h-485q-219 0 -354.5 137.5t-135.5 351.5l-1 1621
q0 121 22 221.5t73.5 188.5t130.5 149t198 95.5t271 34.5q118 0 226 -35t201 -112.5t144 -187.5q52 110 144.5 187.5t200.5 112.5t226 35q152 0 271 -34.5t198 -95.5t130.5 -149t73.5 -188.5t22 -221.5v-1271q0 -577 623 -577t623 577v1844q0 20 13.5 33.5t33.5 13.5h319
q20 0 34 -13.5t14 -33.5v-1921q0 -209 -61.5 -367t-178.5 -259.5t-282.5 -152t-378.5 -50.5q-65 0 -123.5 4t-125.5 15.5t-126 30t-119.5 49t-111 71t-97 97.5t-81.5 127z" />
    <glyph glyph-name="nonenthai" unicode="&#xe13;" horiz-adv-x="4642" 
d="M1447 2799q601 0 899 -262.5t298 -787.5v-894q0 -594 623 -594q622 0 622 594v1827q0 20 14 34t34 14h320q20 0 34 -14t14 -34v-2634q0 -20 -14 -34t-34 -14h-248q-34 0 -44 33l-45 303q-35 -72 -81.5 -131t-97 -100t-111.5 -72.5t-120 -50.5t-127 -31t-127 -16t-125 -4
q-432 0 -667 207.5t-235 622.5v988q0 720 -782 720q-743 0 -780 -650h589q19 0 33.5 -14t14.5 -34v-129q0 -21 -14.5 -35.5t-35.5 -14.5h-32q-190 0 -328 -138t-138 -328v-517q0 -133 71.5 -206t207.5 -73h282q20 0 34 -14t14 -34v-234q0 -20 -14 -34t-34 -14h-487
q-220 0 -355 138t-135 352v551q0 181 103.5 331.5t268.5 219.5h-413q-20 0 -35 14t-15 34v109q0 1050 1198 1050z" />
    <glyph glyph-name="dodekthai" unicode="&#xe14;" horiz-adv-x="2983" 
d="M1493 2799q1151 0 1151 -1022v-1729q0 -20 -14 -34t-34 -14h-319q-20 0 -34 14t-14 34v1729q0 692 -736 692q-737 0 -737 -692v-1168q0 -133 71.5 -206t207.5 -73h282q20 0 34 -14t14 -34v-234q0 -20 -14 -34t-34 -14h-487q-220 0 -355 138t-135 352v1287
q0 1022 1153 1022z" />
    <glyph glyph-name="totaothai" unicode="&#xe15;" horiz-adv-x="3211" 
d="M1606 2464q52 110 144.5 187.5t200.5 112.5t226 35q152 0 271 -34.5t198 -95.5t130.5 -149t73.5 -188.5t22 -221.5v-2061q0 -20 -14.5 -34.5t-34.5 -14.5h-318q-20 0 -34.5 14.5t-14.5 34.5v2036q0 89 -15.5 155t-53 119.5t-106 81t-167.5 27.5q-86 0 -154 -34
t-108 -90.5t-60.5 -122.5t-20.5 -136v-138q0 -20 -13.5 -34t-33.5 -14h-234q-20 0 -34 14t-14 34v138q0 72 -19.5 138t-58.5 122t-107.5 89.5t-158.5 33.5q-99 0 -167.5 -27t-106 -80t-53 -119t-15.5 -157v-1476q0 -134 72 -207t208 -73h282q20 0 33.5 -13.5t13.5 -33.5
v-233q0 -20 -14.5 -34.5t-34.5 -14.5h-485q-219 0 -354.5 137.5t-135.5 351.5l-1 1621q0 121 22 221.5t73.5 188.5t130.5 149t198 95.5t271 34.5q118 0 226 -35t201 -112.5t144 -187.5z" />
    <glyph glyph-name="thothungthai" unicode="&#xe16;" horiz-adv-x="2983" 
d="M1447 2799q601 0 899 -262.5t298 -787.5v-1701q0 -20 -14 -34t-34 -14h-319q-20 0 -34 14t-14 34v1701q0 720 -782 720q-743 0 -780 -650h589q20 0 34 -14t14 -34v-129q0 -21 -14.5 -35.5t-35.5 -14.5h-32q-190 0 -328 -138t-138 -328v-517q0 -133 71.5 -206t207.5 -73
h282q20 0 34 -14t14 -34v-234q0 -20 -14 -34t-34 -14h-487q-220 0 -355 138t-135 352v551q0 181 103.5 331.5t268.5 219.5h-413q-20 0 -35 14t-15 34v109q0 1050 1198 1050z" />
    <glyph glyph-name="thothahanthai" unicode="&#xe17;" horiz-adv-x="2983" 
d="M1629 2799q1015 0 1015 -1006v-1745q0 -20 -14 -34t-34 -14h-319q-20 0 -34 14t-14 34v1729q0 692 -736 692q-358 0 -547.5 -169.5t-189.5 -522.5v-1729q0 -20 -14 -34t-34 -14h-318q-20 0 -35 14t-15 34v2634q0 20 15 34t35 14h246q15 0 27 -9.5t17 -23.5l51 -369
q216 471 898 471z" />
    <glyph glyph-name="thothongthai" unicode="&#xe18;" horiz-adv-x="2527" 
d="M1271 2799q495 0 752 -208.5t257 -605.5q0 -24 -15 -40t-39 -16h-307q-24 0 -39 13t-15 33q0 237 -159.5 365.5t-444.5 128.5q-279 0 -437.5 -125t-158.5 -359q0 -232 157.5 -352t438.5 -120h881q20 0 33.5 -14t13.5 -34v-1417q0 -20 -13.5 -34t-33.5 -14h-1752
q-20 0 -34.5 14t-14.5 34v668q0 21 14.5 34.5t34.5 13.5h318q20 0 34 -14t14 -34v-386h1018v853h-628q-274 0 -475 92t-311.5 273.5t-110.5 436.5q0 396 262.5 605t759.5 209z" />
    <glyph glyph-name="nonuthai" unicode="&#xe19;" horiz-adv-x="2983" 
d="M390 2730h318q20 0 34 -14t14 -34v-1729q0 -692 737 -692q736 0 736 692v1729q0 20 14 34t34 14h319q20 0 34 -14t14 -34v-2634q0 -20 -14 -34t-34 -14h-246q-15 0 -28 9t-17 24l-51 366q-74 -159 -201.5 -264t-300.5 -154.5t-396 -49.5q-1016 0 -1016 1022v1729
q0 20 15 34t35 14z" />
    <glyph glyph-name="bobaimaithai" unicode="&#xe1a;" horiz-adv-x="2983" 
d="M390 2730h318q20 0 34 -14t14 -34v-1729q0 -692 737 -692q736 0 736 692v1729q0 20 14 34t34 14h319q20 0 34 -14t14 -34v-1729q0 -1022 -1151 -1022q-1153 0 -1153 1022v1729q0 20 15 34t35 14z" />
    <glyph glyph-name="poplathai" unicode="&#xe1b;" horiz-adv-x="2983" 
d="M390 2730h318q20 0 34 -14t14 -34v-1729q0 -692 737 -692q736 0 736 692v2637q0 20 14 34t34 14h319q20 0 34 -14t14 -34v-2637q0 -1022 -1151 -1022q-1153 0 -1153 1022v1729q0 20 15 34t35 14z" />
    <glyph glyph-name="phophungthai" unicode="&#xe1c;" horiz-adv-x="3211" 
d="M831 2730h485q20 0 34.5 -14.5t14.5 -34.5v-233q0 -20 -14 -34.5t-33 -14.5h-282q-136 0 -208 -72t-72 -206v-1476q0 -91 15 -157t50.5 -119t100.5 -80t160 -27q86 0 151 33.5t102 89.5t55 122t18 138v1058q0 20 13.5 33.5t33.5 13.5h302q20 0 34.5 -13.5t14.5 -33.5
v-1058q0 -55 11.5 -108.5t37 -103.5t62.5 -88t92.5 -60.5t121.5 -22.5q94 0 159.5 27.5t100.5 81t50 119.5t15 155v2036q0 20 14.5 34.5t34.5 14.5h318q20 0 34.5 -14.5t14.5 -34.5v-2061q0 -121 -21 -221.5t-71 -188.5t-126.5 -149t-192.5 -95.5t-265 -34.5
q-121 0 -233 35.5t-208 113.5t-148 189q-53 -111 -148.5 -189t-207.5 -113.5t-233 -35.5q-149 0 -265.5 34.5t-193 95.5t-126.5 149t-71.5 188.5t-21.5 221.5l1 1621q0 214 135.5 351.5t354.5 137.5z" />
    <glyph glyph-name="fofathai" unicode="&#xe1d;" horiz-adv-x="3211" 
d="M831 2730h485q20 0 34.5 -14.5t14.5 -34.5v-233q0 -20 -14 -34.5t-33 -14.5h-282q-136 0 -207.5 -72t-71.5 -206l-1 -1476q0 -91 15 -157t50.5 -119t100.5 -80t160 -27q86 0 151 33.5t102 89.5t55 122t18 138v1058q0 20 13.5 33.5t33.5 13.5h302q20 0 34.5 -13.5
t14.5 -33.5v-1058q0 -55 11.5 -108.5t37 -103.5t62.5 -88t92.5 -60.5t121.5 -22.5q94 0 159.5 27.5t100.5 81t50 119.5t15 155v2946q0 20 14.5 33.5t34.5 13.5h318q20 0 34.5 -13.5t14.5 -33.5v-2971q0 -121 -21 -221.5t-71 -188.5t-126.5 -149t-192.5 -95.5t-265 -34.5
q-121 0 -233 35.5t-208 113.5t-148 189q-53 -111 -148.5 -189t-207.5 -113.5t-233 -35.5q-149 0 -265.5 34.5t-193 95.5t-126.5 149t-71.5 188.5t-21.5 221.5l1 1621q0 214 135.5 351.5t354.5 137.5z" />
    <glyph glyph-name="phophanthai" unicode="&#xe1e;" horiz-adv-x="3893" 
d="M390 2730h318q20 0 34 -14t14 -34v-1940q0 -229 119.5 -355t372.5 -126q246 0 369 127t123 354v1940q0 20 14.5 34t34.5 14h318q20 0 34 -14t14 -34v-1940q0 -229 119.5 -355t372.5 -126q254 0 373.5 126t119.5 355v1940q0 20 14 34t34 14h317q20 0 35 -14t15 -34v-1940
q0 -392 -206 -601.5t-626 -209.5q-620 0 -777 445q-80 -217 -272 -331t-501 -114q-420 0 -626.5 209.5t-206.5 601.5v1940q0 20 15 34t35 14z" />
    <glyph glyph-name="fofanthai" unicode="&#xe1f;" horiz-adv-x="3893" 
d="M390 2730h318q20 0 34 -14t14 -34v-1940q0 -229 119.5 -355t372.5 -126q246 0 369 127t123 354v1940q0 20 14.5 34t34.5 14h318q20 0 34 -14t14 -34v-1940q0 -229 119.5 -355t372.5 -126q254 0 373.5 126t119.5 355v2848q0 20 14 34t34 14h317q20 0 35 -14t15 -34v-2848
q0 -392 -206 -601.5t-626 -209.5q-620 0 -777 445q-80 -217 -272 -331t-501 -114q-420 0 -626.5 209.5t-206.5 601.5v1940q0 20 15 34t35 14z" />
    <glyph glyph-name="phosamphaothai" unicode="&#xe20;" horiz-adv-x="2972" 
d="M1436 2799q1198 0 1198 -1050v-1700q0 -20 -15 -34.5t-35 -14.5h-317q-20 0 -34 14.5t-14 34.5v1700q0 720 -783 720q-742 0 -780 -648l772 -1q20 0 34 -14t14 -34v-129q0 -20 -15.5 -35.5t-35.5 -15.5h-31q-125 0 -232.5 -63t-171 -170.5t-63.5 -232.5v-638
q0 -214 -134.5 -351t-354.5 -137h-344q-20 0 -34 14t-14 34l-2 233q0 20 15 34.5t35 14.5h140q136 0 207 72t71 205v433q0 182 103.5 332.5t268.5 219.5l-597 2q-20 0 -34 14t-14 34v107q0 525 298 787.5t899 262.5z" />
    <glyph glyph-name="momathai" unicode="&#xe21;" horiz-adv-x="2983" 
d="M390 2730h318q20 0 34 -14t14 -34v-1729q0 -353 189.5 -522.5t547.5 -169.5q736 0 736 692v1729q0 20 14 34t34 14h319q20 0 34 -14t14 -34v-1729q0 -1022 -1015 -1022q-682 0 -898 471l-51 -369q-5 -14 -17 -23.5t-27 -9.5h-246q-20 0 -35 14.5t-15 33.5v2634
q0 20 15 34t35 14z" />
    <glyph glyph-name="yoyakthai" unicode="&#xe22;" horiz-adv-x="2972" 
d="M865 2730h520q20 0 34.5 -14t14.5 -34v-234q0 -20 -14.5 -34t-34.5 -14h-341q-145 0 -239 -94.5t-94 -238.5v-116q0 -159 95.5 -256t251.5 -97h326q20 0 34 -14t14 -34v-234q0 -20 -14 -34t-34 -14h-318q-160 0 -257.5 -92t-97.5 -243v-130q0 -269 191 -405.5t563 -136.5
q364 0 558 171.5t194 520.5v1729q0 20 15 34t35 14h317q20 0 34 -14t14 -34v-1729q0 -1022 -1167 -1022q-574 0 -871.5 220t-297.5 622v192q0 165 86 291t232 190q-145 71 -231.5 208t-86.5 305v202q0 157 71 286.5t202 206t296 76.5z" />
    <glyph glyph-name="roruathai" unicode="&#xe23;" horiz-adv-x="2563" 
d="M1289 2799q495 0 751.5 -208.5t256.5 -605.5q0 -24 -15 -40t-39 -16h-307q-24 0 -39 13t-15 33q0 237 -159 365.5t-444 128.5q-281 0 -439 -121t-158 -354q0 -147 68.5 -241.5t187.5 -125.5l877 -234q240 -64 361 -221t121 -437q0 -376 -262.5 -590t-750.5 -214
q-244 0 -436.5 57.5t-319.5 163.5t-194 256.5t-67 335.5q0 25 17 39.5t39 14.5h304q24 0 39.5 -12.5t15.5 -31.5q0 -218 161 -355.5t441 -137.5q142 0 256.5 36t188.5 100t113.5 150.5t39.5 187.5q0 150 -67 242t-188 125l-876 234q-484 128 -484 649q0 396 262.5 605
t759.5 209z" />
    <glyph glyph-name="ruthai" unicode="&#xe24;" horiz-adv-x="2983" 
d="M1447 2799q601 0 899 -262.5t298 -787.5v-2610q0 -20 -14 -35t-34 -15h-319q-20 0 -34 15t-14 35v2610q0 720 -782 720q-743 0 -780 -650h589q19 0 33.5 -14t14.5 -34v-129q0 -21 -14.5 -35.5t-35.5 -14.5h-32q-190 0 -328 -138t-138 -328v-517q0 -133 71.5 -206
t207.5 -73h282q20 0 34 -14t14 -34v-234q0 -20 -14 -34t-34 -14h-487q-220 0 -355 138t-135 352v551q0 181 103.5 331.5t268.5 219.5h-413q-20 0 -35 14t-15 34v109q0 1050 1198 1050z" />
    <glyph glyph-name="lolingthai" unicode="&#xe25;" horiz-adv-x="2892" 
d="M1402 2799q1151 0 1151 -1022v-1729q0 -20 -14 -34t-34 -14h-319q-20 0 -34 14t-14 34v595q0 304 -174 470.5t-511 166.5q-327 0 -512 -169t-185 -468v-595q0 -20 -14 -34t-34 -14h-318q-20 0 -35 14t-15 34v629q0 207 66 377.5t191.5 294.5t318 192.5t435.5 68.5
q280 0 479 -88t309 -251l-1 506q0 692 -736 692q-737 0 -737 -692q0 -21 -13.5 -34.5t-34.5 -13.5h-318q-21 0 -35.5 14t-14.5 34q0 1022 1153 1022z" />
    <glyph glyph-name="luthai" unicode="&#xe26;" horiz-adv-x="2972" 
d="M1436 2799q1198 0 1198 -1050v-2609q0 -20 -15 -34t-35 -14h-317q-20 0 -34 14t-14 34v2609q0 720 -783 720q-742 0 -780 -648l772 -1q20 0 34 -14t14 -34v-129q0 -20 -15.5 -35.5t-35.5 -15.5h-31q-125 0 -232.5 -63t-171 -170.5t-63.5 -232.5v-638q0 -214 -134.5 -351
t-354.5 -137h-344q-20 0 -34 14t-14 34l-2 233q0 20 15 34.5t35 14.5h140q136 0 207 72t71 205v433q0 182 103.5 332.5t268.5 219.5l-597 2q-20 0 -34 14t-14 34v107q0 525 298 787.5t899 262.5z" />
    <glyph glyph-name="wowaenthai" unicode="&#xe27;" horiz-adv-x="2892" 
d="M1447 2799q1151 0 1151 -1022v-824q0 -1022 -1151 -1022t-1151 1022q0 20 14 34t34 14h319q21 0 34.5 -14t13.5 -34q0 -692 736 -692t736 692v824q0 692 -736 692t-736 -692q0 -20 -14 -34t-34 -14h-319q-20 0 -34 14.5t-14 33.5q0 1022 1151 1022z" />
    <glyph glyph-name="sosalathai" unicode="&#xe28;" horiz-adv-x="2983" 
d="M1098 1085q-139 0 -240.5 -100.5t-101.5 -239.5v-697q0 -20 -14 -34t-34 -14h-318q-20 0 -35 14t-15 34v1729q0 1022 1153 1022q300 0 522 -69h791q20 0 34 -14t14 -34v-234q0 -20 -14 -34t-34 -14h-323q161 -239 161 -623v-1729q0 -20 -14 -34t-34 -14h-319
q-20 0 -34 14t-14 34v1729q0 692 -736 692q-737 0 -737 -692v-505q65 68 154 105.5t188 37.5h293q20 0 33.5 -14t13.5 -34v-232q0 -21 -13.5 -35.5t-33.5 -14.5h-293z" />
    <glyph glyph-name="sorusithai" unicode="&#xe29;" horiz-adv-x="2983" 
d="M390 2730h318q20 0 34 -14t14 -34v-1729q0 -692 737 -692q736 0 736 692v497h-715q-20 0 -35 14.5t-15 34.5v232q0 20 15 35t35 15h715v901q0 20 14 34t34 14h319q20 0 34 -14t14 -34v-901h304q20 0 34.5 -15t14.5 -35v-232q0 -20 -14.5 -34.5t-34.5 -14.5h-304v-497
q0 -1022 -1151 -1022q-1153 0 -1153 1022v1729q0 20 15 34t35 14z" />
    <glyph glyph-name="sosuathai" unicode="&#xe2a;" horiz-adv-x="2892" 
d="M2139 1271l-1 506q0 692 -736 692q-737 0 -737 -692q0 -20 -14 -34t-34 -14h-318q-22 0 -36 14t-14 34q0 1022 1153 1022q300 0 522 -69h791q20 0 34.5 -14t14.5 -34v-234q0 -20 -14.5 -34t-34.5 -14h-323q161 -239 161 -623v-1729q0 -20 -14 -34t-34 -14h-319
q-20 0 -34 14t-14 34v595q0 304 -174 470.5t-511 166.5q-327 0 -512 -169t-185 -468v-595q0 -20 -14 -34t-34 -14h-318q-20 0 -35 14t-15 34v629q0 207 66 377.5t191.5 294.5t318 192.5t435.5 68.5q280 0 479 -88t309 -251z" />
    <glyph glyph-name="hohipthai" unicode="&#xe2b;" horiz-adv-x="2983" 
d="M390 2730h318q20 0 34 -14t14 -34v-1419l1456 1444q23 23 58 23h425q16 0 28 -11.5t12 -28.5t-12 -29l-698 -682h130q219 0 354 -138t135 -352v-1441q0 -20 -14 -34t-34 -14h-319q-20 0 -34 14t-14 34v1322q0 133 -71.5 205.5t-207.5 72.5h-264l-930 -908v-692
q0 -20 -14 -34t-34 -14h-318q-20 0 -35 14t-15 34v2634q0 20 15 34t35 14z" />
    <glyph glyph-name="lochulathai" unicode="&#xe2c;" horiz-adv-x="3893" 
d="M1946 376q-80 -217 -272 -331t-501 -114q-420 0 -626.5 209.5t-206.5 601.5v1940q0 20 15 34t35 14h318q20 0 34 -14t14 -34v-1940q0 -229 119.5 -355t372.5 -126q246 0 369 127t123 354v1940q0 20 14.5 34t34.5 14h318q20 0 34 -14t14 -34v-1940q0 -229 119.5 -355
t372.5 -126q254 0 373.5 126t119.5 355v1534q0 138 -93.5 235t-225.5 97h-33q-20 0 -34 14t-14 34v148q0 20 15 34t35 14l31 1q132 0 225.5 99t93.5 234v405q0 20 14 35t34 15h317q20 0 35 -15t15 -35v-371q0 -159 -84 -291t-222 -200q137 -68 221.5 -199.5t84.5 -287.5
v-1500q0 -392 -206 -601.5t-626 -209.5q-620 0 -777 445z" />
    <glyph glyph-name="oangthai" unicode="&#xe2d;" horiz-adv-x="2892" 
d="M1447 2799q1151 0 1151 -1022v-841q0 -1005 -1151 -1005t-1151 1005v423q0 19 14 33.5t34 14.5h966q20 0 34.5 -14t14.5 -34v-198q0 -20 -14.5 -35t-34.5 -15h-599v-175q0 -675 736 -675t736 675v841q0 692 -736 692t-736 -692q0 -20 -13.5 -34t-34.5 -14h-319
q-20 0 -34 14.5t-14 33.5q0 1022 1151 1022z" />
    <glyph glyph-name="honokhukthai" unicode="&#xe2e;" horiz-adv-x="2918" 
d="M711 1111v-175q0 -675 736 -675t736 675v841q0 692 -736 692t-736 -692q0 -19 -14 -33.5t-34 -14.5h-319q-20 0 -34 14.5t-14 33.5q0 1022 1151 1022q300 0 522 -69h793q20 0 33.5 -14t13.5 -34v-234q0 -20 -13.5 -34t-33.5 -14h-325q161 -239 161 -623v-841
q0 -1005 -1151 -1005t-1151 1005v423q0 19 14 33.5t34 14.5h966q20 0 34.5 -14.5t14.5 -33.5v-198q0 -19 -15 -34.5t-34 -15.5h-599z" />
    <glyph glyph-name="paiyannoithai" unicode="&#xe2f;" horiz-adv-x="2847" 
d="M2142 0q-19 0 -33.5 14.5t-14.5 33.5v1499q-110 -165 -310 -253t-480 -88q-243 0 -435 68.5t-317 192.5t-190.5 294.5t-65.5 377.5v543q0 20 14 34t34 14h319q20 0 34 -14t14 -34v-509q0 -299 185 -468.5t511 -169.5q337 0 512 167t175 471v509q0 20 14 34t34 14h317
q20 0 34 -14t14 -34v-2634q0 -20 -14.5 -34t-33.5 -14h-317z" />
    <glyph glyph-name="saraathai" unicode="&#xe30;" horiz-adv-x="1896" 
d="M882 2032h730q20 0 34 -14t14 -34v-232q0 -20 -14 -34t-34 -14l-918 -1q-201 0 -328 124.5t-127 330.5v379q0 20 14 34t34 14h285q20 0 34 -14t14 -34v-243q0 -129 69.5 -195.5t192.5 -66.5zM882 668h730q20 0 34 -14t14 -34v-234q0 -20 -14 -34t-34 -14h-918
q-200 0 -327.5 125t-127.5 331v377q0 20 14 34t34 14l285 1q20 0 34 -14.5t14 -34.5v-241q0 -129 69.5 -195.5t192.5 -66.5z" />
    <glyph glyph-name="maihanakatthai" unicode="&#xe31;" 
d="M-722 3571h958q20 0 34.5 -14t14.5 -34v-234q0 -20 -14.5 -34t-34.5 -14h-1145q-201 0 -328 124.5t-127 330.5v463q0 20 14 35t34 15h283q20 0 35 -15t15 -35v-326q0 -129 69 -195.5t192 -66.5z" />
    <glyph glyph-name="saraaathai" unicode="&#xe32;" horiz-adv-x="2232" 
d="M969 2799q458 0 691 -201.5t233 -617.5v-1932q0 -20 -13.5 -34t-33.5 -14h-319q-20 0 -34.5 14t-14.5 34v1932q0 254 -130 371.5t-379 117.5t-379 -116.5t-130 -372.5q0 -20 -14 -35t-34 -15h-318q-20 0 -35 15t-15 35q0 408 237.5 613.5t687.5 205.5z" />
    <glyph glyph-name="saraamthai" unicode="&#xe33;" horiz-adv-x="2232" 
d="M-512 4179q501 0 501 -381v-193q0 -393 -501 -393q-250 0 -375.5 96.5t-125.5 296.5v193q0 381 501 381zM-512 3918q-205 0 -205 -180v-73q0 -190 205 -190t205 190v73q0 180 -205 180zM969 2799q458 0 691 -201.5t233 -617.5v-1932q0 -20 -13.5 -34t-33.5 -14h-319
q-20 0 -34.5 14t-14.5 34v1932q0 254 -130 371.5t-379 117.5t-379 -116.5t-130 -372.5q0 -20 -14 -35t-34 -15h-318q-20 0 -35 15t-15 35q0 408 237.5 613.5t687.5 205.5z" />
    <glyph glyph-name="saraithai" unicode="&#xe34;" 
d="M-2397 3241q-20 0 -34 14t-14 34v234q0 20 14 34t34 14h2007q20 0 35 -14t15 -34v-234q0 -20 -15 -34t-35 -14h-2007z" />
    <glyph glyph-name="saraiithai" unicode="&#xe35;" 
d="M-2397 3571h1675v588q0 20 14 35t34 15h284q20 0 35 -15t15 -35v-870q0 -20 -15 -34t-35 -14h-2007q-20 0 -34 14t-14 34v234q0 20 14 34t34 14z" />
    <glyph glyph-name="sarauethai" unicode="&#xe36;" 
d="M-636 3693v74q0 179 -205 179t-205 -179v-74q0 -190 205 -190t205 190zM-2397 3242q-20 0 -33.5 13.5t-13.5 33.5v233q0 20 13.5 34.5t33.5 14.5h1060q-5 35 -5 74v182q0 382 501 382t501 -382v-194q0 -391 -501 -391h-1556z" />
    <glyph glyph-name="saraueethai" unicode="&#xe37;" 
d="M-2397 3241q-19 0 -33.5 14t-14.5 34v234q0 20 14 34t34 14h932v588q0 20 15 35t35 15h249q20 0 34 -15t14 -35v-588h396v588q0 20 14.5 35t33.5 15h284q20 0 34.5 -15t14.5 -35v-870q0 -20 -14.5 -34t-34.5 -14h-2007z" />
    <glyph glyph-name="sarauthai" unicode="&#xe38;" 
d="M-654 -511q138 0 226 -89.5t88 -224.5v-747q0 -20 -15 -34t-35 -14h-284q-20 0 -34 14t-14 34v610q0 54 -31.5 87.5t-88.5 33.5h-161q-20 0 -34 14t-14 34v234q0 20 14 34t34 14h349z" />
    <glyph glyph-name="sarauuthai" unicode="&#xe39;" 
d="M-1399 -511q138 0 225 -89.5t87 -224.5v-465h280q57 0 88 32.5t31 86.5l-1 612q0 20 14.5 34t34.5 14h250q20 0 34 -14t14 -34l2 -749q0 -135 -88 -223.5t-226 -88.5h-732q-20 0 -34 14t-14 34v610q0 55 -31 88t-87 33h-162q-20 0 -34 14.5t-14 33.5v234q0 20 14 34
t34 14h315z" />
    <glyph glyph-name="phinthuthai" unicode="&#xe3a;" 
d="M-594 -511q113 0 183.5 -67t70.5 -178t-70.5 -178t-183.5 -67t-183 67t-70 178t70 178t183 67z" />
    <glyph glyph-name="bahtthai" unicode="&#xe3f;" horiz-adv-x="3000" 
d="M1441 3638q20 0 34 -14t14 -34v-405h309q151 0 278.5 -48.5t215.5 -133.5t137.5 -202.5t49.5 -252.5v-399q0 -169 -70 -301t-201 -211q103 -17 186 -56t140.5 -93.5t96.5 -124.5t57 -147t18 -163v-382q0 -331 -188.5 -501t-562.5 -170h-466v-407q0 -20 -14 -34t-34 -14
h-130q-20 0 -35 14t-15 34v407h-871q-20 0 -35 14t-15 34v3088q0 20 15 34.5t35 14.5h871v405q0 20 15 34t35 14h130zM1489 2838v-1073h120q197 0 317.5 101.5t120.5 291.5v279q0 184 -120.5 292.5t-317.5 108.5h-120zM1261 2838h-488v-1073h488v1073zM1489 1419v-1072h313
q237 0 354.5 101t117.5 314v261q0 184 -108.5 290t-306.5 106h-370zM1261 1419h-488v-1072h488v1072z" />
    <glyph glyph-name="saraethai" unicode="&#xe40;" horiz-adv-x="1408" 
d="M1035 330h282q20 0 34 -14t14 -34v-234q0 -20 -14 -34t-34 -14h-487q-219 0 -353.5 138t-134.5 352l-2 2192q0 19 15 33.5t35 14.5h318q20 0 34 -14t14 -34v-2073q0 -133 71.5 -206t207.5 -73z" />
    <glyph glyph-name="saraaethai" unicode="&#xe41;" horiz-adv-x="2818" 
d="M1035 330h282q20 0 34 -14t14 -34v-234q0 -20 -14 -34t-34 -14h-487q-219 0 -353.5 138t-134.5 352l-2 2192q0 20 15 34t35 14h318q20 0 34 -14t14 -34v-2073q0 -133 71.5 -206t207.5 -73zM2446 330h280q20 0 34 -14t14 -34v-234q0 -20 -14 -34t-34 -14h-485
q-219 0 -354 138t-135 352v2192q0 20 14 34t34 14h318q20 0 34.5 -14t14.5 -34v-2073q0 -133 71.5 -206t207.5 -73z" />
    <glyph glyph-name="saraothai" unicode="&#xe42;" horiz-adv-x="1721" 
d="M1347 330h281q20 0 35 -14.5t15 -33.5l-2 -234q0 -20 -14 -34t-34 -14h-485q-220 0 -355 138t-135 352l1 2806q0 124 -61 232t-167 172t-229 64h-103q-20 0 -35 14t-15 34v234q0 20 15 34t35 14h1534q20 0 34 -14t14 -34v-234q0 -20 -14 -34t-34 -14h-842
q131 -94 207 -239.5t76 -313.5l-1 -2602q0 -133 71.5 -206t207.5 -73z" />
    <glyph glyph-name="saraaimaimuanthai" unicode="&#xe43;" horiz-adv-x="1721" 
d="M1347 330h283q20 0 34 -14t14 -34v-234q0 -20 -14 -34t-34 -14h-487q-219 0 -354 138t-135 352v2140q0 133 52 254t139.5 208.5t208.5 139.5t254 52h40v99q0 191 -126 305.5t-360 114.5q-233 0 -360 -114.5t-127 -305.5v-22q0 -20 -14 -34t-34 -14h-233q-20 0 -35 14
t-15 34v22q0 348 211 549t607 201q199 0 354 -53t256 -151.5t153.5 -236.5t52.5 -309v-279q0 -20 -14 -34t-34 -14h-135q-177 0 -301.5 -125t-124.5 -302v-2020q0 -133 71 -206t207 -73z" />
    <glyph glyph-name="saraaimaimalaithai" unicode="&#xe44;" horiz-adv-x="1721" 
d="M1347 330h281q20 0 35 -14.5t15 -33.5l-2 -234q0 -20 -14 -34t-34 -14h-485q-219 0 -354 138t-135 352v2721q0 168 76 313.5t207 239.5h-843q-20 0 -35 14t-15 34v234q0 20 15 34t35 14h1534q20 0 34 -14t14 -34v-234q0 -20 -14 -34t-34 -14h-105q-123 0 -228 -64
t-165.5 -172t-60.5 -232v-2687q0 -133 71 -206t207 -73z" />
    <glyph glyph-name="lakkhangyaothai" unicode="&#xe45;" horiz-adv-x="2232" 
d="M969 2799q458 0 691 -201.5t233 -617.5v-2841q0 -21 -13.5 -35.5t-33.5 -14.5h-319q-20 0 -34.5 15t-14.5 35v2841q0 254 -130 371.5t-379 117.5t-379 -116.5t-130 -372.5q0 -20 -14 -35t-34 -15h-318q-20 0 -35 15t-15 35q0 408 237.5 613.5t687.5 205.5z" />
    <glyph glyph-name="maiyamokthai" unicode="&#xe46;" horiz-adv-x="3165" 
d="M1561 2464q51 111 144 188t201.5 112t226.5 35q189 0 326.5 -52t216 -147.5t114.5 -216t36 -273.5v-2971q0 -20 -14 -35t-34 -15h-319q-20 0 -34 15t-14 35v2946q0 88 -16.5 154.5t-55.5 120t-111 81.5t-176 28q-91 0 -162.5 -34.5t-113.5 -90.5t-63.5 -122.5
t-21.5 -136.5v-138q0 -20 -14 -34t-34 -14h-164q-20 0 -34.5 14t-14.5 34v138q0 73 -20 138.5t-61 122t-113 90t-166 33.5q-84 0 -147 -18.5t-103 -51t-64.5 -82t-34.5 -105t-10 -127.5v-442q0 -133 71.5 -206t207.5 -73h281q20 0 35 -14t15 -34l-2 -232q0 -20 -14 -34.5
t-34 -14.5h-486q-220 0 -354.5 137t-134.5 351v587q0 153 36 273.5t114.5 216t216 147.5t326.5 52q118 0 226.5 -35t201.5 -112t144 -188z" />
    <glyph glyph-name="maitaikhuthai" unicode="&#xe47;" 
d="M-1716 4339h1198q20 0 34.5 -14.5t14.5 -34.5v-148q0 -20 -14.5 -34t-34.5 -14h-1065q-57 0 -82.5 -26.5t-25.5 -79.5v-335q0 -78 44 -124t122 -46q73 0 119.5 47t46.5 109v179q0 21 13.5 35.5t33.5 14.5h169q20 0 33.5 -14.5t13.5 -35.5v-179q0 -58 48 -107t118 -49
q77 0 121 46.5t44 123.5v165q0 20 14.5 35t34.5 15h198q20 0 34.5 -14t14.5 -34v-184q0 -181 -110.5 -287.5t-305.5 -106.5q-68 0 -134.5 21.5t-124 69.5t-84.5 115q-28 -67 -85.5 -115t-123.5 -69.5t-135 -21.5q-196 0 -305.5 106.5t-109.5 287.5v435q0 115 76 191.5
t195 76.5z" />
    <glyph glyph-name="maiekthai" unicode="&#xe48;" 
d="M-674 5459h284q20 0 35 -14t15 -34v-785q0 -20 -15 -34.5t-35 -14.5h-284q-20 0 -33.5 14.5t-13.5 34.5v785q0 20 13.5 34t33.5 14z" />
    <glyph glyph-name="maithothai" unicode="&#xe49;" 
d="M-1162 4577q-20 0 -34 14.5t-14 34.5v475h-270q-20 0 -34 14t-14 34v233q0 20 14 34.5t34 14.5h603q20 0 34 -14.5t14 -34.5v-475h55q230 0 376.5 127.5t146.5 347.5q0 20 14 34.5t34 14.5h285q20 0 34 -14.5t14 -34.5q0 -182 -65.5 -334t-180 -254.5t-271 -159.5
t-336.5 -57h-439z" />
    <glyph glyph-name="maitrithai" unicode="&#xe4a;" 
d="M-1020 5303q37 91 121 138.5t182 47.5q184 0 278.5 -98t94.5 -263l-2 -257h203q19 0 34 -15t15 -35v-181q0 -20 -15 -34.5t-34 -14.5h-432q-20 0 -33.5 14.5t-13.5 34.5l-2 473q0 77 -30.5 114.5t-102.5 37.5q-67 0 -100 -40.5t-33 -111.5v-26q0 -20 -15 -34.5t-35 -14.5
h-156q-20 0 -33.5 14.5t-13.5 34.5v26q0 152 -133 152q-72 0 -102.5 -36.5t-30.5 -115.5v-191q0 -51 24.5 -77t79.5 -26h114q14 0 25.5 -12t11.5 -26v-144q0 -19 -13 -32.5t-32 -13.5h-233q-114 0 -185.5 72.5t-71.5 182.5v282q0 165 93.5 263t276.5 98q97 0 180 -47.5
t119 -138.5z" />
    <glyph glyph-name="maichattawathai" unicode="&#xe4b;" 
d="M-725 5166v245q0 20 14 34t34 14h284q20 0 35 -14t15 -34v-245h244q20 0 34 -14t14 -34v-199q0 -20 -14 -34t-34 -14h-244v-245q0 -20 -15 -34.5t-35 -14.5h-284q-20 0 -34 14.5t-14 34.5v245h-244q-20 0 -34.5 14t-14.5 34v199q0 20 14.5 34t34.5 14h244z" />
    <glyph glyph-name="thanthakhatthai" unicode="&#xe4c;" 
d="M-728 4811h692q20 0 34 -14t14 -34v-234q0 -20 -14 -34t-34 -14h-505q-123 0 -191.5 -66.5t-68.5 -195.5v-258q0 -20 -15 -34.5t-35 -14.5h-283q-20 0 -34 14.5t-14 34.5v395q0 206 127 330.5t327 124.5z" />
    <glyph glyph-name="nikhahitthai" unicode="&#xe4d;" 
d="M-512 4179q501 0 501 -381v-193q0 -393 -501 -393q-250 0 -375.5 96.5t-125.5 296.5v193q0 381 501 381zM-512 3918q-205 0 -205 -180v-73q0 -190 205 -190t205 190v73q0 180 -205 180z" />
    <glyph glyph-name="yamakkanthai" unicode="&#xe4e;" 
d="M-310 4578l342 -1q20 0 34.5 -14t14.5 -34v-233q0 -20 -14.5 -34.5t-34.5 -14.5l-214 1q-123 0 -192 -66.5t-69 -195.5v-156q0 -20 -14.5 -34t-33.5 -14h-233q-123 0 -192 -66.5t-69 -195.5v-257q0 -20 -14.5 -34.5t-33.5 -14.5l-285 1q-20 0 -34 14t-14 34v350
q0 206 127 330.5t328 124.5h146v55q0 206 127.5 330.5t327.5 124.5z" />
    <glyph glyph-name="fongmanthai" unicode="&#xe4f;" horiz-adv-x="3318" 
d="M1660 1936q-245 0 -376.5 -81t-131.5 -246v-489q0 -165 132 -246.5t376 -81.5q245 0 377.5 81.5t132.5 246.5v489q0 165 -132.5 246t-377.5 81zM1660 2797q435 0 738.5 -100t465.5 -304.5t162 -504.5v-1046q0 -300 -162 -504.5t-466 -305t-738 -100.5q-656 0 -1010 230.5
t-354 679.5v1046q0 449 354 679t1010 230zM1660 2571q-550 0 -843 -179t-293 -530v-994q0 -351 293 -530t843 -179t844 179.5t294 529.5v994q0 350 -294 529.5t-844 179.5zM1660 2140q349 0 538.5 -125t189.5 -367v-568q0 -242 -189 -366.5t-539 -124.5t-538.5 124.5
t-188.5 366.5v568q0 243 188.5 367.5t538.5 124.5z" />
    <glyph glyph-name="zerothai" unicode="&#xe50;" horiz-adv-x="2736" 
d="M2047 768v739q0 246 -182 385t-495 139q-319 0 -497.5 -138t-178.5 -386v-739q0 -248 178.5 -386t497.5 -138q320 0 498.5 138.5t178.5 385.5zM2445 1533v-791q0 -387 -278 -599t-797 -212t-796.5 212t-277.5 599v791q0 387 277.5 598.5t796.5 211.5q520 0 797.5 -212
t277.5 -598z" />
    <glyph glyph-name="onethai" unicode="&#xe51;" horiz-adv-x="2767" 
d="M1356 865q0 -20 -14.5 -34t-34.5 -14h-455q-259 0 -407.5 150t-148.5 411v163q0 387 276.5 594.5t797.5 207.5q519 0 797 -213t278 -601v-1239q0 -388 -278 -601t-797 -213t-796.5 213t-277.5 601v160q0 20 14 34t34 14h302q20 0 34 -14t14 -34v-138q0 -247 178 -385
t498 -138t498.5 138t178.5 385v1195q0 246 -182 385t-495 139q-324 0 -500 -140.5t-176 -383.5v-103q0 -149 83.5 -233t234.5 -84h295q20 0 34.5 -15t14.5 -35v-172z" />
    <glyph glyph-name="twothai" unicode="&#xe52;" horiz-adv-x="3691" 
d="M691 3185q20 0 34.5 -14.5t14.5 -34.5v-2167q0 -373 276.5 -549t854.5 -176t854.5 176t276.5 549v740q0 313 -311 313q-142 0 -226 -82.5t-84 -230.5v-341q0 -20 -14.5 -34.5t-34.5 -14.5h-200q-20 0 -33.5 14.5t-13.5 34.5v375q1 131 -78 205t-217 74q-141 0 -214.5 -75
t-73.5 -204v-487q0 -108 53.5 -158.5t164.5 -50.5h312q20 0 34.5 -14.5t14.5 -34.5v-198q0 -20 -14.5 -34.5t-34.5 -14.5h-397h-6q-215 0 -336.5 104.5t-121.5 282.5v681q0 236 146.5 380t399.5 144q186 0 320.5 -78t198.5 -211q67 132 197 210.5t316 78.5
q145 0 259.5 -32.5t186.5 -86t119.5 -127t66.5 -150t19 -161.5v-834q0 -517 -372.5 -769t-1156.5 -252t-1157.5 252t-373.5 769v2184q0 20 15 34.5t35 14.5h301z" />
    <glyph glyph-name="threethai" unicode="&#xe53;" horiz-adv-x="3009" 
d="M1484 2035q132 308 566 308q298 0 460.5 -159.5t162.5 -465.5v-1669q0 -20 -14.5 -34.5t-34.5 -14.5h-302q-20 0 -34.5 14.5t-14.5 34.5l3 1669q0 156 -86 234.5t-238 78.5q-153 0 -236 -79t-83 -234v-215q0 -20 -14.5 -33.5t-34.5 -13.5h-198q-20 0 -34.5 13.5
t-14.5 33.5v215q0 154 -84.5 233.5t-237.5 79.5q-151 0 -236 -78.5t-85 -234.5v-1126q0 -134 71.5 -206.5t207.5 -72.5h224q20 0 34.5 -14.5t14.5 -34.5v-215q0 -20 -14.5 -34.5t-34.5 -14.5h-412q-220 0 -354.5 137.5t-134.5 351.5v1229q0 306 162 465.5t460 159.5
q433 0 566 -308z" />
    <glyph glyph-name="fourthai" unicode="&#xe54;" horiz-adv-x="2709" 
d="M2047 3136q0 20 14 34.5t34 14.5h301q20 0 34.5 -14.5t14.5 -34.5v-628q0 -146 -74 -272t-200 -200t-272 -74h-750q-221 0 -338 -114t-117 -341v-879q0 -181 115 -282.5t319 -101.5q198 0 315.5 109.5t117.5 274.5l-1 327q0 146 74 272.5t200 200.5t272 74h290
q20 0 34.5 -14t14.5 -34v-149q0 -20 -14.5 -34t-34.5 -14h-102q-64 0 -123 -21.5t-107 -62t-77 -106t-29 -146.5l2 -372q0 -110 63 -173t172 -63h202q20 0 34 -14t14 -34v-217q0 -20 -14 -34t-34 -14h-389q-144 0 -247 67.5t-150 180.5q-86 -146 -249 -231.5t-371 -85.5
q-163 0 -296 48.5t-219.5 132t-133 194t-46.5 236.5v999q0 361 190 547.5t544 186.5h683q137 0 235.5 96.5t98.5 238.5v526z" />
    <glyph glyph-name="fivethai" unicode="&#xe55;" horiz-adv-x="2709" 
d="M1376 2649v76q0 95 -54.5 142t-167.5 47t-167.5 -47t-54.5 -142v-76q0 -205 222 -205t222 205zM1655 2778v-182q0 -225 -170 -321h227q137 0 236 97t99 238v526q0 20 14.5 34.5t34.5 14.5h301q20 0 33.5 -14.5t13.5 -34.5v-628q0 -147 -73.5 -272.5t-199 -199.5
t-271.5 -74h-752q-221 0 -337.5 -113.5t-116.5 -340.5v-880q0 -181 115.5 -282.5t318.5 -101.5q197 0 315.5 110t118.5 274l-2 327q0 146 74 272.5t200 200.5t272 74h291q20 0 33.5 -14.5t13.5 -34.5v-149q0 -20 -13.5 -33.5t-33.5 -13.5h-102q-64 0 -123.5 -21.5
t-107.5 -61.5t-76.5 -105.5t-28.5 -146.5l1 -374q0 -110 63 -172.5t172 -62.5h202q20 0 33.5 -14.5t13.5 -34.5v-215q0 -20 -13.5 -34.5t-33.5 -14.5h-390q-145 0 -247 67.5t-149 182.5q-86 -147 -249 -233t-371 -86q-163 0 -296 49t-219.5 133t-133 194.5t-46.5 235.5v998
q0 311 142.5 493.5t411.5 226.5q-196 92 -196 335v182q0 390 500 390q501 0 501 -390z" />
    <glyph glyph-name="sixthai" unicode="&#xe56;" horiz-adv-x="2847" 
d="M1597 2343q454 0 705 -202t251 -566v-876q0 -366 -277.5 -567t-796.5 -201t-797 201t-278 567v88q0 20 14 34t34 14h302q20 0 34 -14t14 -34v-28q0 -243 179 -379t498 -136t497.5 136t178.5 379v757q0 242 -181.5 378.5t-494.5 136.5q-319 0 -498 -136t-179 -379v-23
q0 -20 -14 -34.5t-34 -14.5h-302q-20 0 -34 14.5t-14 34.5l1 1100q0 133 -72 206t-208 73h-31q-20 0 -35 14t-15 34l2 216q0 20 14 34.5t34 14.5h219q220 0 354.5 -137.5t134.5 -351.5v-678q112 158 314 241.5t481 83.5z" />
    <glyph glyph-name="seventhai" unicode="&#xe57;" horiz-adv-x="4076" 
d="M2673 313h395q136 0 207 72.5t71 206.5v2544q0 20 14 34.5t34 14.5h301q20 0 34.5 -14.5t14.5 -34.5v-2647q0 -214 -134 -351.5t-354 -137.5h-934q-20 0 -34.5 14.5t-14.5 34.5l3 1669q0 156 -86 234.5t-238 78.5q-153 0 -236 -79t-83 -234v-215q0 -20 -15 -33.5
t-35 -13.5h-197q-20 0 -34.5 13.5t-14.5 33.5v215q0 154 -84.5 233.5t-237.5 79.5q-151 0 -236 -78.5t-85 -234.5v-1126q0 -134 71.5 -206.5t207.5 -72.5h224q20 0 34.5 -14.5t14.5 -34.5v-215q0 -20 -14.5 -34.5t-34.5 -14.5h-412q-220 0 -354.5 137.5t-134.5 351.5v1229
q0 306 162 465.5t460 159.5q433 0 566 -308q132 308 566 308q298 0 460.5 -159.5t162.5 -465.5v-1405z" />
    <glyph glyph-name="eightthai" unicode="&#xe58;" horiz-adv-x="2965" 
d="M1030 2275h909q137 0 235.5 97t98.5 238v526q0 20 14 34.5t34 14.5h301q20 0 34.5 -14.5t14.5 -34.5v-628q0 -146 -74 -272t-200 -200t-272 -74h-977q-220 0 -337 -114.5t-117 -341.5v-905q0 -156 85 -234.5t236 -78.5q153 0 237.5 79.5t84.5 233.5v178q0 20 14.5 34
t34.5 14h197q20 0 35 -14t15 -34v-178q0 -154 84 -233.5t237 -79.5q151 0 235 78t84 235l2 266q0 117 -62.5 180.5t-182.5 63.5h-216q-20 0 -34 15t-14 35v189q0 20 14 34.5t34 14.5h404q204 0 329.5 -128t125.5 -327v-343q0 -306 -162.5 -466t-460.5 -160q-432 0 -566 307
q-133 -307 -565 -307q-298 0 -460.5 160t-162.5 466v940q0 360 190.5 547t543.5 187z" />
    <glyph glyph-name="ninethai" unicode="&#xe59;" horiz-adv-x="3420" 
d="M1186 2343q432 0 660.5 -196t228.5 -557v-84h376q136 0 207.5 73t71.5 206l-1 1351q0 20 14 34.5t34 14.5h302q20 0 34.5 -14.5t14.5 -34.5v-1453q0 -214 -135 -352t-354 -138h-564v-1145q0 -20 -14.5 -34t-33.5 -14h-300q-19 0 -34.5 14t-15.5 34v1542q0 207 -131.5 324
t-359.5 117q-232 0 -362 -116.5t-130 -324.5v-998q0 -133 71.5 -206t207.5 -73h190q20 0 34 -14t14 -34v-217q0 -20 -14 -34t-34 -14h-378q-219 0 -354 138t-135 352v1100q0 360 228.5 556.5t661.5 196.5z" />
    <glyph glyph-name="angkhankhuthai" unicode="&#xe5a;" horiz-adv-x="3773" 
d="M3068 0q-20 0 -34 14t-14 34v2634q0 20 14 34t34 14h317q20 0 35 -14t15 -34v-2634q0 -19 -15 -33.5t-35 -14.5h-317zM2142 0q-20 0 -34 14t-14 34v1499q-110 -165 -310 -253t-480 -88q-243 0 -435 68.5t-317 192.5t-190.5 294.5t-65.5 377.5v543q0 20 14 34t34 14h319
q20 0 34 -14t14 -34v-509q0 -299 185 -468.5t511 -169.5q337 0 512 167t175 471v509q0 20 14 34t34 14h317q20 0 34 -14t14 -34v-2634q0 -20 -14.5 -34t-33.5 -14h-317z" />
    <glyph glyph-name="khomutthai" unicode="&#xe5b;" horiz-adv-x="5331" 
d="M1447 2799q1151 0 1151 -1022q0 -19 -14 -33.5t-34 -14.5h-317q-21 0 -35.5 13.5t-14.5 34.5q0 692 -736 692t-736 -692v-824q0 -692 736 -692t736 692v363q0 20 15 34t35 14h317q20 0 34 -14t14 -34v-157q0 -593 604 -593q606 0 606 593v157q0 20 14 34t34 14h301
q20 0 34 -14t14 -34v-57q0 -275 134 -404t394 -129h242q20 0 35 -14.5t15 -34.5v-234q0 -20 -15 -34t-35 -14h-208q-573 0 -749 409q-68 -286 -271.5 -427.5t-552.5 -141.5q-569 0 -763 405q-40 -183 -129.5 -318.5t-225 -221t-309 -127.5t-388.5 -42q-1083 0 -1083 1022
v824q0 1022 1151 1022z" />
    <glyph glyph-name="sarauthai.low" 
d="M-654 -1877q138 0 226 -89t88 -224v-746q0 -20 -15 -35t-35 -15h-284q-19 0 -33.5 15t-14.5 35v611q0 54 -31.5 86t-88.5 32h-161q-20 0 -34 14.5t-14 34.5v233q0 20 14 34t34 14h349z" />
    <glyph glyph-name="sarauuthai.low" 
d="M-1399 -1877q138 0 225 -89t87 -224v-466h279q57 0 88.5 33t31.5 87v611q0 20 14 34t34 14h250q20 0 35 -14t15 -34v-747q0 -135 -88 -224.5t-226 -89.5h-730q-20 0 -35 15t-15 35l2 611q0 54 -31.5 86t-88.5 32h-162q-19 0 -33.5 14.5t-14.5 34.5v233q0 20 14 34t34 14
h315z" />
    <glyph glyph-name="phinthuthai.low" 
d="M-594 -1877q113 0 183.5 -67t70.5 -178t-70.5 -177.5t-183.5 -66.5t-183 66.5t-70 177.5t70 178t183 67z" />
    <glyph glyph-name="lochulathai.short" horiz-adv-x="3893" 
d="M390 2730h318q20 0 34 -14t14 -34v-1940q0 -229 119.5 -355t372.5 -126q246 0 369 127t123 354v1940q0 20 14.5 34t34.5 14h318q20 0 34 -14t14 -34v-1940q0 -229 119.5 -355t372.5 -126q254 0 373.5 126t119.5 355v835q0 138 -93.5 235t-225.5 97h-33q-20 0 -34 14
t-14 34v147q0 20 15 34t35 14l31 2q132 0 225.5 98.5t93.5 233.5v196q0 20 14 34t34 14h317q20 0 35 -14t15 -34v-162q0 -159 -83.5 -290.5t-221.5 -199.5q137 -69 221 -200t84 -288v-800q0 -392 -206 -601.5t-626 -209.5q-620 0 -777 445q-80 -217 -272 -331t-501 -114
q-420 0 -626.5 209.5t-206.5 601.5v1940q0 20 15 34t35 14z" />
    <glyph glyph-name="saraamthai.left" horiz-adv-x="2232" 
d="M-1468 4179q501 0 501 -381v-193q0 -393 -501 -393q-250 0 -375 96t-125 297v193q0 381 500 381zM-1468 3918q-205 0 -205 -180v-73q0 -190 205 -190t205 190v73q0 180 -205 180zM969 2799q458 0 691 -201.5t233 -617.5v-1932q0 -20 -13.5 -34t-33.5 -14h-319
q-20 0 -34.5 14t-14.5 34v1932q0 254 -130 371.5t-379 117.5t-379 -116.5t-130 -372.5q0 -20 -14 -35t-34 -15h-318q-20 0 -35 15t-15 35q0 408 237.5 613.5t687.5 205.5z" />
    <glyph glyph-name="yamakkanthai.left" 
d="M-806 4578l344 -1q20 0 34 -14t14 -34v-233q0 -20 -14.5 -34.5t-33.5 -14.5l-215 1q-123 0 -192 -66.5t-69 -195.5v-156q0 -19 -14.5 -33.5t-34.5 -14.5h-232q-123 0 -192 -66.5t-69 -195.5v-257q0 -19 -15 -34t-34 -15l-283 1q-20 0 -34.5 14t-14.5 34v350
q0 206 127 330.5t328 124.5h145v55q0 206 127.5 330.5t327.5 124.5z" />
    <glyph glyph-name="onequarter" unicode="&#xbc;" horiz-adv-x="3638" 
d="M3111 1565h204q14 0 24 -9.5t10 -23.5v-1499q0 -14 -10 -23.5t-24 -9.5h-204q-14 0 -23.5 9.5t-9.5 23.5v349h-943q-14 0 -24 9.5t-10 23.5v119q0 9 1 14l335 1240q9 31 42 31h216q11 0 19.5 -9.5t4.5 -21.5l-320 -1183h679v927q0 14 9.5 23.5t23.5 9.5zM644 2868
l-184 -182q-8 -8 -20 -8t-19 8l-116 119q-9 9 -9 19q0 11 9 20l325 327q14 14 34 14h218q14 0 23.5 -10.5t9.5 -24.5v-1751q0 -14 -9.5 -24.5t-23.5 -10.5h-205q-13 0 -23 10.5t-10 24.5v1469zM2468 3185h223q21 0 35 -20t1 -41l-1791 -3100q-14 -24 -41 -24h-224
q-21 0 -34 18.5t0 40.5l1789 3100q16 26 42 26z" />
    <glyph glyph-name="onehalf" unicode="&#xbd;" horiz-adv-x="3709" 
d="M2765 1888q323 0 481 -141.5t158 -393.5q0 -141 -57.5 -247.5t-183.5 -227.5l-656 -653h911q14 0 24 -10t10 -24v-157q0 -14 -10 -24t-24 -10h-1306q-11 0 -19.5 8.5t-8.5 19.5v125q0 21 15 35l920 907q56 54 83 113t27 135q0 153 -91.5 236.5t-272.5 83.5
q-197 0 -277.5 -86.5t-80.5 -251.5v-40q0 -14 -10 -24t-24 -10h-207q-14 0 -23.5 10t-9.5 24v24q0 290 152 434.5t480 144.5zM644 2868l-184 -182q-8 -8 -20 -8t-19 8l-116 119q-9 9 -9 19q0 11 9 20l325 327q14 14 34 14h218q14 0 23.5 -10.5t9.5 -24.5v-1751
q0 -14 -9.5 -24.5t-23.5 -10.5h-205q-13 0 -23 10.5t-10 24.5v1469zM2468 3185h223q28 0 38 -20.5t-3 -40.5l-1790 -3100q-14 -24 -41 -24h-224q-19 0 -31.5 21.5t-2.5 37.5l1789 3100q16 26 42 26z" />
    <glyph glyph-name="threequarters" unicode="&#xbe;" horiz-adv-x="4058" 
d="M3517 1565h205q14 0 23.5 -9.5t9.5 -23.5v-1499q0 -14 -9.5 -23.5t-23.5 -9.5h-205q-14 0 -23.5 9.5t-9.5 23.5v349h-942q-14 0 -24 9.5t-10 23.5v119q0 4 2 14l335 1240q9 31 42 31h214q11 0 20 -9.5t5 -21.5l-320 -1183h678v927q0 14 9.5 23.5t23.5 9.5zM965 3252
q336 0 504.5 -131.5t168.5 -425.5q0 -146 -64 -260.5t-186 -164.5q122 -50 186 -161.5t64 -254.5q0 -285 -170.5 -421t-502.5 -136q-329 0 -499 148t-170 448v24q0 14 10 24t24 10h210q14 0 24 -10t10 -24v-24q0 -190 99.5 -279t291.5 -89q195 0 294.5 77.5t99.5 251.5
q0 134 -83 220.5t-227 86.5h-206q-14 0 -24.5 10.5t-10.5 24.5v157q0 14 10.5 25.5t24.5 11.5h206q145 0 227.5 85.5t82.5 219.5q0 181 -98 255t-296 74q-196 0 -293.5 -87t-97.5 -295v-30q0 -11 -9 -19.5t-20 -8.5h-221q-11 0 -19.5 8.5t-8.5 19.5v30q0 316 168 463
t501 147zM2875 3185h223q21 0 34 -20t0 -41l-1790 -3100q-14 -24 -42 -24h-223q-21 0 -34 18.5t0 40.5l1790 3100q16 26 42 26z" />
    <glyph glyph-name="questiondown" unicode="&#xbf;" horiz-adv-x="2756" 
d="M1236 1606h266q20 0 34 -14t14 -34v-282q0 -170 -54.5 -284t-189.5 -233l-414 -346q-198 -171 -198 -462q0 -132 37.5 -235.5t117 -182.5t213.5 -121.5t316 -42.5q364 0 533 168t169 489v30q0 20 14 34t34 14h303q20 0 33.5 -14t13.5 -34v-30q0 -243 -64.5 -427
t-198 -313.5t-345.5 -196t-501 -66.5q-229 0 -410 43t-304.5 121t-204.5 191.5t-117.5 249t-36.5 298.5q0 240 84.5 407t266.5 316l386 328q154 131 154 359v222q0 20 14.5 34t34.5 14zM1369 2343q109 0 177 -64t68 -172t-68 -172t-177 -64t-176.5 64t-67.5 172t67.5 172
t176.5 64z" />
    <glyph glyph-name="ae" unicode="&#xe6;" horiz-adv-x="4098" 
d="M2918 2343q442 0 676.5 -193.5t234.5 -573.5v-449q0 -20 -14 -34.5t-33 -14.5h-1522v-336q0 -245 154 -371.5t433 -126.5t432 126.5t153 371.5v22q0 20 14.5 35t34.5 15h301q20 0 33.5 -14.5t13.5 -35.5v-69q0 -379 -234 -571.5t-677 -192.5q-338 0 -556.5 113
t-304.5 337q-65 -147 -197.5 -249t-308 -151.5t-384.5 -49.5q-237 0 -423 59.5t-303 165t-177.5 244.5t-60.5 304q0 377 254.5 576t748.5 199q376 0 657 -116v143q0 245 -178.5 384t-526.5 139q-121 0 -236.5 -18.5t-206.5 -49t-155.5 -59.5t-117.5 -60q-19 -10 -39 2
q-18 10 -18 33l-2 232q0 29 22 43q49 31 110.5 59.5t152 60t209.5 50.5t246 19q351 0 593 -118.5t340 -334.5q85 226 304 340.5t558 114.5zM1863 1106q-246 111 -589 111q-335 0 -504.5 -122.5t-169.5 -363.5q0 -220 152.5 -353.5t444.5 -133.5q99 0 193.5 19t180.5 59
t151 96.5t103 138.5t38 179v370zM3432 1374v159q0 245 -153 371.5t-432 126.5t-433 -126.5t-154 -371.5v-159h1172z" />
    <glyph glyph-name="oslash" unicode="&#xf8;" horiz-adv-x="2554" 
d="M1864 742v791q0 161 -68 273l-862 -1493q138 -69 345 -69q280 0 432.5 126.5t152.5 371.5zM2263 1575v-876q0 -380 -252.5 -574t-731.5 -194q-306 0 -520 79l-154 -266q-9 -17 -28 -22.5t-38 4.5l-112 65q-17 9 -22.5 28t4.5 38l150 260q-263 195 -263 582v876
q0 380 252 574t731 194q305 0 519 -79l154 267q9 17 28.5 22.5t38.5 -4.5l113 -65q17 -9 22.5 -28t-4.5 -38l-151 -261q264 -195 264 -582zM762 469l862 1493q-139 69 -345 69q-280 0 -432.5 -126.5t-152.5 -371.5v-791q0 -162 68 -273z" />
    <glyph glyph-name="oe" unicode="&#x153;" horiz-adv-x="4127" 
d="M1278 2031q-279 0 -431.5 -126.5t-152.5 -371.5v-791q0 -245 152.5 -371.5t431.5 -126.5t433 126.5t154 371.5v791q0 245 -154 371.5t-433 126.5zM2920 2343q443 0 678 -193.5t235 -573.5v-383q0 -48 -14.5 -81.5t-34.5 -33.5h-1520v-336q0 -245 153 -371.5t432 -126.5
t432.5 126.5t153.5 371.5v22q0 20 14 35t34 15h301q20 0 34.5 -15t14.5 -35v-65q0 -380 -235.5 -574t-677.5 -194q-333 0 -550.5 110.5t-304.5 329.5q-88 -219 -305.5 -329.5t-550.5 -110.5q-442 0 -677.5 194t-235.5 574v877q0 380 235 573.5t678 193.5q333 0 550.5 -110.5
t304.5 -328.5q88 218 305.5 328.5t550.5 110.5zM3435 1374v159q0 245 -153.5 371.5t-432.5 126.5t-432 -126.5t-153 -371.5v-159h1171z" />
    <glyph glyph-name="thorn" unicode="&#xfe;" horiz-adv-x="2601" 
d="M1460 2343q403 0 626 -195.5t223 -572.5v-876q0 -378 -221 -573t-628 -195q-520 0 -721 289v-1081q0 -20 -14 -35t-34 -15h-301q-20 0 -35 15t-15 35v3997q0 20 15 34.5t35 14.5h301q20 0 34 -14.5t14 -34.5v-1082q201 289 721 289zM1324 2031q-280 0 -432.5 -126.5
t-152.5 -371.5v-791q0 -245 152.5 -371.5t432.5 -126.5t433.5 126.5t153.5 371.5v791q0 245 -153.5 371.5t-433.5 126.5z" />
    <glyph glyph-name="lslash" unicode="&#x142;" horiz-adv-x="1181" 
d="M438 3185h303q20 0 34 -14.5t14 -34.5v-1298l207 120q19 10 38 4.5t28 -22.5l65 -114q8 -14 8 -24q0 -26 -25 -42l-321 -185v-1528q0 -20 -14 -34t-34 -14h-303q-20 0 -34 14t-14 34v1298l-206 -119q-19 -10 -38 -4.5t-28 22.5l-66 112q-6 11 -6 25q0 26 24 41l320 185
v1529q0 20 14 34.5t34 14.5z" />
    <glyph glyph-name="germandbls" unicode="&#xdf;" horiz-adv-x="2827" 
d="M1167 265q0 20 14 34t34 14h440q229 0 355.5 113.5t126.5 341.5v369q0 216 -136.5 350t-367.5 134h-429q-20 0 -35 14t-15 34v216q0 20 15 34.5t35 14.5h343q66 0 128.5 19t116 56.5t86.5 102.5t33 149v238q0 214 -152.5 327t-448.5 113q-571 0 -571 -440v-2451
q0 -20 -14 -34t-34 -14h-301q-20 0 -35 14t-15 34v2493q0 711 972 711q500 0 748.5 -182.5t248.5 -528.5v-264q0 -168 -79.5 -290.5t-245.5 -188.5q126 -34 227 -94t174 -145t112 -199t39 -249v-377q0 -362 -206.5 -548t-581.5 -186h-533q-20 0 -34 14t-14 34v217z" />
    <glyph glyph-name="dotlessi" unicode="&#x131;" horiz-adv-x="1077" 
d="M390 2275h301q20 0 34 -14t14 -34v-2179q0 -20 -14 -34t-34 -14h-301q-20 0 -35 14t-15 34v2179q0 20 15 34t35 14z" />
    <glyph glyph-name="AE" unicode="&#xc6;" horiz-adv-x="4664" 
d="M1353 3185h3171q20 0 34 -14.5t14 -34.5v-250q0 -19 -14.5 -33.5t-33.5 -14.5h-1659v-1073h1204q19 0 33.5 -14.5t14.5 -33.5v-249q0 -19 -14.5 -34t-33.5 -15h-1204v-1072h1659q20 0 34 -14.5t14 -33.5v-251q0 -20 -14 -34t-34 -14h-2058q-13 0 -22.5 9t-9.5 22v990
h-1549l-393 -989q-13 -32 -45 -32h-361q-16 0 -29 12t-13 28q0 2 4 14l1260 3099q13 32 45 32zM2434 1364v1474h-827l-586 -1474h1413z" />
    <glyph glyph-name="Oslash" unicode="&#xd8;" horiz-adv-x="3183" 
d="M2559 3398l114 -66q18 -10 23 -29t-5 -37l-157 -271q354 -278 354 -834v-1137q0 -542 -332.5 -817.5t-963.5 -275.5q-449 0 -747 139l-154 -266q-10 -18 -29 -22.5t-37 5.5l-114 65q-16 9 -21 28t5 38l156 270q-355 278 -355 836v1137q0 542 332.5 816.5t963.5 274.5
q449 0 747 -139l154 267q9 17 28 22.5t38 -4.5zM2456 1058v1069q0 299 -141 488l-1273 -2204q212 -133 550 -133q411 0 637.5 198.5t226.5 581.5zM870 569l1272 2203q-212 133 -550 133q-411 0 -637 -197.5t-226 -580.5v-1069q0 -299 141 -489z" />
    <glyph glyph-name="OE" unicode="&#x152;" horiz-adv-x="4689" 
d="M1587 2838q-410 0 -634.5 -198t-224.5 -582v-932q0 -384 224.5 -581.5t634.5 -197.5h869v2491h-869zM4547 347q20 0 34 -14t14 -34v-251q0 -20 -14 -34t-34 -14h-3011q-606 0 -923 277.5t-317 815.5v999q0 539 317.5 816t922.5 277h3011q20 0 34 -14.5t14 -34.5v-250
q0 -20 -14.5 -34t-33.5 -14h-1659v-1073h1203q19 0 33.5 -14.5t14.5 -33.5v-249q0 -19 -14.5 -34t-33.5 -15h-1203v-1072h1659z" />
    <glyph glyph-name="Thorn" unicode="&#xde;" horiz-adv-x="3067" 
d="M344 3185h337q20 0 33.5 -14.5t13.5 -34.5v-406h1278q238 0 419 -99.5t279.5 -280.5t98.5 -418v-681q0 -247 -100 -427.5t-284.5 -274.5t-433.5 -94h-1257v-407q0 -20 -13.5 -34t-33.5 -14h-337q-20 0 -34 14t-14 34v3088q0 20 14 34.5t34 14.5zM728 2383v-1581h1095
q256 0 402.5 142t145.5 392v512q0 245 -144 390t-390 145h-1109z" />
    <glyph glyph-name="Lslash" unicode="&#x141;" horiz-adv-x="2572" 
d="M441 3185h336q20 0 33.5 -14.5t13.5 -34.5v-1353l513 297q19 10 38.5 4.5t28.5 -22.5l64 -113q11 -19 5.5 -38t-21.5 -28l-628 -362v-1174h1658q20 0 34 -14t14 -34v-251q0 -20 -14 -34t-34 -14h-2041q-20 0 -34.5 14t-14.5 34v1224l-217 -125q-19 -11 -38 -5t-28 22
l-64 113q-8 14 -8 24q0 25 26 42l329 190v1603q0 20 14.5 34.5t34.5 14.5z" />
    <glyph glyph-name="quotereversed" unicode="&#x201b;" horiz-adv-x="1226" 
d="M344 3185h324q18 0 31.5 -11.5t16.5 -29.5l221 -1155q0 -1 1 -4t1 -4q0 -20 -15.5 -34t-34.5 -14h-220q-16 0 -29.5 10t-17.5 26l-325 1154q-1 4 -1 13q0 20 14.5 34.5t33.5 14.5z" />
    <glyph glyph-name="quotesinglbase" unicode="&#x201a;" horiz-adv-x="1226" 
d="M565 412h324q19 0 34.5 -14t15.5 -34q0 -4 -2 -12l-327 -1155q-5 -16 -17 -26t-28 -10h-221q-19 0 -33.5 14.5t-14.5 34.5v6l221 1157q3 18 16.5 28.5t31.5 10.5z" />
    <glyph glyph-name="quotedblbase" unicode="&#x201e;" horiz-adv-x="1976" 
d="M565 412h324q19 0 34.5 -14t15.5 -34q0 -4 -2 -12l-327 -1155q-5 -16 -17 -26t-28 -10h-221q-19 0 -33.5 14.5t-14.5 34.5v6l221 1157q3 18 16.5 28.5t31.5 10.5zM1308 412h324q19 0 33.5 -14t14.5 -34v-12l-327 -1155q-4 -16 -17.5 -26t-29.5 -10h-219q-19 0 -34 14.5
t-15 34.5q0 2 0.5 3t0.5 3l221 1157q3 18 16.5 28.5t31.5 10.5z" />
    <glyph glyph-name="cent" unicode="&#xa2;" horiz-adv-x="2554" 
d="M1214 2730h131q20 0 34 -14t14 -34v-342q594 -31 785 -378q85 -156 85 -369v-66q0 -20 -14 -34.5t-34 -14.5h-302q-20 0 -34 14.5t-14 34.5v23q0 237 -153 359t-433 122t-432.5 -122t-152.5 -359v-826q0 -237 152.5 -358.5t432.5 -121.5t433 121.5t153 358.5v23
q0 20 14 35t34 15h302q20 0 34 -15t14 -35v-65q0 -175 -57 -310.5t-167.5 -228.5t-272.5 -145.5t-373 -63.5v-341q0 -20 -14 -34t-34 -14h-131q-20 0 -34 14t-14 34v341q-425 22 -647.5 210.5t-222.5 537.5v911q0 349 222.5 537t647.5 210v342q0 20 14 34t34 14z" />
    <glyph glyph-name="Euro" unicode="&#x20ac;" horiz-adv-x="3216" 
d="M1626 3252q631 0 963.5 -274.5t332.5 -816.5v-65q0 -20 -14 -35t-34 -15h-334q-20 0 -34.5 15t-14.5 35v31q0 383 -226.5 580.5t-637.5 197.5t-637 -197.5t-226 -580.5v-57h871q20 0 34 -14t14 -34v-132q0 -20 -14 -34t-34 -14h-871v-501h871q20 0 34 -14t14 -34v-129
q0 -20 -14 -35t-34 -15h-871v-56q0 -383 226 -581.5t637 -198.5t637.5 198.5t226.5 581.5v31q0 20 14.5 34t34.5 14h334q20 0 34 -14t14 -34v-65q0 -542 -332.5 -817.5t-963.5 -275.5t-963.5 275.5t-332.5 817.5v90h-179q-20 0 -35 15t-15 35v129q0 20 15 34t35 14h179v501
h-179q-20 0 -35 14t-15 34v132q0 20 15 34t35 14h179v91q0 542 332.5 816.5t963.5 274.5z" />
    <glyph glyph-name="sterling" unicode="&#xa3;" horiz-adv-x="2943" 
d="M1557 3252q285 0 493.5 -66.5t340 -198t195 -319t63.5 -436.5v-31q0 -20 -14 -34t-34 -14h-334q-20 0 -35 14t-15 34v57q0 319 -159 483t-501 164q-172 0 -299 -41.5t-205.5 -120t-116.5 -185t-38 -243.5v-610h845q20 0 34 -14t14 -34v-130q0 -20 -14 -34.5t-34 -14.5
h-845v-1131h1703q20 0 34 -14t14 -34v-251q0 -20 -14 -34t-34 -14h-2456q-20 0 -34.5 14t-14.5 34v251q0 20 14.5 34t34.5 14h321v1131h-321q-20 0 -34.5 14.5t-14.5 34.5v130q0 20 14.5 34t34.5 14h321v626q0 213 63.5 380t194 289t341 187t492.5 65z" />
    <glyph glyph-name="yen" unicode="&#xa5;" horiz-adv-x="3238" 
d="M137 3185h375q49 0 73 -46l1036 -1815l1036 1815q11 20 31 33t42 13l375 -1q15 0 28 -11.5t13 -27.5q0 -5 -7 -21l-1168 -1986h733q20 0 34 -15t14 -35v-129q0 -20 -14 -34t-34 -14h-866v-288h866q20 0 34 -14t14 -34v-132q0 -20 -14 -34t-34 -14h-866v-347
q0 -19 -15.5 -33.5t-34.5 -14.5h-334q-19 0 -33.5 14t-14.5 34v347h-869q-20 0 -34 14t-14 34v132q0 20 14 34t34 14h869v288h-869q-20 0 -34 14t-14 34v129q0 20 14 35t34 15h735l-1170 1986q-6 14 -6 22q0 16 13 27.5t28 11.5z" />
    <glyph glyph-name="exclamdown" unicode="&#xa1;" horiz-adv-x="1077" 
d="M421 1598h237q20 0 34 -13.5t14 -33.5l45 -2411q1 -20 -13.5 -35.5t-34.5 -15.5h-327q-20 0 -34.5 15.5t-13.5 35.5l45 2411q0 20 14 33.5t34 13.5zM540 2343q109 0 177 -64t68 -172t-68 -172t-177 -64t-176.5 64t-67.5 172t67.5 172t176.5 64z" />
    <glyph glyph-name="guilsinglleft" unicode="&#x2039;" horiz-adv-x="1426" 
d="M1133 2243l-442 -1106l442 -1105q2 -8 2 -10q0 -9 -7 -15.5t-16 -6.5h-336q-36 0 -45 30l-428 1070q-7 13 -7 37t7 37l428 1071q9 30 45 30h336q9 0 16 -7t7 -16q0 -1 -2 -9z" />
    <glyph glyph-name="guilsinglright" unicode="&#x203a;" horiz-adv-x="1426" 
d="M297 2243q-1 4 -1 9q0 9 6.5 16t15.5 7h336q16 0 29 -8t17 -22l427 -1071q8 -15 8 -37t-8 -37l-427 -1070q-4 -14 -17 -22t-29 -8h-336q-9 0 -15.5 6.5t-6.5 15.5q0 6 1 10l443 1105z" />
    <glyph glyph-name="guillemotleft" unicode="&#xab;" horiz-adv-x="2276" 
d="M2001 2243l-442 -1106l442 -1105q2 -8 2 -10q0 -9 -6.5 -15.5t-15.5 -6.5h-338q-35 0 -44 30l-428 1070q-6 16 -6 37t6 37l428 1071q9 30 44 30h338q9 0 15.5 -7t6.5 -16q0 -1 -2 -9zM1133 2243l-442 -1106l442 -1105q2 -8 2 -10q0 -9 -7 -15.5t-16 -6.5h-336
q-36 0 -45 30l-428 1070q-7 19 -7 37t7 37l428 1071q9 30 45 30h336q9 0 16 -7t7 -16q0 -1 -2 -9z" />
    <glyph glyph-name="guillemotright" unicode="&#xbb;" horiz-adv-x="2276" 
d="M297 2243q-1 4 -1 9q0 9 6.5 16t15.5 7h336q16 0 29 -8t17 -22l427 -1071q8 -15 8 -37t-8 -37l-427 -1070q-4 -14 -17 -22t-29 -8h-336q-9 0 -15.5 6.5t-6.5 15.5q0 6 1 10l443 1105zM1166 2243q-1 4 -1 9q0 9 6.5 16t15.5 7h337q35 0 44 -30l428 -1071q7 -13 7 -37
t-7 -37l-428 -1070q-9 -30 -44 -30h-337q-8 0 -15 6.5t-7 15.5q0 6 1 10l442 1105z" />
    <glyph glyph-name="currency" unicode="&#xa4;" horiz-adv-x="2732" 
d="M1381 2360q173 0 331.5 -57t285.5 -161l294 294q14 14 34.5 14t34.5 -14l92 -91q14 -14 14 -35t-14 -35l-294 -294q104 -127 160.5 -285.5t56.5 -331.5t-56.5 -330.5t-160.5 -284.5l294 -294q14 -14 14 -35t-14 -35l-92 -92q-14 -14 -34.5 -14t-34.5 14l-294 295
q-127 -104 -285.5 -161t-331.5 -57t-331 57t-285 161l-294 -295q-14 -14 -34.5 -14t-34.5 14l-92 92q-14 14 -14 35t14 35l294 294q-104 128 -161 285.5t-57 329.5q0 173 57 331t161 286l-294 294q-14 14 -14 35t14 35l92 91q14 14 34.5 14t34.5 -14l294 -294
q127 104 285 161t331 57zM1381 2099q-149 0 -284.5 -58.5t-234 -157t-156.5 -234.5t-58 -285q0 -199 98.5 -367.5t267 -267t367.5 -98.5q149 0 285 58t234 156.5t156.5 234t58.5 284.5q0 199 -98.5 368t-267.5 268t-368 99z" />
    <glyph glyph-name="degree" unicode="&#xb0;" horiz-adv-x="1805" 
d="M904 3016q-154 0 -263 -109t-109 -263t109 -263t263 -109t263.5 109t109.5 263t-109.5 263t-263.5 109zM904 3252q165 0 305.5 -81.5t222 -221.5t81.5 -305t-81.5 -305t-222 -222t-305.5 -82t-305 82t-221.5 222t-81.5 305t81.5 305t221.5 221.5t305 81.5z" />
    <glyph glyph-name="plusminus" unicode="&#xb1;" horiz-adv-x="2578" 
d="M344 313h1894q20 0 34 -14t14 -34v-217q0 -20 -14 -34t-34 -14h-1894q-20 0 -34 14t-14 34v217q0 20 14 34t34 14zM1134 1798v791q0 20 14 34t34 14h218q20 0 34 -14t14 -34v-791h790q20 0 34 -14t14 -34v-215q0 -20 -14 -35t-34 -15h-790v-790q0 -20 -14 -34t-34 -14
h-218q-20 0 -34 14t-14 34v790h-790q-20 0 -34 15t-14 35v215q0 20 14 34t34 14h790z" />
    <glyph glyph-name="minus" unicode="&#x2212;" horiz-adv-x="2578" 
d="M344 1542h1894q20 0 34 -14t14 -34v-215q0 -20 -14 -35t-34 -15h-1894q-20 0 -34 15t-14 35v215q0 20 14 34t34 14z" />
    <glyph glyph-name="paragraph" unicode="&#xb6;" horiz-adv-x="2772" 
d="M1114 3185h579q20 0 34 -14.5t14 -34.5v-3997q0 -20 -14 -35t-34 -15h-303q-20 0 -34 15.5t-14 34.5v2225h-228q-185 0 -353.5 72.5t-290 194.5t-193.5 290.5t-72 353.5q0 148 46 287t130 251t195.5 196t250.5 130t287 46zM2286 3185h130q20 0 34 -14.5t14 -34.5v-3997
q0 -20 -14 -35t-34 -15h-130q-20 0 -34.5 15t-14.5 35v3997q0 20 14.5 34.5t34.5 14.5z" />
    <glyph glyph-name="section" unicode="&#xa7;" horiz-adv-x="2909" 
d="M1457 -977q-287 0 -509.5 62t-364.5 175.5t-214.5 269.5t-72.5 348q0 20 14 34t34 14h337q22 0 34.5 -13.5t12.5 -34.5q0 -242 191.5 -375.5t537.5 -133.5q360 0 543 129.5t183 371.5q0 204 -102 324.5t-332 181.5l-818 212q-206 54 -350 171t-214.5 279.5t-70.5 361.5
q0 275 188 465q-188 222 -188 556q0 186 73 337.5t214.5 262t364 171t509.5 60.5t509 -62t363.5 -175.5t214 -269.5t72.5 -348q0 -20 -14 -34t-34 -14h-335q-22 0 -36 13.5t-14 34.5q0 243 -190 375.5t-536 132.5q-359 0 -543.5 -129t-184.5 -371q0 -189 100.5 -317
t306.5 -182l818 -213q332 -86 497 -294t165 -525q0 -272 -186 -461q185 -214 185 -559q0 -186 -72.5 -337.5t-213.5 -262t-363 -171t-509 -60.5zM798 1641q-70 -97 -70 -222q0 -198 94.5 -331t287.5 -183l836 -215q90 -23 167 -56q70 97 70 222q0 213 -96 338t-312 183
l-835 216q-74 19 -142 48z" />
    <glyph glyph-name="perthousand" unicode="&#x2030;" horiz-adv-x="5730" 
d="M1311 1898v754q0 185 -95 278.5t-273 93.5t-273.5 -93.5t-95.5 -278.5v-754q0 -185 95.5 -279t273.5 -94t273 93.5t95 279.5zM1590 2652v-754q0 -299 -164.5 -450t-482.5 -151t-482.5 151t-164.5 450v754q0 299 164.5 449.5t482.5 150.5t482.5 -150.5t164.5 -449.5z
M5159 534v753q0 185 -96 279t-274 94t-273 -93.5t-95 -279.5v-753q0 -186 95.5 -280.5t272.5 -94.5q178 0 274 94.5t96 280.5zM5436 1287v-753q0 -299 -165 -451t-482 -152t-481.5 152t-164.5 451v753q0 299 164 450t482 151t482.5 -151t164.5 -450zM3509 534v753
q0 185 -95.5 279t-273.5 94t-273.5 -94t-95.5 -279v-753q0 -186 96 -280.5t273 -94.5t273 94.5t96 280.5zM3787 1287v-753q0 -299 -165 -451t-482 -152t-482 152t-165 451v753q0 299 164.5 450t482.5 151t482.5 -151t164.5 -450zM2829 3185h224q21 0 34 -20t0 -41
l-1790 -3100q-14 -24 -42 -24h-223q-21 0 -34.5 19t-0.5 40l1791 3100q16 26 41 26z" />
    <glyph glyph-name="dagger" unicode="&#x2020;" horiz-adv-x="2183" 
d="M983 3354h217q20 0 34 -15t14 -35v-860h591q20 0 34.5 -14t14.5 -34v-217q0 -20 -14.5 -34t-34.5 -14h-591v-2823q0 -20 -14 -35t-34 -15h-217q-20 0 -34 15t-14 35v2823h-591q-20 0 -34 14t-14 34v217q0 20 14 34t34 14h591v860q0 20 14 35t34 15z" />
    <glyph glyph-name="daggerdbl" unicode="&#x2021;" horiz-adv-x="2183" 
d="M983 3354h217q20 0 34 -15t14 -35v-860h591q20 0 34.5 -14t14.5 -34v-217q0 -20 -14.5 -34t-34.5 -14h-591v-1649h591q20 0 34.5 -14t14.5 -34v-217q0 -20 -14.5 -34t-34.5 -14h-591v-861q0 -20 -14 -35t-34 -15h-217q-20 0 -34 15t-14 35v861h-591q-20 0 -34 14t-14 34
v217q0 20 14 34t34 14h591v1649h-591q-20 0 -34 14t-14 34v217q0 20 14 34t34 14h591v860q0 20 14 35t34 15z" />
    <glyph glyph-name="Agrave" unicode="&#xc0;" horiz-adv-x="3136" 
d="M898 4301l-5 13q0 9 6.5 16t15.5 7h298q23 0 43 -12.5t31 -32.5l386 -704q2 -4 2 -10q0 -9 -7.5 -16t-15.5 -7h-198q-43 0 -68 35zM86 0q-16 0 -29 12t-13 28q0 2 4 14l1260 3099q13 32 45 32h433q31 0 44 -32l1260 -3099q4 -12 4 -14q0 -16 -12 -28t-27 -12h-362
q-32 0 -45 32l-396 989h-1365l-395 -989q-13 -32 -45 -32h-361zM2115 1364l-546 1366l-545 -1366h1091z" />
    <glyph glyph-name="Aacute" unicode="&#xc1;" horiz-adv-x="3136" 
d="M2212 4301l-490 -711q-25 -35 -66 -35h-199q-8 0 -15.5 7t-7.5 16q0 6 2 10l386 704q11 20 31 32.5t43 12.5h297q9 0 16 -7t7 -16q0 -3 -4 -13zM86 0q-16 0 -29 12t-13 28q0 2 4 14l1260 3099q13 32 45 32h433q31 0 44 -32l1260 -3099q4 -12 4 -14q0 -16 -12 -28t-27 -12
h-362q-32 0 -45 32l-396 989h-1365l-395 -989q-13 -32 -45 -32h-361zM2115 1364l-546 1366l-545 -1366h1091z" />
    <glyph glyph-name="Acircumflex" unicode="&#xc2;" horiz-adv-x="3136" 
d="M1572 4127l-294 -545q-14 -27 -44 -27h-218q-8 0 -15.5 7t-7.5 16q0 6 2 10l402 723q15 26 42 26h264q27 0 42 -26l403 -723q4 -8 4 -10q0 -9 -7.5 -16t-15.5 -7h-219q-30 0 -44 27zM86 0q-16 0 -29 12t-13 28q0 2 4 14l1260 3099q13 32 45 32h433q31 0 44 -32
l1260 -3099q4 -12 4 -14q0 -16 -12 -28t-27 -12h-362q-32 0 -45 32l-396 989h-1365l-395 -989q-13 -32 -45 -32h-361zM2115 1364l-546 1366l-545 -1366h1091z" />
    <glyph glyph-name="Atilde" unicode="&#xc3;" horiz-adv-x="3136" 
d="M1319 3910q71 0 142 -17t119.5 -38t110.5 -38t117 -17q140 0 268 98q7 6 15 4q21 -2 21 -21l1 -178q0 -26 -23 -47q-117 -101 -282 -101q-72 0 -143.5 17t-119.5 38t-109.5 38t-116.5 17q-143 0 -267 -98q-9 -8 -17 -6q-20 2 -20 23v174q0 28 22 48q117 104 282 104z
M86 0q-16 0 -29 12t-13 28q0 2 4 14l1260 3099q13 32 45 32h433q31 0 44 -32l1260 -3099q4 -12 4 -14q0 -16 -12 -28t-27 -12h-362q-32 0 -45 32l-396 989h-1365l-395 -989q-13 -32 -45 -32h-361zM2115 1364l-546 1366l-545 -1366h1091z" />
    <glyph glyph-name="Adieresis" unicode="&#xc4;" horiz-adv-x="3136" 
d="M1917 3891q77 0 125 -45.5t48 -121.5q0 -77 -48 -123t-125 -46t-124.5 46t-47.5 123t47.5 122t124.5 45zM1212 3891q77 0 125 -45.5t48 -121.5q0 -77 -48 -123t-125 -46t-125 46t-48 123q0 76 48 121.5t125 45.5zM86 0q-16 0 -29 12t-13 28q0 2 4 14l1260 3099
q13 32 45 32h433q31 0 44 -32l1260 -3099q4 -12 4 -14q0 -16 -12 -28t-27 -12h-362q-32 0 -45 32l-396 989h-1365l-395 -989q-13 -32 -45 -32h-361zM2115 1364l-546 1366l-545 -1366h1091z" />
    <glyph glyph-name="Aring" unicode="&#xc5;" horiz-adv-x="3136" 
d="M1564 4166q-96 0 -154.5 -54t-58.5 -148t58.5 -149t154.5 -55t154.5 55t58.5 149t-58.5 148t-154.5 54zM1564 4372q192 0 309.5 -110t117.5 -298t-117.5 -298t-309.5 -110t-309.5 110t-117.5 298t117.5 298t309.5 110zM86 0q-16 0 -29 12t-13 28q0 2 4 14l1260 3099
q13 32 45 32h433q31 0 44 -32l1260 -3099q4 -12 4 -14q0 -16 -12 -28t-27 -12h-362q-32 0 -45 32l-396 989h-1365l-395 -989q-13 -32 -45 -32h-361zM2115 1364l-546 1366l-545 -1366h1091z" />
    <glyph glyph-name="Ccedilla" unicode="&#xc7;" horiz-adv-x="3183" 
d="M2456 1089q0 20 14.5 34t34.5 14h335q20 0 34 -14t14 -34v-65q0 -342 -135.5 -580.5t-394.5 -364.5t-636 -145v-133q157 -23 249.5 -129.5t92.5 -272.5q0 -188 -117 -298t-307 -110q-185 0 -301 105t-122 284q0 14 9 23.5t22 9.5h150q12 0 20 -8.5t10 -19.5
q4 -87 62 -138.5t150 -51.5q96 0 155.5 55t59.5 149q0 93 -59.5 148t-155.5 55h-72q-20 0 -34.5 14t-14.5 34l2 282q-597 15 -911 290.5t-314 801.5v1137q0 542 332.5 816.5t963.5 274.5t963.5 -274.5t332.5 -816.5v-65q0 -20 -14 -35t-34 -15h-335q-20 0 -34.5 15t-14.5 35
v31q0 383 -226.5 580.5t-637.5 197.5t-637 -197.5t-226 -580.5v-1069q0 -383 226 -581.5t637 -198.5t637.5 198.5t226.5 581.5v31z" />
    <glyph glyph-name="Egrave" unicode="&#xc8;" horiz-adv-x="2572" 
d="M813 4301l-5 13q0 9 6.5 16t15.5 7h298q23 0 43 -12.5t31 -32.5l386 -704q2 -4 2 -10q0 -9 -7.5 -16t-15.5 -7h-198q-43 0 -68 35zM2431 347q20 0 34 -14t14 -34v-251q0 -20 -14 -34t-34 -14h-2041q-20 0 -35 14t-15 34v3088q0 20 15 34.5t35 14.5h2041q20 0 34 -14.5
t14 -34.5v-250q0 -20 -14 -34t-34 -14h-1658v-1073h1203q20 0 34 -14t14 -34v-249q0 -20 -14 -34.5t-34 -14.5h-1203v-1072h1658z" />
    <glyph glyph-name="Eacute" unicode="&#xc9;" horiz-adv-x="2572" 
d="M2065 4301l-490 -711q-25 -35 -66 -35h-199q-8 0 -15.5 7t-7.5 16q0 6 2 10l386 704q11 20 31 32.5t43 12.5h297q9 0 16 -7t7 -16q0 -3 -4 -13zM2431 347q20 0 34 -14t14 -34v-251q0 -20 -14 -34t-34 -14h-2041q-20 0 -35 14t-15 34v3088q0 20 15 34.5t35 14.5h2041
q20 0 34 -14.5t14 -34.5v-250q0 -20 -14 -34t-34 -14h-1658v-1073h1203q20 0 34 -14t14 -34v-249q0 -20 -14 -34.5t-34 -14.5h-1203v-1072h1658z" />
    <glyph glyph-name="Ecircumflex" unicode="&#xca;" horiz-adv-x="2572" 
d="M1415 4127l-294 -545q-14 -27 -44 -27h-218q-8 0 -15.5 7t-7.5 16q0 6 2 10l402 723q15 26 42 26h264q27 0 42 -26l403 -723q4 -8 4 -10q0 -9 -7.5 -16t-15.5 -7h-219q-30 0 -44 27zM2431 347q20 0 34 -14t14 -34v-251q0 -20 -14 -34t-34 -14h-2041q-20 0 -35 14t-15 34
v3088q0 20 15 34.5t35 14.5h2041q20 0 34 -14.5t14 -34.5v-250q0 -20 -14 -34t-34 -14h-1658v-1073h1203q20 0 34 -14t14 -34v-249q0 -20 -14 -34.5t-34 -14.5h-1203v-1072h1658z" />
    <glyph glyph-name="Edieresis" unicode="&#xcb;" horiz-adv-x="2572" 
d="M1741 3891q77 0 125 -45.5t48 -121.5q0 -77 -48 -123t-125 -46t-124.5 46t-47.5 123t47.5 122t124.5 45zM1036 3891q77 0 125 -45.5t48 -121.5q0 -77 -48 -123t-125 -46t-125 46t-48 123q0 76 48 121.5t125 45.5zM2431 347q20 0 34 -14t14 -34v-251q0 -20 -14 -34
t-34 -14h-2041q-20 0 -35 14t-15 34v3088q0 20 15 34.5t35 14.5h2041q20 0 34 -14.5t14 -34.5v-250q0 -20 -14 -34t-34 -14h-1658v-1073h1203q20 0 34 -14t14 -34v-249q0 -20 -14 -34.5t-34 -14.5h-1203v-1072h1658z" />
    <glyph glyph-name="Igrave" unicode="&#xcc;" horiz-adv-x="1112" 
d="M-87 4301l-5 13q0 9 6.5 16t15.5 7h298q23 0 43 -12.5t31 -32.5l386 -704q2 -4 2 -10q0 -9 -7.5 -16t-15.5 -7h-198q-43 0 -68 35zM390 3185h335q20 0 34 -14.5t14 -34.5v-3088q0 -20 -14 -34t-34 -14h-335q-20 0 -35 14t-15 34v3088q0 20 15 34.5t35 14.5z" />
    <glyph glyph-name="Iacute" unicode="&#xcd;" horiz-adv-x="1112" 
d="M1235 4301l-490 -711q-25 -35 -66 -35h-199q-8 0 -15.5 7t-7.5 16q0 6 2 10l386 704q11 20 31 32.5t43 12.5h297q9 0 16 -7t7 -16q0 -3 -4 -13zM390 3185h335q20 0 34 -14.5t14 -34.5v-3088q0 -20 -14 -34t-34 -14h-335q-20 0 -35 14t-15 34v3088q0 20 15 34.5t35 14.5z
" />
    <glyph glyph-name="Icircumflex" unicode="&#xce;" horiz-adv-x="1112" 
d="M558 4127l-294 -545q-14 -27 -44 -27h-218q-8 0 -15.5 7t-7.5 16q0 6 2 10l402 723q15 26 42 26h264q27 0 42 -26l403 -723q4 -8 4 -10q0 -9 -7.5 -16t-15.5 -7h-219q-30 0 -44 27zM390 3185h335q20 0 34 -14.5t14 -34.5v-3088q0 -20 -14 -34t-34 -14h-335q-20 0 -35 14
t-15 34v3088q0 20 15 34.5t35 14.5z" />
    <glyph glyph-name="Idieresis" unicode="&#xcf;" horiz-adv-x="1112" 
d="M911 3891q77 0 125 -45.5t48 -121.5q0 -77 -48 -123t-125 -46t-124.5 46t-47.5 123t47.5 122t124.5 45zM206 3891q77 0 125 -45.5t48 -121.5q0 -77 -48 -123t-125 -46t-125 46t-48 123q0 76 48 121.5t125 45.5zM390 3185h335q20 0 34 -14.5t14 -34.5v-3088q0 -20 -14 -34
t-34 -14h-335q-20 0 -35 14t-15 34v3088q0 20 15 34.5t35 14.5z" />
    <glyph glyph-name="Ntilde" unicode="&#xd1;" horiz-adv-x="3271" 
d="M1398 3910q71 0 142 -17t119.5 -38t110.5 -38t117 -17q140 0 268 98q7 6 15 4q21 -2 21 -21l1 -178q0 -26 -23 -47q-117 -101 -282 -101q-72 0 -143.5 17t-119.5 38t-109.5 38t-116.5 17q-143 0 -267 -98q-9 -8 -17 -6q-20 2 -20 23v174q0 28 22 48q117 104 282 104z
M773 48q0 -20 -14 -34t-34 -14h-335q-20 0 -35 14t-15 34v3088q0 20 15 34.5t35 14.5h338q45 0 69 -39l1705 -2493v2483q0 20 14 34.5t34 14.5h337q20 0 34 -14.5t14 -34.5v-3088q0 -20 -14 -34t-34 -14h-339q-45 0 -69 38l-1706 2494v-2484z" />
    <glyph glyph-name="Ograve" unicode="&#xd2;" horiz-adv-x="3271" 
d="M968 4301l-5 13q0 9 6.5 16t15.5 7h298q23 0 43 -12.5t31 -32.5l386 -704q2 -4 2 -10q0 -9 -7.5 -16t-15.5 -7h-198q-43 0 -68 35zM2502 1058v1069q0 383 -226 580.5t-637 197.5t-638 -197.5t-227 -580.5v-1069q0 -383 227 -581.5t638 -198.5t637 198.5t226 581.5z
M2935 2161v-1137q0 -542 -333 -817.5t-964 -275.5t-964.5 275.5t-333.5 817.5v1137q0 541 333.5 816t964.5 275t964 -274.5t333 -816.5z" />
    <glyph glyph-name="Oacute" unicode="&#xd3;" horiz-adv-x="3271" 
d="M2281 4301l-490 -711q-25 -35 -66 -35h-199q-8 0 -15.5 7t-7.5 16q0 6 2 10l386 704q11 20 31 32.5t43 12.5h297q9 0 16 -7t7 -16q0 -3 -4 -13zM2502 1058v1069q0 383 -226 580.5t-637 197.5t-638 -197.5t-227 -580.5v-1069q0 -383 227 -581.5t638 -198.5t637 198.5
t226 581.5zM2935 2161v-1137q0 -542 -333 -817.5t-964 -275.5t-964.5 275.5t-333.5 817.5v1137q0 541 333.5 816t964.5 275t964 -274.5t333 -816.5z" />
    <glyph glyph-name="Ocircumflex" unicode="&#xd4;" horiz-adv-x="3271" 
d="M1618 4127l-294 -545q-14 -27 -44 -27h-218q-8 0 -15.5 7t-7.5 16q0 6 2 10l402 723q15 26 42 26h264q27 0 42 -26l403 -723q4 -8 4 -10q0 -9 -7.5 -16t-15.5 -7h-219q-30 0 -44 27zM2502 1058v1069q0 383 -226 580.5t-637 197.5t-638 -197.5t-227 -580.5v-1069
q0 -383 227 -581.5t638 -198.5t637 198.5t226 581.5zM2935 2161v-1137q0 -542 -333 -817.5t-964 -275.5t-964.5 275.5t-333.5 817.5v1137q0 541 333.5 816t964.5 275t964 -274.5t333 -816.5z" />
    <glyph glyph-name="Otilde" unicode="&#xd5;" horiz-adv-x="3271" 
d="M1390 3910q71 0 142 -17t119.5 -38t110.5 -38t117 -17q140 0 268 98q7 6 15 4q21 -2 21 -21l1 -178q0 -26 -23 -47q-117 -101 -282 -101q-72 0 -143.5 17t-119.5 38t-109.5 38t-116.5 17q-143 0 -267 -98q-9 -8 -17 -6q-20 2 -20 23v174q0 28 22 48q117 104 282 104z
M2502 1058v1069q0 383 -226 580.5t-637 197.5t-638 -197.5t-227 -580.5v-1069q0 -383 227 -581.5t638 -198.5t637 198.5t226 581.5zM2935 2161v-1137q0 -542 -333 -817.5t-964 -275.5t-964.5 275.5t-333.5 817.5v1137q0 541 333.5 816t964.5 275t964 -274.5t333 -816.5z" />
    <glyph glyph-name="Odieresis" unicode="&#xd6;" horiz-adv-x="3271" 
d="M1981 3891q77 0 125 -45.5t48 -121.5q0 -77 -48 -123t-125 -46t-124.5 46t-47.5 123t47.5 122t124.5 45zM1276 3891q77 0 125 -45.5t48 -121.5q0 -77 -48 -123t-125 -46t-125 46t-48 123q0 76 48 121.5t125 45.5zM2502 1058v1069q0 383 -226 580.5t-637 197.5
t-638 -197.5t-227 -580.5v-1069q0 -383 227 -581.5t638 -198.5t637 198.5t226 581.5zM2935 2161v-1137q0 -542 -333 -817.5t-964 -275.5t-964.5 275.5t-333.5 817.5v1137q0 541 333.5 816t964.5 275t964 -274.5t333 -816.5z" />
    <glyph glyph-name="Ugrave" unicode="&#xd9;" horiz-adv-x="3271" 
d="M968 4301l-5 13q0 9 6.5 16t15.5 7h298q23 0 43 -12.5t31 -32.5l386 -704q2 -4 2 -10q0 -9 -7.5 -16t-15.5 -7h-198q-43 0 -68 35zM2502 3136q0 20 14 34.5t34 14.5h337q19 0 33.5 -14.5t14.5 -34.5v-2112q0 -542 -333 -817.5t-964 -275.5t-964.5 275.5t-333.5 817.5
v2112q0 19 15 34t35 15h336q20 0 34 -14.5t14 -34.5v-2078q0 -383 227 -581.5t638 -198.5t637 198.5t226 581.5v2078z" />
    <glyph glyph-name="Uacute" unicode="&#xda;" horiz-adv-x="3271" 
d="M2309 4301l-490 -711q-25 -35 -66 -35h-199q-8 0 -15.5 7t-7.5 16q0 6 2 10l386 704q11 20 31 32.5t43 12.5h297q9 0 16 -7t7 -16q0 -3 -4 -13zM2502 3136q0 20 14 34.5t34 14.5h337q19 0 33.5 -14.5t14.5 -34.5v-2112q0 -542 -333 -817.5t-964 -275.5t-964.5 275.5
t-333.5 817.5v2112q0 19 15 34t35 15h336q20 0 34 -14.5t14 -34.5v-2078q0 -383 227 -581.5t638 -198.5t637 198.5t226 581.5v2078z" />
    <glyph glyph-name="Ucircumflex" unicode="&#xdb;" horiz-adv-x="3271" 
d="M1645 4127l-294 -545q-14 -27 -44 -27h-218q-8 0 -15.5 7t-7.5 16q0 6 2 10l402 723q15 26 42 26h264q27 0 42 -26l403 -723q4 -8 4 -10q0 -9 -7.5 -16t-15.5 -7h-219q-30 0 -44 27zM2502 3136q0 20 14 34.5t34 14.5h337q19 0 33.5 -14.5t14.5 -34.5v-2112
q0 -542 -333 -817.5t-964 -275.5t-964.5 275.5t-333.5 817.5v2112q0 19 15 34t35 15h336q20 0 34 -14.5t14 -34.5v-2078q0 -383 227 -581.5t638 -198.5t637 198.5t226 581.5v2078z" />
    <glyph glyph-name="Udieresis" unicode="&#xdc;" horiz-adv-x="3271" 
d="M1967 3891q77 0 125 -45.5t48 -121.5q0 -77 -48 -123t-125 -46t-124.5 46t-47.5 123t47.5 122t124.5 45zM1262 3891q77 0 125 -45.5t48 -121.5q0 -77 -48 -123t-125 -46t-125 46t-48 123q0 76 48 121.5t125 45.5zM2502 3136q0 20 14 34.5t34 14.5h337q19 0 33.5 -14.5
t14.5 -34.5v-2112q0 -542 -333 -817.5t-964 -275.5t-964.5 275.5t-333.5 817.5v2112q0 19 15 34t35 15h336q20 0 34 -14.5t14 -34.5v-2078q0 -383 227 -581.5t638 -198.5t637 198.5t226 581.5v2078z" />
    <glyph glyph-name="Yacute" unicode="&#xdd;" horiz-adv-x="3136" 
d="M2195 4301l-490 -711q-25 -35 -66 -35h-199q-8 0 -15.5 7t-7.5 16q0 6 2 10l386 704q11 20 31 32.5t43 12.5h297q9 0 16 -7t7 -16q0 -3 -4 -13zM1401 0q-19 0 -33 14t-14 34v863l-1303 2213q-7 16 -7 22q0 16 13.5 27.5t28.5 11.5h374q49 0 73 -46l1036 -1815l1036 1815
q11 20 31.5 33t42.5 13l375 -1q15 0 27 -11.5t12 -27.5q0 -9 -5 -21l-1302 -2213v-863q0 -19 -15.5 -33.5t-34.5 -14.5h-335z" />
    <glyph glyph-name="Ydieresis" unicode="&#x178;" horiz-adv-x="3136" 
d="M1900 3891q77 0 125 -45.5t48 -121.5q0 -77 -48 -123t-125 -46t-124.5 46t-47.5 123t47.5 122t124.5 45zM1195 3891q77 0 125 -45.5t48 -121.5q0 -77 -48 -123t-125 -46t-125 46t-48 123q0 76 48 121.5t125 45.5zM1401 0q-19 0 -33 14t-14 34v863l-1303 2213q-7 16 -7 22
q0 16 13.5 27.5t28.5 11.5h374q49 0 73 -46l1036 -1815l1036 1815q11 20 31.5 33t42.5 13l375 -1q15 0 27 -11.5t12 -27.5q0 -9 -5 -21l-1302 -2213v-863q0 -19 -15.5 -33.5t-34.5 -14.5h-335z" />
    <glyph glyph-name="Scaron" unicode="&#x160;" horiz-adv-x="2909" 
d="M1434 3766l294 544q14 27 44 27h219q9 0 16 -6.5t7 -15.5q0 -4 -4 -12l-403 -723q-15 -25 -42 -25h-264q-27 0 -42 25l-402 723q-2 4 -2 12q0 9 7 15.5t16 6.5h218q30 0 44 -27zM296 805q0 21 14.5 34.5t33.5 13.5h337q21 0 34 -14.5t13 -33.5q0 -244 197.5 -385.5
t531.5 -141.5q354 0 540 135.5t186 383.5q0 214 -102.5 344.5t-331.5 192.5l-818 220q-309 83 -472 302.5t-163 531.5q0 154 45.5 285.5t139.5 238.5t230.5 182.5t326 116.5t419.5 41q286 0 508.5 -64.5t363.5 -181t213.5 -275t72.5 -351.5q0 -19 -14 -33.5t-34 -14.5h-334
q-21 0 -35.5 14.5t-14.5 33.5q0 246 -191 385.5t-535 139.5q-354 0 -541.5 -135.5t-187.5 -381.5q0 -201 110 -340.5t315 -194.5l793 -213q331 -89 500 -294t169 -549q0 -193 -72.5 -350.5t-213.5 -273t-363.5 -179t-508.5 -63.5q-230 0 -419.5 42t-326 119t-230.5 185.5
t-139.5 241t-45.5 286.5z" />
    <glyph glyph-name="Zcaron" unicode="&#x17d;" horiz-adv-x="2972" 
d="M1466 3766l294 544q14 27 44 27h219q9 0 16 -6.5t7 -15.5q0 -4 -4 -12l-403 -723q-15 -25 -42 -25h-264q-27 0 -42 25l-402 723q-2 4 -2 12q0 9 7 15.5t16 6.5h218q30 0 44 -27zM202 3185h2314q19 0 33.5 -14.5t14.5 -34.5v-184q0 -29 -17 -52l-1867 -2553h1927
q20 0 34.5 -14.5t14.5 -33.5v-251q0 -19 -15 -33.5t-34 -14.5h-2496q-20 0 -34.5 14t-14.5 34v185q0 25 18 50l1866 2555h-1744q-20 0 -34.5 14.5t-14.5 33.5v250q0 19 15 34t34 15z" />
    <glyph glyph-name="agrave" unicode="&#xe0;" horiz-adv-x="2601" 
d="M650 3390q-5 12 -5 13q0 9 6.5 16t15.5 7h298q23 0 43 -12.5t31 -32.5l386 -704q2 -4 2 -10q0 -9 -7.5 -16t-15.5 -7h-198q-43 0 -68 35zM1188 2341q330 0 573.5 -90.5t373.5 -260.5t130 -400l-3 -1542q0 -20 -14 -34t-34 -14h-227q-34 0 -44 33l-48 265
q-73 -120 -194 -203.5t-271.5 -123.5t-323.5 -40q-178 0 -325.5 39t-253 108.5t-178.5 166.5t-108 212.5t-35 246.5q0 377 255 576t749 199q374 0 656 -116v144q0 245 -178.5 384t-526.5 139q-121 0 -236.5 -18.5t-206 -49t-155 -59t-117.5 -60.5q-20 -11 -39 1
q-19 10 -19 34v232q0 28 25 42q340 189 775 189zM1866 1107q-245 111 -588 111q-335 0 -504 -123.5t-169 -364.5q0 -220 152 -353t444 -133q124 0 240.5 32t212.5 93t154 161t58 224v353z" />
    <glyph glyph-name="aacute" unicode="&#xe1;" horiz-adv-x="2601" 
d="M1894 3390l-490 -711q-25 -35 -66 -35h-199q-8 0 -15.5 7t-7.5 16q0 6 2 10l386 704q11 20 31 32.5t43 12.5h297q9 0 16 -7t7 -16q0 -3 -4 -13zM1188 2341q330 0 573.5 -90.5t373.5 -260.5t130 -400l-3 -1542q0 -20 -14 -34t-34 -14h-227q-34 0 -44 33l-48 265
q-73 -120 -194 -203.5t-271.5 -123.5t-323.5 -40q-178 0 -325.5 39t-253 108.5t-178.5 166.5t-108 212.5t-35 246.5q0 377 255 576t749 199q374 0 656 -116v144q0 245 -178.5 384t-526.5 139q-121 0 -236.5 -18.5t-206 -49t-155 -59t-117.5 -60.5q-20 -11 -39 1
q-19 10 -19 34v232q0 28 25 42q340 189 775 189zM1866 1107q-245 111 -588 111q-335 0 -504 -123.5t-169 -364.5q0 -220 152 -353t444 -133q124 0 240.5 32t212.5 93t154 161t58 224v353z" />
    <glyph glyph-name="acircumflex" unicode="&#xe2;" horiz-adv-x="2601" 
d="M1268 3216l-294 -545q-14 -27 -44 -27h-218q-8 0 -15.5 7t-7.5 16q0 6 2 10l402 723q15 26 42 26h264q27 0 42 -26l403 -723q4 -8 4 -10q0 -9 -7.5 -16t-15.5 -7h-219q-30 0 -44 27zM1188 2341q330 0 573.5 -90.5t373.5 -260.5t130 -400l-3 -1542q0 -20 -14 -34t-34 -14
h-227q-34 0 -44 33l-48 265q-73 -120 -194 -203.5t-271.5 -123.5t-323.5 -40q-178 0 -325.5 39t-253 108.5t-178.5 166.5t-108 212.5t-35 246.5q0 377 255 576t749 199q374 0 656 -116v144q0 245 -178.5 384t-526.5 139q-121 0 -236.5 -18.5t-206 -49t-155 -59t-117.5 -60.5
q-20 -11 -39 1q-19 10 -19 34v232q0 28 25 42q340 189 775 189zM1866 1107q-245 111 -588 111q-335 0 -504 -123.5t-169 -364.5q0 -220 152 -353t444 -133q124 0 240.5 32t212.5 93t154 161t58 224v353z" />
    <glyph glyph-name="atilde" unicode="&#xe3;" horiz-adv-x="2601" 
d="M1052 2999q71 0 142 -17t119.5 -38t110.5 -38t117 -17q140 0 268 98q7 6 15 4q21 -2 21 -21l1 -178q0 -26 -23 -47q-117 -101 -282 -101q-72 0 -143.5 17t-119.5 38t-109.5 38t-116.5 17q-143 0 -267 -98q-9 -8 -17 -6q-20 2 -20 23v174q0 28 22 48q117 104 282 104z
M1188 2341q330 0 573.5 -90.5t373.5 -260.5t130 -400l-3 -1542q0 -20 -14 -34t-34 -14h-227q-34 0 -44 33l-48 265q-73 -120 -194 -203.5t-271.5 -123.5t-323.5 -40q-178 0 -325.5 39t-253 108.5t-178.5 166.5t-108 212.5t-35 246.5q0 377 255 576t749 199q374 0 656 -116
v144q0 245 -178.5 384t-526.5 139q-121 0 -236.5 -18.5t-206 -49t-155 -59t-117.5 -60.5q-20 -11 -39 1q-19 10 -19 34v232q0 28 25 42q340 189 775 189zM1866 1107q-245 111 -588 111q-335 0 -504 -123.5t-169 -364.5q0 -220 152 -353t444 -133q124 0 240.5 32t212.5 93
t154 161t58 224v353z" />
    <glyph glyph-name="adieresis" unicode="&#xe4;" horiz-adv-x="2601" 
d="M1666 2980q77 0 125 -45.5t48 -121.5q0 -77 -48 -123t-125 -46t-124.5 46t-47.5 123t47.5 122t124.5 45zM961 2980q77 0 125 -45.5t48 -121.5q0 -77 -48 -123t-125 -46t-125 46t-48 123q0 76 48 121.5t125 45.5zM1188 2341q330 0 573.5 -90.5t373.5 -260.5t130 -400
l-3 -1542q0 -20 -14 -34t-34 -14h-227q-34 0 -44 33l-48 265q-73 -120 -194 -203.5t-271.5 -123.5t-323.5 -40q-178 0 -325.5 39t-253 108.5t-178.5 166.5t-108 212.5t-35 246.5q0 377 255 576t749 199q374 0 656 -116v144q0 245 -178.5 384t-526.5 139q-121 0 -236.5 -18.5
t-206 -49t-155 -59t-117.5 -60.5q-20 -11 -39 1q-19 10 -19 34v232q0 28 25 42q340 189 775 189zM1866 1107q-245 111 -588 111q-335 0 -504 -123.5t-169 -364.5q0 -220 152 -353t444 -133q124 0 240.5 32t212.5 93t154 161t58 224v353z" />
    <glyph glyph-name="aring" unicode="&#xe5;" horiz-adv-x="2601" 
d="M1297 3255q-96 0 -154.5 -54t-58.5 -148t58.5 -149t154.5 -55t154.5 55t58.5 149t-58.5 148t-154.5 54zM1297 3461q192 0 309.5 -110t117.5 -298t-117.5 -298t-309.5 -110t-309.5 110t-117.5 298t117.5 298t309.5 110zM1188 2341q330 0 573.5 -90.5t373.5 -260.5
t130 -400l-3 -1542q0 -20 -14 -34t-34 -14h-227q-34 0 -44 33l-48 265q-73 -120 -194 -203.5t-271.5 -123.5t-323.5 -40q-178 0 -325.5 39t-253 108.5t-178.5 166.5t-108 212.5t-35 246.5q0 377 255 576t749 199q374 0 656 -116v144q0 245 -178.5 384t-526.5 139
q-121 0 -236.5 -18.5t-206 -49t-155 -59t-117.5 -60.5q-20 -11 -39 1q-19 10 -19 34v232q0 28 25 42q340 189 775 189zM1866 1107q-245 111 -588 111q-335 0 -504 -123.5t-169 -364.5q0 -220 152 -353t444 -133q124 0 240.5 32t212.5 93t154 161t58 224v353z" />
    <glyph glyph-name="ccedilla" unicode="&#xe7;" horiz-adv-x="2554" 
d="M1279 2343q479 0 731.5 -194t252.5 -574v-65q0 -20 -14 -34.5t-34 -14.5h-302q-20 0 -34 14.5t-14 34.5v23q0 245 -153 371.5t-433 126.5t-432.5 -126.5t-152.5 -371.5v-791q0 -245 152.5 -371.5t432.5 -126.5t433 126.5t153 371.5v22q0 20 14 35t34 15h302q20 0 34 -15
t14 -35v-65q0 -237 -99.5 -402.5t-291 -255.5t-469.5 -107v-133q157 -23 249.5 -129.5t92.5 -272.5q0 -188 -117 -298t-307 -110q-185 0 -301 105t-122 284q0 14 9 23.5t22 9.5h150q12 0 20 -8.5t10 -19.5q4 -87 62 -138.5t150 -51.5q96 0 155.5 55t59.5 149q0 93 -59.5 148
t-155.5 55h-72q-20 0 -34.5 14t-14.5 34l2 282q-442 16 -674 209.5t-232 557.5v876q0 380 252 574t731 194z" />
    <glyph glyph-name="egrave" unicode="&#xe8;" horiz-adv-x="2554" 
d="M616 3390q-5 12 -5 13q0 9 6.5 16t15.5 7h298q23 0 43 -12.5t31 -32.5l386 -704q2 -4 2 -10q0 -9 -7.5 -16t-15.5 -7h-198q-43 0 -68 35zM1280 2343q479 0 730.5 -193.5t251.5 -573.5v-459q0 -20 -13.5 -33.5t-33.5 -13.5h-1521v-336q0 -245 153.5 -372t432.5 -127
t432 127t153 372v22q0 20 14.5 34.5t34.5 14.5h301q20 0 33.5 -14.5t13.5 -34.5v-57q0 -380 -251.5 -574t-730.5 -194t-731.5 194t-252.5 574v877q0 380 252.5 573.5t731.5 193.5zM1865 1366v167q0 245 -153 371.5t-432 126.5t-432.5 -126.5t-153.5 -371.5v-167h1171z" />
    <glyph glyph-name="eacute" unicode="&#xe9;" horiz-adv-x="2554" 
d="M1928 3390l-490 -711q-25 -35 -66 -35h-199q-8 0 -15.5 7t-7.5 16q0 6 2 10l386 704q11 20 31 32.5t43 12.5h297q9 0 16 -7t7 -16q0 -3 -4 -13zM1280 2343q479 0 730.5 -193.5t251.5 -573.5v-459q0 -20 -13.5 -33.5t-33.5 -13.5h-1521v-336q0 -245 153.5 -372t432.5 -127
t432 127t153 372v22q0 20 14.5 34.5t34.5 14.5h301q20 0 33.5 -14.5t13.5 -34.5v-57q0 -380 -251.5 -574t-730.5 -194t-731.5 194t-252.5 574v877q0 380 252.5 573.5t731.5 193.5zM1865 1366v167q0 245 -153 371.5t-432 126.5t-432.5 -126.5t-153.5 -371.5v-167h1171z" />
    <glyph glyph-name="ecircumflex" unicode="&#xea;" horiz-adv-x="2554" 
d="M1279 3216l-294 -545q-14 -27 -44 -27h-218q-8 0 -15.5 7t-7.5 16q0 6 2 10l402 723q15 26 42 26h264q27 0 42 -26l403 -723q4 -8 4 -10q0 -9 -7.5 -16t-15.5 -7h-219q-30 0 -44 27zM1280 2343q479 0 730.5 -193.5t251.5 -573.5v-459q0 -20 -13.5 -33.5t-33.5 -13.5
h-1521v-336q0 -245 153.5 -372t432.5 -127t432 127t153 372v22q0 20 14.5 34.5t34.5 14.5h301q20 0 33.5 -14.5t13.5 -34.5v-57q0 -380 -251.5 -574t-730.5 -194t-731.5 194t-252.5 574v877q0 380 252.5 573.5t731.5 193.5zM1865 1366v167q0 245 -153 371.5t-432 126.5
t-432.5 -126.5t-153.5 -371.5v-167h1171z" />
    <glyph glyph-name="edieresis" unicode="&#xeb;" horiz-adv-x="2554" 
d="M1632 2980q77 0 125 -45.5t48 -121.5q0 -77 -48 -123t-125 -46t-124.5 46t-47.5 123t47.5 122t124.5 45zM927 2980q77 0 125 -45.5t48 -121.5q0 -77 -48 -123t-125 -46t-125 46t-48 123q0 76 48 121.5t125 45.5zM1280 2343q479 0 730.5 -193.5t251.5 -573.5v-459
q0 -20 -13.5 -33.5t-33.5 -13.5h-1521v-336q0 -245 153.5 -372t432.5 -127t432 127t153 372v22q0 20 14.5 34.5t34.5 14.5h301q20 0 33.5 -14.5t13.5 -34.5v-57q0 -380 -251.5 -574t-730.5 -194t-731.5 194t-252.5 574v877q0 380 252.5 573.5t731.5 193.5zM1865 1366v167
q0 245 -153 371.5t-432 126.5t-432.5 -126.5t-153.5 -371.5v-167h1171z" />
    <glyph glyph-name="igrave" unicode="&#xec;" horiz-adv-x="1077" 
d="M-108 3390q-5 12 -5 13q0 9 6.5 16t15.5 7h298q23 0 43 -12.5t31 -32.5l386 -704q2 -4 2 -10q0 -9 -7.5 -16t-15.5 -7h-198q-43 0 -68 35zM390 2275h301q20 0 34 -14t14 -34v-2179q0 -20 -14 -34t-34 -14h-301q-20 0 -35 14t-15 34v2179q0 20 15 34t35 14z" />
    <glyph glyph-name="iacute" unicode="&#xed;" horiz-adv-x="1077" 
d="M1189 3390l-490 -711q-25 -35 -66 -35h-199q-8 0 -15.5 7t-7.5 16q0 6 2 10l386 704q11 20 31 32.5t43 12.5h297q9 0 16 -7t7 -16q0 -3 -4 -13zM390 2275h301q20 0 34 -14t14 -34v-2179q0 -20 -14 -34t-34 -14h-301q-20 0 -35 14t-15 34v2179q0 20 15 34t35 14z" />
    <glyph glyph-name="icircumflex" unicode="&#xee;" horiz-adv-x="1077" 
d="M540 3216l-294 -545q-14 -27 -44 -27h-218q-8 0 -15.5 7t-7.5 16q0 6 2 10l402 723q15 26 42 26h264q27 0 42 -26l403 -723q4 -8 4 -10q0 -9 -7.5 -16t-15.5 -7h-219q-30 0 -44 27zM390 2275h301q20 0 34 -14t14 -34v-2179q0 -20 -14 -34t-34 -14h-301q-20 0 -35 14
t-15 34v2179q0 20 15 34t35 14z" />
    <glyph glyph-name="idieresis" unicode="&#xef;" horiz-adv-x="1077" 
d="M893 2980q77 0 125 -45.5t48 -121.5q0 -77 -48 -123t-125 -46t-124.5 46t-47.5 123t47.5 122t124.5 45zM188 2980q77 0 125 -45.5t48 -121.5q0 -77 -48 -123t-125 -46t-125 46t-48 123q0 76 48 121.5t125 45.5zM390 2275h301q20 0 34 -14t14 -34v-2179q0 -20 -14 -34
t-34 -14h-301q-20 0 -35 14t-15 34v2179q0 20 15 34t35 14z" />
    <glyph glyph-name="ntilde" unicode="&#xf1;" horiz-adv-x="2645" 
d="M1079 2999q71 0 142 -17t119.5 -38t110.5 -38t117 -17q140 0 268 98q7 6 15 4q21 -2 21 -21l1 -178q0 -26 -23 -47q-117 -101 -282 -101q-72 0 -143.5 17t-119.5 38t-109.5 38t-116.5 17q-143 0 -267 -98q-9 -8 -17 -6q-20 2 -20 23v174q0 28 22 48q117 104 282 104z
M1959 0q-20 0 -34 14t-14 34v1485q0 245 -153.5 371.5t-433.5 126.5t-432.5 -126.5t-152.5 -371.5v-1485q0 -20 -14 -34t-34 -14h-301q-20 0 -35 14t-15 34v2179q0 20 15 34t35 14h228q35 0 45 -33l41 -245q188 346 756 346q403 0 626 -195.5t223 -572.5v-1527
q0 -20 -15 -34t-34 -14h-301z" />
    <glyph glyph-name="ograve" unicode="&#xf2;" horiz-adv-x="2554" 
d="M632 3390q-5 12 -5 13q0 9 6.5 16t15.5 7h298q23 0 43 -12.5t31 -32.5l386 -704q2 -4 2 -10q0 -9 -7.5 -16t-15.5 -7h-198q-43 0 -68 35zM1864 742v791q0 245 -152.5 371.5t-432.5 126.5t-432.5 -126.5t-152.5 -371.5v-791q0 -245 152.5 -371.5t432.5 -126.5t432.5 126.5
t152.5 371.5zM2263 1575v-876q0 -380 -252.5 -574t-731.5 -194t-731 194t-252 574v876q0 380 252 574t731 194t731.5 -194t252.5 -574z" />
    <glyph glyph-name="oacute" unicode="&#xf3;" horiz-adv-x="2554" 
d="M1928 3390l-490 -711q-25 -35 -66 -35h-199q-8 0 -15.5 7t-7.5 16q0 6 2 10l386 704q11 20 31 32.5t43 12.5h297q9 0 16 -7t7 -16q0 -3 -4 -13zM1864 742v791q0 245 -152.5 371.5t-432.5 126.5t-432.5 -126.5t-152.5 -371.5v-791q0 -245 152.5 -371.5t432.5 -126.5
t432.5 126.5t152.5 371.5zM2263 1575v-876q0 -380 -252.5 -574t-731.5 -194t-731 194t-252 574v876q0 380 252 574t731 194t731.5 -194t252.5 -574z" />
    <glyph glyph-name="ocircumflex" unicode="&#xf4;" horiz-adv-x="2554" 
d="M1279 3216l-294 -545q-14 -27 -44 -27h-218q-8 0 -15.5 7t-7.5 16q0 6 2 10l402 723q15 26 42 26h264q27 0 42 -26l403 -723q4 -8 4 -10q0 -9 -7.5 -16t-15.5 -7h-219q-30 0 -44 27zM1864 742v791q0 245 -152.5 371.5t-432.5 126.5t-432.5 -126.5t-152.5 -371.5v-791
q0 -245 152.5 -371.5t432.5 -126.5t432.5 126.5t152.5 371.5zM2263 1575v-876q0 -380 -252.5 -574t-731.5 -194t-731 194t-252 574v876q0 380 252 574t731 194t731.5 -194t252.5 -574z" />
    <glyph glyph-name="otilde" unicode="&#xf5;" horiz-adv-x="2554" 
d="M1034 2999q71 0 142 -17t119.5 -38t110.5 -38t117 -17q140 0 268 98q7 6 15 4q21 -2 21 -21l1 -178q0 -26 -23 -47q-117 -101 -282 -101q-72 0 -143.5 17t-119.5 38t-109.5 38t-116.5 17q-143 0 -267 -98q-9 -8 -17 -6q-20 2 -20 23v174q0 28 22 48q117 104 282 104z
M1864 742v791q0 245 -152.5 371.5t-432.5 126.5t-432.5 -126.5t-152.5 -371.5v-791q0 -245 152.5 -371.5t432.5 -126.5t432.5 126.5t152.5 371.5zM2263 1575v-876q0 -380 -252.5 -574t-731.5 -194t-731 194t-252 574v876q0 380 252 574t731 194t731.5 -194t252.5 -574z" />
    <glyph glyph-name="odieresis" unicode="&#xf6;" horiz-adv-x="2554" 
d="M1632 2980q77 0 125 -45.5t48 -121.5q0 -77 -48 -123t-125 -46t-124.5 46t-47.5 123t47.5 122t124.5 45zM927 2980q77 0 125 -45.5t48 -121.5q0 -77 -48 -123t-125 -46t-125 46t-48 123q0 76 48 121.5t125 45.5zM1864 742v791q0 245 -152.5 371.5t-432.5 126.5
t-432.5 -126.5t-152.5 -371.5v-791q0 -245 152.5 -371.5t432.5 -126.5t432.5 126.5t152.5 371.5zM2263 1575v-876q0 -380 -252.5 -574t-731.5 -194t-731 194t-252 574v876q0 380 252 574t731 194t731.5 -194t252.5 -574z" />
    <glyph glyph-name="ugrave" unicode="&#xf9;" horiz-adv-x="2645" 
d="M660 3390q-5 12 -5 13q0 9 6.5 16t15.5 7h298q23 0 43 -12.5t31 -32.5l386 -704q2 -4 2 -10q0 -9 -7.5 -16t-15.5 -7h-198q-43 0 -68 35zM1189 -69q-403 0 -626 195.5t-223 572.5v1528q0 20 15.5 34t34.5 14h301q20 0 34 -14t14 -34v-1485q0 -245 152.5 -371.5
t432.5 -126.5t433.5 126.5t153.5 371.5v1485q0 20 14 34t34 14h301q20 0 34.5 -14t14.5 -34v-2179q0 -20 -14.5 -34t-34.5 -14h-229q-34 0 -44 33l-41 244q-94 -173 -283.5 -259.5t-473.5 -86.5z" />
    <glyph glyph-name="uacute" unicode="&#xfa;" horiz-adv-x="2645" 
d="M1974 3390l-490 -711q-25 -35 -66 -35h-199q-8 0 -15.5 7t-7.5 16q0 6 2 10l386 704q11 20 31 32.5t43 12.5h297q9 0 16 -7t7 -16q0 -3 -4 -13zM1189 -69q-403 0 -626 195.5t-223 572.5v1528q0 20 15.5 34t34.5 14h301q20 0 34 -14t14 -34v-1485q0 -245 152.5 -371.5
t432.5 -126.5t433.5 126.5t153.5 371.5v1485q0 20 14 34t34 14h301q20 0 34.5 -14t14.5 -34v-2179q0 -20 -14.5 -34t-34.5 -14h-229q-34 0 -44 33l-41 244q-94 -173 -283.5 -259.5t-473.5 -86.5z" />
    <glyph glyph-name="ucircumflex" unicode="&#xfb;" horiz-adv-x="2645" 
d="M1324 3216l-294 -545q-14 -27 -44 -27h-218q-8 0 -15.5 7t-7.5 16q0 6 2 10l402 723q15 26 42 26h264q27 0 42 -26l403 -723q4 -8 4 -10q0 -9 -7.5 -16t-15.5 -7h-219q-30 0 -44 27zM1189 -69q-403 0 -626 195.5t-223 572.5v1528q0 20 15.5 34t34.5 14h301q20 0 34 -14
t14 -34v-1485q0 -245 152.5 -371.5t432.5 -126.5t433.5 126.5t153.5 371.5v1485q0 20 14 34t34 14h301q20 0 34.5 -14t14.5 -34v-2179q0 -20 -14.5 -34t-34.5 -14h-229q-34 0 -44 33l-41 244q-94 -173 -283.5 -259.5t-473.5 -86.5z" />
    <glyph glyph-name="udieresis" unicode="&#xfc;" horiz-adv-x="2645" 
d="M1677 2980q77 0 125 -45.5t48 -121.5q0 -77 -48 -123t-125 -46t-124.5 46t-47.5 123t47.5 122t124.5 45zM972 2980q77 0 125 -45.5t48 -121.5q0 -77 -48 -123t-125 -46t-125 46t-48 123q0 76 48 121.5t125 45.5zM1189 -69q-403 0 -626 195.5t-223 572.5v1528
q0 20 15.5 34t34.5 14h301q20 0 34 -14t14 -34v-1485q0 -245 152.5 -371.5t432.5 -126.5t433.5 126.5t153.5 371.5v1485q0 20 14 34t34 14h301q20 0 34.5 -14t14.5 -34v-2179q0 -20 -14.5 -34t-34.5 -14h-229q-34 0 -44 33l-41 244q-94 -173 -283.5 -259.5t-473.5 -86.5z
" />
    <glyph glyph-name="yacute" unicode="&#xfd;" horiz-adv-x="2645" 
d="M1974 3390l-490 -711q-25 -35 -66 -35h-199q-8 0 -15.5 7t-7.5 16q0 6 2 10l386 704q11 20 31 32.5t43 12.5h297q9 0 16 -7t7 -16q0 -3 -4 -13zM1189 -69q-403 0 -626 195.5t-223 572.5v1528q0 19 15.5 33.5t34.5 14.5h301q19 0 33.5 -14t14.5 -34v-1485
q0 -245 152.5 -371.5t432.5 -126.5t433.5 126.5t153.5 371.5v1485q0 20 14 34t34 14h301q20 0 34.5 -14t14.5 -34v-2535q0 -138 -49.5 -249.5t-138 -189t-212.5 -130t-270.5 -76.5t-314.5 -24q-171 0 -315 21.5t-269.5 71.5t-212.5 126t-137 190.5t-50 259.5q0 20 15 35
t35 15h301q20 0 34 -15t14 -35q0 -105 46 -182.5t128.5 -122t184.5 -65.5t226 -21q96 0 180 12.5t160 42t130 73.5t85.5 111t31.5 152v528q-202 -289 -722 -289z" />
    <glyph glyph-name="ydieresis" unicode="&#xff;" horiz-adv-x="2645" 
d="M1677 2980q77 0 125 -45.5t48 -121.5q0 -77 -48 -123t-125 -46t-124.5 46t-47.5 123t47.5 122t124.5 45zM972 2980q77 0 125 -45.5t48 -121.5q0 -77 -48 -123t-125 -46t-125 46t-48 123q0 76 48 121.5t125 45.5zM1189 -69q-403 0 -626 195.5t-223 572.5v1528
q0 19 15.5 33.5t34.5 14.5h301q19 0 33.5 -14t14.5 -34v-1485q0 -245 152.5 -371.5t432.5 -126.5t433.5 126.5t153.5 371.5v1485q0 20 14 34t34 14h301q20 0 34.5 -14t14.5 -34v-2535q0 -138 -49.5 -249.5t-138 -189t-212.5 -130t-270.5 -76.5t-314.5 -24q-171 0 -315 21.5
t-269.5 71.5t-212.5 126t-137 190.5t-50 259.5q0 20 15 35t35 15h301q20 0 34 -15t14 -35q0 -105 46 -182.5t128.5 -122t184.5 -65.5t226 -21q96 0 180 12.5t160 42t130 73.5t85.5 111t31.5 152v528q-202 -289 -722 -289z" />
    <glyph glyph-name="scaron" unicode="&#x161;" horiz-adv-x="2192" 
d="M1097 2855l294 544q14 27 44 27h219q9 0 16 -6.5t7 -15.5q0 -4 -4 -12l-403 -723q-15 -25 -42 -25h-264q-27 0 -42 25l-402 723q-2 4 -2 12q0 9 7 15.5t16 6.5h218q30 0 44 -27zM1547 581q0 124 -71 218.5t-197 127.5l-574 154q-231 62 -343.5 212.5t-112.5 375.5
q0 321 214.5 497.5t633.5 176.5t634 -172.5t215 -484.5q0 -21 -14.5 -34.5t-35.5 -13.5h-301q-21 0 -34.5 10.5t-13.5 28.5q0 183 -118 285t-340 102q-213 0 -327 -99.5t-114 -270.5q0 -123 64 -217.5t206 -130.5l563 -150q158 -42 264.5 -133t153.5 -208t47 -258
q0 -316 -217.5 -491t-635.5 -175q-415 0 -629.5 174t-214.5 484q0 23 15 35.5t35 12.5h301q21 0 34.5 -11.5t13.5 -28.5q0 -182 118.5 -284.5t339.5 -102.5q212 0 326.5 99t114.5 272z" />
    <glyph glyph-name="zcaron" unicode="&#x17e;" horiz-adv-x="2330" 
d="M1165 2855l294 544q14 27 44 27h219q9 0 16 -6.5t7 -15.5q0 -4 -4 -12l-403 -723q-15 -25 -42 -25h-264q-27 0 -42 25l-402 723q-2 4 -2 12q0 9 7 15.5t16 6.5h218q30 0 44 -27zM321 2275h1689q20 0 34 -14t14 -34l-1 -181q0 -14 -11 -31l-1287 -1702h1342q20 0 34 -14
t14 -34v-217q0 -20 -14 -34t-34 -14h-1871q-19 0 -33.5 14.5t-14.5 33.5v180q0 14 11 30l1290 1703l-1162 1q-19 0 -33.5 14t-14.5 34v217q0 19 14.5 33.5t33.5 14.5z" />
    <glyph glyph-name="eth" unicode="&#xf0;" horiz-adv-x="2601" 
d="M1147 3185h130q20 0 34.5 -14.5t14.5 -34.5v-288q170 -8 312.5 -46t258.5 -110t196 -175t123.5 -245.5t43.5 -316.5l3 -1226q0 -395 -252.5 -596.5t-731.5 -201.5q-478 0 -730.5 201.5t-252.5 596.5v364q0 392 221.5 593.5t627.5 201.5q516 0 718 -293l-2 334
q0 150 -34.5 260.5t-103.5 182.5t-167 111.5t-230 50.5v-306q0 -20 -14.5 -34t-34.5 -14h-130q-20 0 -34 14t-14 34v307q-165 -8 -324 -46t-335 -119q-21 -9 -38.5 3.5t-17.5 33.5v224q0 29 26 43q164 79 328.5 120.5t360.5 52.5v289q0 20 14 34.5t34 14.5zM694 771
q0 -260 153 -393.5t432 -133.5q280 0 433 134t153 393v279q0 259 -153 392t-433 133t-432.5 -133t-152.5 -392v-279z" />
    <glyph glyph-name="Eth" unicode="&#xd0;" horiz-adv-x="3245" 
d="M2520 1126v932q0 384 -225 582t-635 198h-870v-1133h670q20 0 34.5 -14t14.5 -34v-130q0 -20 -14.5 -34.5t-34.5 -14.5h-670v-1131h870q410 0 635 198t225 581zM2951 2092v-999q0 -538 -317 -815.5t-923 -277.5h-1305q-20 0 -34 14t-14 34v1430h-264q-20 0 -35 14.5
t-15 34.5v130q0 20 15 34t35 14h264v1431q0 20 14 34.5t34 14.5h1305q605 0 922.5 -277t317.5 -816z" />
    <glyph glyph-name="circumflex" unicode="&#x2c6;" horiz-adv-x="1737" 
d="M875 3216l-294 -545q-14 -27 -44 -27h-218q-8 0 -15.5 7t-7.5 16q0 6 2 10l402 723q15 26 42 26h264q27 0 42 -26l403 -723q4 -8 4 -10q0 -9 -7.5 -16t-15.5 -7h-219q-30 0 -44 27z" />
    <glyph glyph-name="caron" unicode="&#x2c7;" horiz-adv-x="1737" 
d="M875 2855l294 544q14 27 44 27h219q9 0 16 -6.5t7 -15.5q0 -4 -4 -12l-403 -723q-15 -25 -42 -25h-264q-27 0 -42 25l-402 723q-2 4 -2 12q0 9 7 15.5t16 6.5h218q30 0 44 -27z" />
    <glyph glyph-name="dieresis" unicode="&#xa8;" horiz-adv-x="1630" 
d="M1174 2980q77 0 125 -45.5t48 -121.5q0 -77 -48 -123t-125 -46t-124.5 46t-47.5 123t47.5 122t124.5 45zM469 2980q77 0 125 -45.5t48 -121.5q0 -77 -48 -123t-125 -46t-125 46t-48 123q0 76 48 121.5t125 45.5z" />
    <glyph glyph-name="tilde" unicode="&#x2dc;" horiz-adv-x="1685" 
d="M600 2999q71 0 142 -17t119.5 -38t110.5 -38t117 -17q140 0 268 98q7 6 15 4q21 -2 21 -21l1 -178q0 -26 -23 -47q-117 -101 -282 -101q-72 0 -143.5 17t-119.5 38t-109.5 38t-116.5 17q-143 0 -267 -98q-9 -8 -17 -6q-20 2 -20 23v174q0 28 22 48q117 104 282 104z" />
    <glyph glyph-name="ring" unicode="&#x2da;" horiz-adv-x="1434" 
d="M723 3255q-96 0 -154.5 -54t-58.5 -148t58.5 -149t154.5 -55t154.5 55t58.5 149t-58.5 148t-154.5 54zM723 3461q192 0 309.5 -110t117.5 -298t-117.5 -298t-309.5 -110t-309.5 110t-117.5 298t117.5 298t309.5 110z" />
    <glyph glyph-name="cedilla" unicode="&#xb8;" horiz-adv-x="1434" 
d="M645 52h107q20 0 33.5 -14.5t13.5 -34.5v-202q157 -23 249.5 -129.5t92.5 -272.5q0 -188 -117 -298t-307 -110q-185 0 -301 105t-122 284q0 14 9 23.5t22 9.5h150q12 0 20 -8.5t10 -19.5q4 -87 62 -138.5t150 -51.5q96 0 155.5 55t59.5 149q0 93 -59.5 148t-155.5 55h-72
q-20 0 -34.5 14t-14.5 34l2 353q0 20 13.5 34.5t33.5 14.5z" />
    <glyph glyph-name="germandbls.upper" horiz-adv-x="3000" 
d="M1274 1596q-20 0 -34 14.5t-14 33.5v249q0 20 14 34t34 14l335 1q197 0 317.5 100.5t120.5 290.5v104q0 184 -120.5 292.5t-317.5 108.5h-836v-2790q0 -20 -14 -34t-34 -14h-335q-19 0 -34.5 14.5t-15.5 33.5v3088q0 19 15.5 34t34.5 15h1408q151 0 278.5 -48.5
t215.5 -133.5t137.5 -202.5t49.5 -252.5v-223q0 -169 -70 -301t-201 -211q103 -17 186 -56t140.5 -93t96.5 -123.5t57 -146.5t18 -163v-560q0 -331 -188.5 -501t-562.5 -170h-681q-19 0 -33.5 14.5t-14.5 33.5v251q0 19 14 33.5t34 14.5h528q237 0 354.5 101t117.5 314v438
q0 184 -108.5 290t-306.5 106h-585z" />
    <glyph glyph-name="macron" unicode="&#xaf;" horiz-adv-x="1670" 
d="M1327 2832q20 0 34 -6t14 -14v-91q0 -8 -14 -14t-34 -6h-983q-20 0 -34 6t-14 14v91q0 8 14 14t34 6h983z" />
    <glyph glyph-name="brokenbar" unicode="&#xa6;" horiz-adv-x="992" 
d="M390 1081h216q20 0 34 -15t14 -35v-1722q0 -20 -14 -34.5t-34 -14.5h-216q-20 0 -35 14.5t-15 34.5v1722q0 20 15 35t35 15zM390 3355h216q20 0 34 -14.5t14 -34.5v-1722q0 -20 -14 -34.5t-34 -14.5h-216q-20 0 -35 14.5t-15 34.5v1722q0 20 15 34.5t35 14.5z" />
    <glyph glyph-name="ordfeminine" unicode="&#xaa;" horiz-adv-x="2187" 
d="M1096 2988q-222 0 -344.5 -96.5t-122.5 -282.5v-669q0 -186 122 -282t345 -96t345.5 96t122.5 282v669q0 186 -122.5 282.5t-345.5 96.5zM1593 1561q-157 -264 -610 -264q-331 0 -509 154t-178 455v737q0 300 179.5 454.5t507.5 154.5q454 -1 610 -264l32 171q9 30 38 30
h191q17 0 30 -12.5t13 -29.5v-1745q0 -17 -13 -29.5t-30 -12.5h-191q-29 0 -38 30z" />
    <glyph glyph-name="logicalnot" unicode="&#xac;" horiz-adv-x="2183" 
d="M1623 823q-19 0 -33.5 14.5t-14.5 33.5v358h-1231q-19 0 -33.5 15t-14.5 35v215q0 20 14 34t34 14h1495q20 0 34.5 -14t14.5 -34v-623q0 -20 -14.5 -34t-34.5 -14h-216z" />
    <glyph glyph-name="sfthyphen" unicode="&#xad;" horiz-adv-x="1728" 
d="M344 1542h1040q20 0 34 -14t14 -34v-216q0 -20 -14 -34.5t-34 -14.5h-1040q-20 0 -34 14.5t-14 34.5v216q0 20 14 34t34 14z" />
    <glyph glyph-name="onesuperior" unicode="&#xb9;" horiz-adv-x="1175" 
d="M644 2868l-184 -182q-8 -8 -20 -8t-19 8l-116 119q-9 9 -9 19q0 11 9 20l325 327q14 14 34 14h218q14 0 23.5 -10.5t9.5 -24.5v-1751q0 -14 -9.5 -24.5t-23.5 -10.5h-205q-13 0 -23 10.5t-10 24.5v1469z" />
    <glyph glyph-name="twosuperior" unicode="&#xb2;" horiz-adv-x="1925" 
d="M618 2649q0 -14 -10 -24t-24 -10h-206q-14 0 -24 10t-10 24v25q0 290 152.5 434t480.5 144q323 0 480.5 -140.5t157.5 -392.5q0 -141 -58 -248.5t-184 -228.5l-657 -653h912q15 0 25.5 -9.5t10.5 -23.5v-157q0 -14 -11 -24.5t-25 -10.5h-1304q-11 0 -19.5 8.5t-8.5 19.5
v125q0 21 16 35l918 908q110 107 110 249q0 153 -91 235.5t-272 82.5q-197 0 -278 -86.5t-81 -251.5v-40z" />
    <glyph glyph-name="threesuperior" unicode="&#xb3;" horiz-adv-x="1925" 
d="M808 2353q0 14 10.5 25.5t24.5 11.5h206q145 0 227.5 85.5t82.5 219.5q0 181 -98 255t-296 74q-196 0 -293.5 -87t-97.5 -295v-30q0 -11 -9 -19.5t-20 -8.5h-221q-11 0 -19.5 8.5t-8.5 19.5v30q0 316 168 463t501 147q336 0 504.5 -131.5t168.5 -425.5q0 -146 -64 -260.5
t-186 -164.5q122 -50 186 -161.5t64 -254.5q0 -285 -170.5 -421t-502.5 -136q-329 0 -499 148t-170 448v24q0 14 10 24t24 10h210q14 0 24 -10t10 -24v-24q0 -190 99.5 -279t291.5 -89q195 0 294.5 77.5t99.5 251.5q0 134 -83 220.5t-227 86.5h-206q-14 0 -24.5 10.5
t-10.5 24.5v157z" />
    <glyph glyph-name="ordmasculine" unicode="&#xba;" horiz-adv-x="2159" 
d="M1534 1961l-2 627q0 197 -118 298.5t-332 101.5q-215 0 -334 -101.5t-119 -298.5l-1 -627q0 -197 119 -298t335 -101q215 0 333.5 101t118.5 298zM1868 2622v-695q0 -312 -201.5 -471t-584.5 -159t-584.5 159t-201.5 471v695q0 312 201.5 471t584.5 159t584.5 -159
t201.5 -471z" />
    <glyph glyph-name="acute" unicode="&#xb4;" horiz-adv-x="1346" 
d="M1074 3390l-490 -711q-25 -35 -66 -35h-199q-8 0 -15.5 7t-7.5 16q0 6 2 10l386 704q11 20 31 32.5t43 12.5h297q9 0 16 -7t7 -16q0 -3 -4 -13z" />
    <glyph glyph-name="periodcentered" unicode="&#xb7;" horiz-adv-x="1077" 
d="M540 1600q109 0 177 -64t68 -172t-68 -172t-177 -64t-176.5 64t-67.5 172t67.5 172t176.5 64z" />
    <glyph glyph-name="nikhahitthai.upper" 
d="M-512 5589q501 0 501 -381v-193q0 -393 -501 -393q-250 0 -375.5 96.5t-125.5 296.5v193q0 381 501 381zM-512 5328q-205 0 -205 -180v-73q0 -190 205 -190t205 190v73q0 180 -205 180z" />
    <glyph glyph-name="nikhahitthai.upper.left" 
d="M-1468 5592q501 0 501 -381v-193q0 -393 -501 -393q-250 0 -375 96t-125 297v193q0 381 500 381zM-1468 5331q-205 0 -205 -180v-73q0 -190 205 -190t205 190v73q0 180 -205 180z" />
    <glyph glyph-name="space" unicode=" " horiz-adv-x="1221" 
 />
    </font>
</defs>
</svg>
